<?xml version="1.0" standalone="no"?>
<!DOCTYPE svg PUBLIC "-//W3C//DTD SVG 1.1//EN" "http://www.w3.org/Graphics/SVG/1.1/DTD/svg11.dtd" >
<svg xmlns="http://www.w3.org/2000/svg" xmlns:xlink="http://www.w3.org/1999/xlink" version="1.1">
<metadata>
Created by FontForge 20170731 at Tue Apr 18 09:41:13 2017
 By Aleksey,,,
Copyright c 2015 Sandoll Communications Inc &#38; Art and Design International. All rights reserved.
</metadata>
<defs>
<font id="SwaggerTTF" horiz-adv-x="900" >
  <font-face 
    font-family="Swagger TTF"
    font-weight="400"
    font-stretch="normal"
    units-per-em="1000"
    panose-1="2 11 6 0 0 1 1 1 1 1"
    ascent="800"
    descent="-200"
    x-height="546"
    cap-height="703"
    bbox="-16 -200 1542 816"
    underline-thickness="50"
    underline-position="-150"
    unicode-range="U+0001-FFE6"
  />
<missing-glyph horiz-adv-x="735" 
d="M700 -115h-666v772h666v-772zM367 246l-279 -330h558zM67 -58l278 330l-278 329v-659zM366 296l278 330h-555zM667 602l-278 -331l278 -329v660z" />
    <glyph glyph-name=".notdef" horiz-adv-x="735" 
d="M700 -115h-666v772h666v-772zM367 246l-279 -330h558zM67 -58l278 330l-278 329v-659zM366 296l278 330h-555zM667 602l-278 -331l278 -329v660z" />
    <glyph glyph-name=".null" horiz-adv-x="0" 
 />
    <glyph glyph-name="nonmarkingreturn" horiz-adv-x="333" 
 />
    <glyph glyph-name="cid1" horiz-adv-x="205" 
 />
    <glyph glyph-name="cid1" unicode="&#xa0;" horiz-adv-x="205" 
 />
    <glyph glyph-name="cid1" unicode=" " horiz-adv-x="205" 
 />
    <glyph glyph-name="cid1" horiz-adv-x="205" 
 />
    <glyph glyph-name="cid1" horiz-adv-x="205" 
 />
    <glyph glyph-name="cid1" horiz-adv-x="205" 
 />
    <glyph glyph-name="cid1" horiz-adv-x="205" 
 />
    <glyph glyph-name="cid1" horiz-adv-x="205" 
 />
    <glyph glyph-name="cid1" horiz-adv-x="205" 
 />
    <glyph glyph-name="cid1" horiz-adv-x="205" 
 />
    <glyph glyph-name="cid1" horiz-adv-x="205" 
 />
    <glyph glyph-name="cid1" horiz-adv-x="205" 
 />
    <glyph glyph-name="cid1" horiz-adv-x="205" 
 />
    <glyph glyph-name="cid1" horiz-adv-x="205" 
 />
    <glyph glyph-name="cid1" horiz-adv-x="205" 
 />
    <glyph glyph-name="cid1" horiz-adv-x="205" 
 />
    <glyph glyph-name="cid1" horiz-adv-x="205" 
 />
    <glyph glyph-name="cid1" horiz-adv-x="205" 
 />
    <glyph glyph-name="cid1" horiz-adv-x="205" 
 />
    <glyph glyph-name="cid1" horiz-adv-x="205" 
 />
    <glyph glyph-name="cid1" horiz-adv-x="205" 
 />
    <glyph glyph-name="cid1" unicode="&#xd;" horiz-adv-x="205" 
 />
    <glyph glyph-name="cid1" horiz-adv-x="205" 
 />
    <glyph glyph-name="cid1" horiz-adv-x="205" 
 />
    <glyph glyph-name="cid1" unicode="&#xa;" horiz-adv-x="205" 
 />
    <glyph glyph-name="cid1" unicode="&#x9;" horiz-adv-x="205" 
 />
    <glyph glyph-name="cid1" horiz-adv-x="205" 
 />
    <glyph glyph-name="cid1" horiz-adv-x="205" 
 />
    <glyph glyph-name="cid1" horiz-adv-x="205" 
 />
    <glyph glyph-name="cid1" horiz-adv-x="205" 
 />
    <glyph glyph-name="cid1" horiz-adv-x="205" 
 />
    <glyph glyph-name="cid1" horiz-adv-x="205" 
 />
    <glyph glyph-name="cid1" horiz-adv-x="205" 
 />
    <glyph glyph-name="cid1" horiz-adv-x="205" 
 />
    <glyph glyph-name="cid2" unicode="!" horiz-adv-x="219" 
d="M67 163l-15 265v307h115v-307l-14 -265h-86zM69 0q-17 0 -17 21v69q0 21 17 21h77q17 0 17 -21v-69q0 -21 -17 -21h-77z" />
    <glyph glyph-name="cid3" unicode="&#x22;" horiz-adv-x="326" 
d="M84 563q-18 0 -21 26l-13 134q-2 26 21 26h63q21 0 20 -26l-13 -134q-3 -26 -20 -26h-37zM205 563q-17 0 -21 26l-12 134q-2 26 21 26h63q9 0 15 -6t5 -20l-13 -134q-3 -26 -20 -26h-38z" />
    <glyph glyph-name="cid4" unicode="#" horiz-adv-x="582" 
d="M92 561h70l25 141h117l-24 -141h81l23 141h118l-24 -141h78l-21 -112h-75l-25 -151h83l-18 -113h-84l-25 -155h-117l25 155h-84l-27 -155h-118l27 155h-71l21 113h69l27 151h-71zM234 298h84l24 151h-82z" />
    <glyph glyph-name="cid5" unicode="$" horiz-adv-x="419" 
d="M46 158h139q42 0 64.5 13.5t22.5 45.5q0 16 -4 26.5t-13.5 19.5t-24.5 18.5t-36 23.5l-32 19q-28 17 -52.5 34.5t-43 40t-29.5 51t-11 67.5q0 148 134 169v89h120v-85h76v-109h-146q-64 0 -64 -58q0 -17 6.5 -30t18.5 -24.5t30.5 -23.5t42.5 -27l32 -20
q33 -21 55.5 -38.5t36 -37t19.5 -43.5t6 -57q0 -78 -29.5 -118t-86.5 -51v-85h-120v80h-111v110z" />
    <glyph glyph-name="cid6" unicode="%" horiz-adv-x="693" 
d="M131 404q0 -21 4.5 -32t16.5 -11q21 0 21 43v196q0 43 -21 43q-12 0 -16.5 -11t-4.5 -32v-196zM33 612q0 57 32 87.5t87 30.5q54 0 86 -30.5t32 -87.5v-220q0 -57 -32 -87.5t-86 -30.5q-55 0 -87 30.5t-32 87.5v220zM404 735h110l-224 -735h-110zM520 135q0 -21 4.5 -32
t16.5 -11q21 0 21 43v196q0 43 -21 43q-12 0 -16.5 -11t-4.5 -32v-196zM423 343q0 57 32 87.5t86 30.5q55 0 87 -30.5t32 -87.5v-220q0 -57 -32 -87.5t-87 -30.5q-54 0 -86 30.5t-32 87.5v220z" />
    <glyph glyph-name="cid7" unicode="&#x26;" horiz-adv-x="549" 
d="M223 605q-32 0 -45 -16t-13 -66q0 -44 14.5 -63t49.5 -19h77v106h117v-106h56v-109h-56v-150q0 -44 17 -59t49 -15h23v-108h-33q-85 0 -126 34q-21 -14 -52 -24t-71 -10q-45 0 -80.5 11.5t-61 35.5t-39 62.5t-13.5 92.5q0 82 24.5 125t61.5 60q-37 16 -57 52t-20 99
q0 47 11.5 80.5t32 54.5t49 31t62.5 10h109v-109h-86zM216 332q-20 0 -31.5 -9.5t-18 -26t-8.5 -38t-2 -45.5q0 -26 3 -45.5t12.5 -32.5t26.5 -19.5t46 -6.5q21 0 37.5 4t27.5 11q-3 22 -3 49v159h-90z" />
    <glyph glyph-name="cid8" unicode="'" horiz-adv-x="237" 
d="M100 563q-18 0 -21 26l-13 134q-2 26 21 26h63q10 0 16 -6t4 -20l-13 -134q-3 -26 -20 -26h-37z" />
    <glyph glyph-name="cid9" unicode="(" horiz-adv-x="355" 
d="M329 -52h-59q-86 0 -131.5 46.5t-45.5 140.5v416q0 94 45.5 140.5t131.5 46.5h51v-110h-47q-27 0 -44 -19t-17 -57v-418q0 -39 15 -57.5t51 -18.5h50v-110z" />
    <glyph glyph-name="cid10" unicode=")" horiz-adv-x="355" 
d="M26 58h50q37 0 52 18.5t15 57.5v418q0 38 -17.5 57t-43.5 19h-48v110h51q86 0 131.5 -46.5t45.5 -140.5v-416q0 -94 -45.5 -140.5t-131.5 -46.5h-59v110z" />
    <glyph glyph-name="cid11" unicode="*" horiz-adv-x="388" 
d="M230 683l57 29q19 9 24 -5l19 -57q2 -6 -0.5 -12t-12.5 -8l-68 -13l58 -55q6 -5 6 -11.5t-5 -11.5l-45 -35q-5 -5 -11.5 -4t-11.5 10l-47 69l-45 -69q-9 -16 -23 -6l-45 35q-5 5 -5 11.5t6 11.5l57 55l-68 13q-9 2 -11.5 8t-0.5 12l19 57q5 15 24 5l57 -29l-9 70
q-2 19 15 19h61q15 0 14 -19z" />
    <glyph glyph-name="cid12" unicode="+" horiz-adv-x="575" 
d="M351 603v-174h160v-110h-160v-175h-120v175h-168v110h168v174h120z" />
    <glyph glyph-name="cid13" unicode="," horiz-adv-x="219" 
d="M65 -47q-18 0 -18 22v78q0 23 18 23h89q18 0 18 -23v-88l-57 -118h-52l29 99q2 7 -3 7h-24z" />
    <glyph glyph-name="cid14" unicode="-" horiz-adv-x="556" 
d="M85 409h385v-109h-385v109z" />
    <glyph glyph-name="cid15" unicode="." horiz-adv-x="219" 
d="M65 -52q-18 0 -18 23v77q0 23 18 23h89q18 0 18 -23v-77q0 -23 -18 -23h-89z" />
    <glyph glyph-name="cid16" unicode="/" horiz-adv-x="410" 
d="M264 735h120l-238 -736h-120z" />
    <glyph glyph-name="cid17" unicode="0" horiz-adv-x="425" 
d="M154 169q0 -39 16.5 -55.5t43.5 -16.5q28 0 44 16.5t16 55.5v397q0 40 -16 56.5t-44 16.5q-27 0 -43.5 -16.5t-16.5 -56.5v-397zM39 559q0 89 45 137t130 48q86 0 131 -48t45 -137v-382q0 -89 -45 -137t-131 -48q-85 0 -130 48t-45 137v382z" />
    <glyph glyph-name="cid18" unicode="1" horiz-adv-x="425" 
d="M60 590l170 145h94v-735h-116v583l-86 -67z" />
    <glyph glyph-name="cid19" unicode="2" horiz-adv-x="425" 
d="M76 735h132q180 1 180 -188q0 -37 -6.5 -69t-22.5 -64.5t-43 -67.5t-67 -78q-26 -28 -42 -49t-25 -38t-12.5 -31t-3.5 -29q0 -11 1 -16h215v-105h-330v90q0 31 5 58.5t18 55.5t34.5 57t53.5 63q33 35 54 63.5t33.5 54t17 50.5t4.5 55q0 84 -80 84h-116v104z" />
    <glyph glyph-name="cid20" unicode="3" horiz-adv-x="425" 
d="M60 116q15 -5 34 -8.5t39 -6t40 -3.5t38 0q29 2 45.5 20t16.5 67v53q0 51 -23 72t-63 21h-43v105h49q33 0 55.5 17t22.5 61v41q0 25 -5.5 41t-15.5 25.5t-22.5 13.5t-26.5 4q-30 1 -64 -2t-66 -11l-20 99q35 9 77 14t83 5q94 0 135 -45.5t41 -134.5v-29
q0 -60 -19.5 -97.5t-61.5 -47.5v-2q44 -11 63.5 -51.5t19.5 -96.5v-64q0 -184 -181 -184q-103 0 -172 23z" />
    <glyph glyph-name="cid21" unicode="4" horiz-adv-x="425" 
d="M22 238l185 497h151v-497h55v-105h-55v-133h-113v133h-188q-35 0 -35 32v73zM245 238v331h-3l-114 -331h117z" />
    <glyph glyph-name="cid22" unicode="5" horiz-adv-x="425" 
d="M65 117q34 -11 67.5 -16t74.5 -3q28 1 45.5 16.5t17.5 54.5v100q0 40 -17 59.5t-45 21.5q-35 2 -63 -2t-66 -15h-23v402h310v-105h-197v-182h2q18 4 33 5.5t41 0.5q67 -2 103.5 -48t36.5 -127v-105q0 -89 -43 -135.5t-129 -46.5q-51 0 -97.5 5.5t-74.5 18.5z" />
    <glyph glyph-name="cid23" unicode="6" horiz-adv-x="425" 
d="M356 631h-114q-15 0 -30.5 -3t-28 -12t-20 -25t-7.5 -43l-1 -97h3q17 18 37 25t53 7q72 0 109.5 -43t37.5 -125v-141q0 -89 -46.5 -135.5t-132.5 -46.5q-85 0 -130 46.5t-45 135.5v379q0 94 48 138t139 44h128v-104zM219 378q-27 0 -45.5 -17t-18.5 -56v-139
q0 -39 17 -53.5t44 -14.5q28 0 45.5 14.5t17.5 53.5v140q0 39 -17 55.5t-43 16.5z" />
    <glyph glyph-name="cid24" unicode="7" horiz-adv-x="425" 
d="M387 735v-101l-170 -634h-115l169 630h-230v105h346z" />
    <glyph glyph-name="cid25" unicode="8" horiz-adv-x="425" 
d="M395 177q0 -89 -46 -137t-134 -48t-134.5 48t-46.5 137v58q0 53 16.5 91.5t54.5 60.5v2q-36 20 -52.5 56t-16.5 91v23q0 89 45.5 137t133.5 48t133 -48t45 -137v-23q0 -109 -69 -147v-2q38 -22 54.5 -60.5t16.5 -91.5v-58zM149 180q0 -49 19 -66t47 -17q27 0 46 17t19 66
v68q0 44 -17 63.5t-48 19.5t-48.5 -19.5t-17.5 -63.5v-68zM152 514q0 -45 17 -61.5t46 -16.5q27 0 45 16.5t18 61.5v41q0 49 -18 66.5t-45 17.5q-28 0 -45.5 -17.5t-17.5 -66.5v-41z" />
    <glyph glyph-name="cid26" unicode="9" horiz-adv-x="425" 
d="M73 104h114q15 0 30.5 3t28 12t20 25.5t7.5 42.5v90h-2q-17 -17 -38 -24.5t-52 -7.5q-72 0 -109.5 43t-37.5 125v148q0 88 46.5 135t131.5 47q86 0 131 -47t45 -135v-378q0 -94 -48 -138.5t-139 -44.5h-128v104zM209 350q26 0 45 17t19 56v145q0 40 -16.5 54.5
t-44.5 14.5q-27 0 -45 -14.5t-18 -54.5v-146q0 -39 18.5 -55.5t41.5 -16.5z" />
    <glyph glyph-name="cid27" unicode=":" horiz-adv-x="243" 
d="M77 474q-18 0 -18 23v76q0 23 18 23h89q18 0 18 -23v-76q0 -23 -18 -23h-89zM77 105q-18 0 -18 23v77q0 23 18 23h89q18 0 18 -23v-77q0 -23 -18 -23h-89z" />
    <glyph glyph-name="cid28" unicode=";" horiz-adv-x="243" 
d="M77 479q-18 0 -18 23v76q0 23 18 23h89q18 0 18 -23v-76q0 -23 -18 -23h-89zM77 110q-18 0 -18 22v78q0 23 18 23h89q18 0 18 -23v-88l-57 -118h-52l29 99q2 7 -3 7h-24z" />
    <glyph glyph-name="cid29" unicode="&#x3c;" horiz-adv-x="420" 
d="M20 331l224 210h155l-223 -208l223 -214h-155z" />
    <glyph glyph-name="cid30" unicode="=" horiz-adv-x="522" 
d="M63 490h396v-105h-396v105zM63 310h396v-105h-396v105z" />
    <glyph glyph-name="cid31" unicode="&#x3e;" horiz-adv-x="420" 
d="M175 119h-155l223 214l-223 208h155l224 -210z" />
    <glyph glyph-name="cid32" unicode="?" horiz-adv-x="426" 
d="M218 178h-116v48q0 31 1.5 52.5t8.5 38.5t19.5 33.5t35.5 36.5q28 26 45.5 43.5t27 32.5t12.5 31t3 39q0 35 -24 56t-69 21h-109v104h126q194 0 194 -170q0 -36 -4.5 -59.5t-17 -45.5t-36 -46.5t-61.5 -61.5q-13 -13 -20.5 -24t-11 -22t-4 -22.5t-0.5 -26.5v-58zM118 0
q-18 0 -18 23v74q0 23 18 23h84q18 0 18 -23v-74q0 -23 -18 -23h-84z" />
    <glyph glyph-name="cid33" unicode="@" horiz-adv-x="742" 
d="M373 678q64 0 120.5 -18.5t99 -57t67 -96t24.5 -135.5v-91q0 -78 -41 -116t-110 -42q-27 -2 -45.5 8t-31.5 27q-44 -39 -101 -39q-133 0 -133 148v95q0 42 11 71t30 47t45 26t55 8h22q67 0 101.5 -38.5t34.5 -113.5v-111q0 -25 3.5 -35t14.5 -8q21 2 27.5 18t6.5 60v103
q0 42 -12 77t-36.5 60.5t-62 40t-89.5 14.5t-90.5 -14.5t-64 -40t-38 -60.5t-12.5 -77v-148q0 -85 53 -135.5t156 -50.5q38 0 76 9.5t65 22.5l31 -90q-40 -20 -84 -30.5t-92 -10.5q-64 0 -121.5 18t-100.5 54.5t-68.5 93t-25.5 134.5v116q0 78 25.5 135.5t68.5 96t100.5 57
t121.5 18.5zM364 413q-23 0 -31 -15.5t-8 -41.5v-92q0 -28 10 -39t30 -11q28 0 40 15t12 44v83q0 26 -7.5 41.5t-30.5 15.5h-15z" />
    <glyph glyph-name="cid34" unicode="A" horiz-adv-x="447" 
d="M430 0h-123l-23 136h-122l-22 -136h-123l129 705h154zM176 235h93l-48 321z" />
    <glyph glyph-name="cid35" unicode="B" horiz-adv-x="433" 
d="M164 596v-179h42q30 0 47 20.5t17 64.5v21q0 73 -55 73h-51zM225 705q86 0 125 -42t39 -124v-31q0 -56 -17 -88.5t-51 -50.5q44 -17 61.5 -52t17.5 -90v-68q0 -83 -44.5 -121t-127.5 -38h-184v705h181zM164 308v-199h54q27 0 44.5 14.5t17.5 51.5v47q0 44 -16 65t-52 21
h-48z" />
    <glyph glyph-name="cid36" unicode="C" horiz-adv-x="371" 
d="M327 0h-125q-82 0 -125.5 44.5t-43.5 132.5v351q0 89 43.5 133t125.5 44h118v-109h-110q-26 0 -41.5 -18t-15.5 -54v-342q0 -37 13.5 -54.5t48.5 -17.5h112v-110z" />
    <glyph glyph-name="cid37" unicode="D" horiz-adv-x="433" 
d="M43 0v705h186q45 0 77 -13t51.5 -37t28.5 -58t9 -76v-336q0 -43 -9 -77t-28.5 -58t-51.5 -37t-77 -13h-186zM212 109q63 0 63 76v326q0 38 -15.5 61.5t-47.5 23.5h-49v-487h49z" />
    <glyph glyph-name="cid38" unicode="E" horiz-adv-x="379" 
d="M164 596v-178h162v-109h-162v-137q0 -37 12.5 -50t47.5 -13h128v-109h-155q-82 0 -117.5 38.5t-35.5 130.5v536h303v-109h-183z" />
    <glyph glyph-name="cid39" unicode="F" horiz-adv-x="379" 
d="M46 0v705h316v-109h-196v-185h169v-110h-169v-301h-120z" />
    <glyph glyph-name="cid40" unicode="G" horiz-adv-x="417" 
d="M156 176q0 -37 17 -51.5t43 -14.5h45v171h-64v107h173v-388h-164q-82 0 -126 46t-44 131v341q0 97 44.5 142t133.5 45h126v-109h-117q-32 0 -49.5 -19t-17.5 -64v-337z" />
    <glyph glyph-name="cid41" unicode="H" horiz-adv-x="448" 
d="M404 705v-705h-121v301h-125v-301h-120v705h120v-294h125v294h121z" />
    <glyph glyph-name="cid42" unicode="I" horiz-adv-x="248" 
d="M64 0v705h120v-705h-120z" />
    <glyph glyph-name="cid43" unicode="J" horiz-adv-x="298" 
d="M248 705v-536q0 -53 -14.5 -86t-38.5 -51.5t-54.5 -26.5t-61.5 -9q-16 -1 -31.5 -0.5t-28.5 2.5v109q8 -1 20.5 -1.5t23.5 0.5q26 1 45.5 15t19.5 54v530h120z" />
    <glyph glyph-name="cid44" unicode="K" horiz-adv-x="439" 
d="M161 402l131 303h124l-148 -337q9 -10 19 -32l137 -336h-127l-109 272q-4 10 -10 15t-17 5h-9v-292h-120v705h120v-303h9z" />
    <glyph glyph-name="cid45" unicode="L" horiz-adv-x="367" 
d="M163 172q0 -37 12.5 -50t47.5 -13h119v-109h-146q-82 0 -117.5 38.5t-35.5 130.5v536h120v-533z" />
    <glyph glyph-name="cid46" unicode="M" horiz-adv-x="615" 
d="M311 155l85 550h179v-705h-110v573l-88 -539q-6 -34 -38 -34h-63q-15 0 -23.5 7t-13.5 27l-88 533v-567h-110v705h180z" />
    <glyph glyph-name="cid47" unicode="N" horiz-adv-x="460" 
d="M41 0v705h150l116 -524v524h107v-705h-105q-20 0 -33.5 11.5t-24.5 52.5l-102 447v-511h-108z" />
    <glyph glyph-name="cid48" unicode="O" horiz-adv-x="423" 
d="M150 166q0 -39 15.5 -55.5t42.5 -16.5q28 0 43.5 16.5t15.5 55.5v379q0 39 -15.5 55.5t-43.5 16.5q-27 0 -42.5 -16.5t-15.5 -55.5v-379zM30 543q0 85 48 131t130 46t130.5 -46t48.5 -131v-381q0 -85 -48.5 -131t-130.5 -46t-130 46t-48 131v381z" />
    <glyph glyph-name="cid49" unicode="P" horiz-adv-x="422" 
d="M163 229v-229h-120v705h164q83 0 129 -44.5t46 -129.5v-128q0 -85 -46 -129.5t-129 -44.5h-44zM163 338h41q25 0 41.5 14.5t16.5 49.5v130q0 37 -16.5 50.5t-41.5 13.5h-41v-258z" />
    <glyph glyph-name="cid50" unicode="Q" horiz-adv-x="447" 
d="M30 542q0 86 48 132t130 46t130.5 -46t48.5 -132v-385v-43t3.5 -31.5t13.5 -18.5t30 -4v-116q-52 -10 -89.5 6t-57.5 57q-40 -19 -79 -19q-82 0 -130 46t-48 131v377zM150 168q0 -38 15.5 -54.5t42.5 -16.5q28 0 43.5 16.5t15.5 54.5v377q0 39 -15.5 55.5t-43.5 16.5
q-27 0 -42.5 -16.5t-15.5 -55.5v-377z" />
    <glyph glyph-name="cid51" unicode="R" horiz-adv-x="431" 
d="M259 210q0 36 -15 51t-45 15h-36v-276h-120v705h164q83 0 129 -44.5t46 -129.5v-81q0 -91 -53 -136q27 -14 38.5 -40t11.5 -71v-203h-120v210zM163 385h41q25 0 41.5 14.5t16.5 49.5v83q0 37 -16.5 50.5t-41.5 13.5h-41v-211z" />
    <glyph glyph-name="cid52" unicode="S" horiz-adv-x="374" 
d="M53 109h90q44 0 59.5 21t16.5 56q1 32 -9 58.5t-42 46.5l-31 19q-52 32 -83 82.5t-31 134.5q0 46 15 80t41 56t61 32t76 10h86v-109h-86q-29 0 -51 -18t-22 -54q0 -20 3 -36t11.5 -30t22.5 -27t36 -28l34 -23q56 -38 74.5 -84t17.5 -104q0 -44 -10.5 -79.5t-33 -61
t-59 -39t-89.5 -13.5h-97v110z" />
    <glyph glyph-name="cid53" unicode="T" horiz-adv-x="404" 
d="M145 0v601h-120v104h354v-104h-120v-601h-114z" />
    <glyph glyph-name="cid54" unicode="U" horiz-adv-x="430" 
d="M385 705v-546q0 -85 -44.5 -131t-125.5 -46q-82 0 -126.5 46t-44.5 131v546h118v-553q0 -35 15 -50t41 -15t40 15t14 50v553h113z" />
    <glyph glyph-name="cid55" unicode="V" horiz-adv-x="443" 
d="M418 705l-105 -639q-12 -68 -45 -68h-93q-33 0 -44 68l-107 639h124l80 -556l75 556h115z" />
    <glyph glyph-name="cid56" unicode="W" horiz-adv-x="650" 
d="M140 705l56 -552l70 552h130l72 -557l54 557h109l-80 -637q-9 -70 -54 -70h-58q-25 0 -38 17.5t-18 52.5l-56 400l-56 -400q-4 -35 -15 -52.5t-43 -17.5h-55q-29 0 -41 17.5t-17 52.5l-81 637h121z" />
    <glyph glyph-name="cid57" unicode="X" horiz-adv-x="460" 
d="M23 0l129 364l-123 341h126l80 -247l80 247h113l-123 -341l131 -364h-128l-87 270l-83 -270h-115z" />
    <glyph glyph-name="cid58" unicode="Y" horiz-adv-x="431" 
d="M138 705l83 -332l84 332h111l-141 -475v-230h-119v230l-141 475h123z" />
    <glyph glyph-name="cid59" unicode="Z" horiz-adv-x="425" 
d="M377 0h-312q-23 0 -23 22v79l214 495h-204v109h322v-106l-204 -474q-7 -16 10 -16h197v-109z" />
    <glyph glyph-name="cid60" unicode="[" horiz-adv-x="355" 
d="M330 -52h-247v790h238v-110h-118v-570h127v-110z" />
    <glyph glyph-name="cid61" unicode="\" horiz-adv-x="716" 
d="M175 654l29 -251h64l32 251h137l33 -251h64l27 251h115l-39 -251h54v-109h-71l-32 -207q-10 -70 -56 -70h-57q-26 0 -40 17t-19 53l-26 207h-51l-27 -207q-5 -36 -15 -53t-45 -17h-54q-31 0 -43.5 17t-17.5 53l-32 207h-72v109h55l-39 251h126zM505 139l17 155h-38z
M235 145l19 149h-37zM353 403h23l-11 94z" />
    <glyph glyph-name="cid62" unicode="]" horiz-adv-x="355" 
d="M29 58h127v570h-119v110h239v-790h-247v110z" />
    <glyph glyph-name="cid63" unicode="^" horiz-adv-x="460" 
d="M282 589l-55 66l-54 -66h-122l112 180h134l112 -180h-127z" />
    <glyph glyph-name="cid64" unicode="_" horiz-adv-x="532" 
d="M63 62h406v-109h-406v109z" />
    <glyph glyph-name="cid65" unicode="`" horiz-adv-x="236" 
d="M117 563q-19 0 -24 23l-34 140q-6 23 15 23h67q9 0 15.5 -5t7.5 -18l13 -140q1 -13 -2 -18t-12 -5h-46z" />
    <glyph glyph-name="cid66" unicode="a" horiz-adv-x="401" 
d="M77 547h141q77 0 111 -38t34 -113v-264q0 -77 -44 -112t-122 -35t-121 35t-43 112v85q0 79 38.5 110t108.5 31h69v40q0 24 -10.5 34.5t-34.5 10.5h-127v104zM197 89q21 0 36.5 8.5t15.5 37.5v124h-57q-17 0 -31.5 -9t-14.5 -37v-73q0 -29 14 -40t37 -11z" />
    <glyph glyph-name="cid67" unicode="b" horiz-adv-x="426" 
d="M391 158q0 -85 -46 -129t-131 -44t-130.5 44t-45.5 129v546h117v-169q12 12 32.5 19.5t44.5 7.5q75 0 117 -44t42 -129v-231zM155 157q0 -36 16 -52t43 -16q28 0 44 16t16 52v226q0 36 -14 56t-46 20q-27 0 -43 -18t-16 -49v-235z" />
    <glyph glyph-name="cid68" unicode="c" horiz-adv-x="331" 
d="M304 0h-115q-164 0 -164 173v200q0 174 164 174h107v-108h-101q-26 0 -39.5 -17t-13.5 -55v-190q0 -36 11.5 -52.5t46.5 -16.5h104v-108z" />
    <glyph glyph-name="cid69" unicode="d" horiz-adv-x="419" 
d="M28 389q0 85 42 129t117 44q24 0 44 -7.5t33 -19.5v169h117v-546q0 -85 -46 -129t-131 -44q-84 0 -130 44t-46 129v231zM264 392q0 31 -16 49t-44 18q-32 0 -45.5 -20t-13.5 -56v-226q0 -36 16 -52t43 -16q28 0 44 16t16 52v235z" />
    <glyph glyph-name="cid70" unicode="e" horiz-adv-x="410" 
d="M352 0h-156q-30 0 -58.5 6t-50 23t-35 49t-13.5 84v226q0 85 42 129.5t127 44.5q84 0 126 -44t42 -130v-69q0 -48 -11.5 -76.5t-31.5 -43.5t-48.5 -19.5t-61.5 -4.5h-67v-15q0 -21 4 -32t11.5 -16.5t18 -6.5t23.5 -1h139v-104zM205 274q30 0 42 12.5t12 44.5v62
q0 35 -11.5 50t-39.5 15t-40 -15.5t-12 -51.5v-117h49z" />
    <glyph glyph-name="cid71" unicode="f" horiz-adv-x="271" 
d="M10 539h54v3q0 50 11.5 82.5t33.5 51t54 26t73 7.5h29v-101h-26q-32 0 -44.5 -14.5t-12.5 -54.5h63v-102h-63v-437h-118v437h-54v102z" />
    <glyph glyph-name="cid72" unicode="g" horiz-adv-x="425" 
d="M28 389q0 85 46 129t130 44q85 0 131 -44t46 -129v-416q0 -80 -40.5 -117t-111.5 -37h-137v105h119q32 0 42.5 13t10.5 45v43q-13 -11 -33 -19t-44 -8q-75 0 -117 44t-42 129v218zM264 390q0 36 -16 52t-44 16q-27 0 -43 -16t-16 -52v-212q0 -37 13.5 -56.5t45.5 -19.5
q26 0 42 15.5t18 44.5v228z" />
    <glyph glyph-name="cid73" unicode="h" horiz-adv-x="435" 
d="M155 535q17 12 38 19.5t48 7.5q69 0 109.5 -40t40.5 -118v-404h-117v371q0 35 -15 56t-47 21q-20 0 -35 -10t-22 -27v-411h-117v705h117v-170z" />
    <glyph glyph-name="cid74" unicode="i" horiz-adv-x="188" 
d="M35 0v556h117v-556h-117zM35 597v118h118v-118h-118z" />
    <glyph glyph-name="cid75" unicode="j" horiz-adv-x="218" 
d="M-16 -77h20q24 0 40.5 16t16.5 60v556h115v-568q0 -50 -13 -82.5t-36 -52.5t-55.5 -28t-71.5 -8h-16v107zM60 596v118h118v-118h-118z" />
    <glyph glyph-name="cid76" unicode="k" horiz-adv-x="438" 
d="M167 328l131 219h126l-151 -245q11 -13 22 -34l143 -268h-133l-107 198q-7 14 -12.5 20.5t-19.5 6.5h-11v-225h-117v704h117v-376h12z" />
    <glyph glyph-name="cid77" unicode="l" horiz-adv-x="225" 
d="M155 704v-540q0 -35 13 -45.5t33 -10.5h6v-108h-13q-75 0 -114.5 34t-39.5 117v553h115z" />
    <glyph glyph-name="cid78" unicode="m" horiz-adv-x="637" 
d="M489 0v392q0 32 -15.5 48t-40.5 16q-55 0 -55 -65v-391h-117v391q0 32 -14 48.5t-40 16.5q-25 0 -39.5 -16t-14.5 -48v-392h-117v396q0 85 43.5 127t124.5 39q44 -2 71 -21t41 -42q14 23 42.5 42t73.5 21q81 3 126.5 -39t45.5 -127v-396h-115z" />
    <glyph glyph-name="cid79" unicode="n" horiz-adv-x="420" 
d="M261 0v387q0 37 -14.5 53t-40.5 16q-25 0 -39.5 -16t-14.5 -53v-387h-117v395q0 85 43.5 126t124.5 41q82 0 128 -41t46 -126v-395h-116z" />
    <glyph glyph-name="cid80" unicode="o" horiz-adv-x="420" 
d="M146 157q0 -36 19 -53.5t45 -17.5t44.5 17.5t18.5 53.5v230q0 37 -18.5 54.5t-44.5 17.5t-45 -17.5t-19 -54.5v-230zM33 384q0 85 47.5 131.5t129.5 46.5t129.5 -46.5t47.5 -131.5v-224q0 -85 -47.5 -131t-129.5 -46t-129.5 46t-47.5 131v224z" />
    <glyph glyph-name="cid81" unicode="p" horiz-adv-x="427" 
d="M388 165q0 -42 -12 -74.5t-33 -54t-49.5 -33t-61.5 -11.5q-28 0 -46.5 6t-32.5 20v-199h-115v570q0 85 45 129t130 44t130 -44t45 -129v-224zM153 160q0 -31 16.5 -48t43.5 -17q58 0 58 70v225q0 36 -15 52t-43 16q-27 0 -43.5 -16t-16.5 -52v-230z" />
    <glyph glyph-name="cid82" unicode="q" horiz-adv-x="427" 
d="M33 388q0 85 45 129t129 44q85 0 130.5 -44t45.5 -129v-569h-116v199q-14 -14 -32.5 -20t-46.5 -6q-33 0 -61.5 11.5t-49 33t-32.5 54t-12 74.5v223zM267 389q0 36 -16 52t-44 16q-27 0 -42 -16t-15 -52v-224q0 -36 15 -53t42 -17q28 0 44 17t16 48v229z" />
    <glyph glyph-name="cid83" unicode="r" horiz-adv-x="278" 
d="M257 450h-46q-32 0 -44 -15.5t-12 -57.5v-377h-114v384q0 46 8 78.5t26.5 53t49 30t75.5 9.5h57v-105z" />
    <glyph glyph-name="cid84" unicode="s" horiz-adv-x="358" 
d="M34 104h120q26 0 41.5 10.5t15.5 34.5q0 25 -10.5 38.5t-42.5 30.5l-26 15q-49 27 -78 63.5t-29 97.5q0 72 41.5 112.5t128.5 40.5h98v-103h-98q-26 0 -41 -12t-15 -36q0 -20 11 -38.5t46 -38.5l20 -11q30 -18 50.5 -34t33.5 -34t18.5 -39.5t5.5 -50.5q0 -77 -41 -113.5
t-115 -36.5h-134v104z" />
    <glyph glyph-name="cid85" unicode="t" horiz-adv-x="315" 
d="M18 539h58v164h117v-164h70v-102h-70v-255q0 -44 16.5 -59t48.5 -15h24v-108h-33q-91 0 -132 40t-41 133v264h-58v102z" />
    <glyph glyph-name="cid86" unicode="u" horiz-adv-x="421" 
d="M378 547v-388q0 -89 -45 -133t-126 -44q-82 0 -126.5 44t-44.5 133v388h115v-392q0 -36 16.5 -51.5t42.5 -15.5t39 15.5t13 51.5v392h116z" />
    <glyph glyph-name="cid87" unicode="v" horiz-adv-x="438" 
d="M416 546l-105 -480q-8 -34 -20 -51t-33 -17h-82q-20 0 -31.5 17.5t-19.5 50.5l-103 480h117l85 -441l76 441h116z" />
    <glyph glyph-name="cid88" unicode="w" horiz-adv-x="613" 
d="M135 546l48 -426l61 426h136l64 -433l46 433h108l-73 -481q-9 -67 -53 -67h-58q-26 0 -38.5 16t-18.5 51l-45 331l-53 -331q-5 -35 -15 -51t-42 -16h-56q-29 0 -41 16t-17 51l-73 481h120z" />
    <glyph glyph-name="cid89" unicode="x" horiz-adv-x="450" 
d="M14 3l136 273l-131 270h131l79 -193l82 193h118l-132 -270l139 -273h-133l-85 195l-83 -195h-121z" />
    <glyph glyph-name="cid90" unicode="y" horiz-adv-x="425" 
d="M383 546v-573q0 -38 -11.5 -66.5t-32.5 -48t-49.5 -29.5t-62.5 -10h-147v105h131q32 0 45 14t13 44v44q-31 -17 -64 -17q-79 0 -123 43.5t-44 133.5v360h115v-364q0 -36 17.5 -51.5t43.5 -15.5t40 15.5t14 51.5v364h115z" />
    <glyph glyph-name="cid91" unicode="z" horiz-adv-x="396" 
d="M362 0h-312q-23 0 -23 22v79l199 341h-190v104h322v-101l-192 -325q-5 -8 -2 -12t11 -4h187v-104z" />
    <glyph glyph-name="cid92" unicode="{" horiz-adv-x="362" 
d="M28 407h31q45 0 45 44v100q0 94 45.5 140.5t131.5 46.5h61v-110h-58q-27 0 -44 -19t-17 -57v-115q0 -42 -19 -62t-54 -23q35 -7 54 -26t19 -61v-131q0 -39 15 -57.5t51 -18.5h61v-110h-69q-86 0 -131.5 46.5t-45.5 140.5v119q0 44 -45 44h-31v109z" />
    <glyph glyph-name="cid93" unicode="|" horiz-adv-x="233" 
d="M53 738h120v-790h-120v790z" />
    <glyph glyph-name="cid94" unicode="}" horiz-adv-x="369" 
d="M343 298h-31q-44 0 -44 -44v-119q0 -94 -45.5 -140.5t-132.5 -46.5h-69v110h61q36 0 51 18.5t15 57.5v131q0 42 19 61t55 26q-36 3 -55 23t-19 62v115q0 38 -17 57t-44 19h-58v110h61q87 0 132.5 -46.5t45.5 -140.5v-100q0 -44 44 -44h31v-109z" />
    <glyph glyph-name="cid95" unicode="~" horiz-adv-x="443" 
d="M12 333q35 51 66.5 73.5t64.5 22.5q17 0 38 -7t50 -27q26 -17 39 -23.5t24 -6.5q8 0 15.5 2.5t15.5 9t18 18.5t24 30l63 -55q-33 -49 -62 -71.5t-64 -22.5q-17 0 -39.5 7.5t-51.5 27.5q-26 17 -39 23t-24 6q-17 0 -32.5 -12t-40.5 -48z" />
    <glyph glyph-name="cid208" unicode="&#xa1;" horiz-adv-x="210" 
d="M141 735q17 0 17 -21v-69q0 -21 -17 -21h-77q-17 0 -17 21v69q0 21 17 21h77zM148 572l14 -265v-307h-115v307l15 265h86z" />
    <glyph glyph-name="cid143" unicode="&#xa2;" horiz-adv-x="425" 
d="M372 48h-74v-80h-120v82q-66 9 -96 51t-30 123v302q0 78 33 115.5t96 46.5v87h120v-84h70v-109h-138q-27 0 -44 -13.5t-17 -52.5v-288q0 -38 15 -54t51 -16h134v-110z" />
    <glyph glyph-name="cid143" unicode="&#xffe0;" horiz-adv-x="425" 
d="M372 48h-74v-80h-120v82q-66 9 -96 51t-30 123v302q0 78 33 115.5t96 46.5v87h120v-84h70v-109h-138q-27 0 -44 -13.5t-17 -52.5v-288q0 -38 15 -54t51 -16h134v-110z" />
    <glyph glyph-name="cid144" unicode="&#xa3;" horiz-adv-x="438" 
d="M59 485h56v66q0 50 15 83.5t41 53.5t61.5 28t76.5 8h39v-104h-36q-32 0 -55 -16.5t-23 -57.5v-61h94v-105h-94v-137q0 -34 -11 -58t-28 -41h191v-105h-334v105q22 10 34.5 24.5t19 32t8 37t1.5 39.5v103h-56v105z" />
    <glyph glyph-name="cid144" unicode="&#xffe1;" horiz-adv-x="438" 
d="M59 485h56v66q0 50 15 83.5t41 53.5t61.5 28t76.5 8h39v-104h-36q-32 0 -55 -16.5t-23 -57.5v-61h94v-105h-94v-137q0 -34 -11 -58t-28 -41h191v-105h-334v105q22 10 34.5 24.5t19 32t8 37t1.5 39.5v103h-56v105z" />
    <glyph glyph-name="cid214" unicode="&#xa4;" horiz-adv-x="858" 
d="M744 357q0 -50 -13.5 -93t-37.5 -81l132 -126l-67 -72l-132 125q-42 -35 -93.5 -54t-108.5 -19q-58 0 -107.5 18t-91.5 50l-126 -120l-67 72l126 121q-26 38 -40.5 83t-14.5 96q0 90 46 167l-117 112l67 72l115 -109q43 38 96 58t114 20q63 0 117 -21.5t97 -61.5l120 114
l67 -72l-125 -119q21 -35 32.5 -75.5t11.5 -84.5zM650 357q0 48 -17.5 90t-48 72.5t-72 48.5t-88.5 18t-88 -18t-72 -48.5t-48.5 -72.5t-17.5 -90t17.5 -89.5t48.5 -72t72 -48.5t88 -18t88.5 18t72 48.5t48 72t17.5 89.5z" />
    <glyph glyph-name="cid145" unicode="&#xa5;" horiz-adv-x="502" 
d="M173 703l83 -301l84 301h111l-107 -307h86v-105h-120v-49h120v-105h-120v-129h-119v129h-124v105h124v49h-124v105h89l-106 307h123z" />
    <glyph glyph-name="cid145" unicode="&#xffe5;" horiz-adv-x="502" 
d="M173 703l83 -301l84 301h111l-107 -307h86v-105h-120v-49h120v-105h-120v-129h-119v129h-124v105h124v49h-124v105h89l-106 307h123z" />
    <glyph glyph-name="cid155" unicode="&#xa7;" horiz-adv-x="366" 
d="M241 267q0 20 -12 38.5t-26 35.5q-3 4 -10.5 11.5t-17.5 15.5t-20 15t-18 9q-7 2 -12 -2.5t-4 -13.5q2 -20 14.5 -40.5t24.5 -34.5q20 -24 37.5 -35.5t28.5 -11.5q15 0 15 13zM344 278q0 -78 -53 -101q17 -26 24 -54t7 -59q0 -75 -40 -117.5t-107 -42.5q-31 0 -57.5 9
t-46 26t-30.5 40.5t-11 53.5v30h109v-30q0 -20 10.5 -30.5t24.5 -10.5q17 0 27.5 13t10.5 39q0 27 -16 57t-41 53t-49 47t-43 50t-30.5 53.5t-11.5 57.5q0 87 60 110q-39 56 -39 122q0 79 38 115t104 36t102 -36t36 -89v-29h-108v29q0 19 -8.5 30.5t-25.5 11.5t-27.5 -12
t-10.5 -34q0 -32 21.5 -62.5t55.5 -61.5q24 -23 46.5 -48t40 -52t28 -55.5t10.5 -58.5z" />
    <glyph glyph-name="cid107" unicode="&#xa8;" horiz-adv-x="476" 
d="M92 657q-18 0 -18 23v77q0 23 18 23h89q18 0 18 -23v-77q0 -23 -18 -23h-89zM293 657q-17 0 -17 23v77q0 23 17 23h90q18 0 18 -23v-77q0 -23 -18 -23h-90z" />
    <glyph glyph-name="cid98" unicode="&#xa9;" horiz-adv-x="868" 
d="M771 318q0 73 -25 135.5t-70 107.5t-107 70.5t-135 25.5q-74 0 -135.5 -25.5t-106.5 -70.5t-70 -107.5t-25 -135.5q0 -74 25 -136t70 -107t106.5 -70.5t135.5 -25.5q73 0 135 25.5t107 70.5t70 107t25 136zM852 318q0 -91 -31.5 -167t-87.5 -131.5t-132.5 -86.5
t-166.5 -31t-167 31t-132.5 86.5t-87 131.5t-31.5 167q0 90 31.5 166.5t87 132t132.5 86.5t167 31t166.5 -31t132.5 -86.5t87.5 -132t31.5 -166.5zM541 37h-116q-81 0 -122 42.5t-41 131.5v198q0 89 41 131.5t122 42.5h108v-108h-101q-26 0 -40 -17t-14 -54v-189
q0 -36 12 -52.5t47 -16.5h104v-109z" />
    <glyph glyph-name="cid668" unicode="&#xaa;" horiz-adv-x="343" 
d="M94 739h85q54 0 78 -26.5t24 -79.5v-149q0 -54 -28 -78.5t-83 -24.5t-82 24.5t-27 78.5v30q0 55 26.5 77t75.5 22h33v10q0 32 -32 32h-70v84zM49 355h245v-93h-245v93zM170 465q11 0 18.5 5.5t7.5 25.5v41h-24q-12 0 -19 -6t-7 -26v-5q0 -20 6 -27.5t18 -7.5z" />
    <glyph glyph-name="cid176" unicode="&#xab;" 
d="M847 47l-55 -86l-476 308v68l468 321l59 -82l-391 -272zM584 42l-56 -84l-475 311v68l468 326l59 -80l-391 -279z" />
    <glyph glyph-name="cid176" unicode="&#x226a;" 
d="M847 47l-55 -86l-476 308v68l468 321l59 -82l-391 -272zM584 42l-56 -84l-475 311v68l468 326l59 -80l-391 -279z" />
    <glyph glyph-name="cid194" unicode="&#xac;" 
d="M886 -160h-117v224h-755v115h872v-339z" />
    <glyph glyph-name="cid194" unicode="&#xffe2;" 
d="M886 -160h-117v224h-755v115h872v-339z" />
    <glyph glyph-name="cid109" unicode="&#xad;" horiz-adv-x="430" 
d="M60 409h309v-109h-309v109z" />
    <glyph glyph-name="cid109" unicode="&#x2013;" horiz-adv-x="430" 
d="M60 409h309v-109h-309v109z" />
    <glyph glyph-name="cid138" unicode="&#xb0;" horiz-adv-x="304" 
d="M151 507q-24 0 -44.5 9t-35.5 24t-23.5 35.5t-8.5 43.5t8.5 43.5t23.5 36t35.5 24.5t44.5 9t45 -9t36 -24.5t23.5 -36t8.5 -43.5t-8.5 -43.5t-23.5 -35.5t-36 -24t-45 -9zM198 619q0 22 -12.5 36t-34.5 14q-21 0 -33.5 -14t-12.5 -36q0 -21 12.5 -35t33.5 -14
q22 0 34.5 14t12.5 35z" />
    <glyph glyph-name="cid130" unicode="&#xb1;" horiz-adv-x="566" 
d="M347 654v-169h160v-109h-160v-170h-120v170h-168v109h168v169h120zM88 169h386v-109h-386v109z" />
    <glyph glyph-name="cid843" unicode="&#xb2;" horiz-adv-x="296" 
d="M69 787h74q50 0 73.5 -21.5t23.5 -59.5q0 -14 -1.5 -25.5t-9 -23t-22 -25t-39.5 -31.5q-14 -10 -22 -17.5t-12 -13.5t-5 -12t-1 -12v-1h109v-58h-182v49q0 17 2 29.5t8.5 23.5t18.5 21.5t32 24.5q17 11 27 19.5t15 15.5t6.5 13.5t1.5 15.5q0 14 -9 22.5t-30 8.5h-58v57z
" />
    <glyph glyph-name="cid844" unicode="&#xb3;" horiz-adv-x="307" 
d="M68 551q17 -5 40 -7.5t43 -1.5q13 1 21 8t8 23v4q0 23 -12 27.5t-30 4.5h-24v56h27q38 0 38 33v3q0 14 -8.5 22t-25.5 8t-35.5 -1.5t-35.5 -6.5l-12 55q20 5 42.5 8.5t46.5 2.5q51 -2 73.5 -22t22.5 -60v-2q0 -25 -10.5 -42.5t-33.5 -22.5v-2q24 -5 36 -20.5t12 -38.5v-8
q0 -45 -24 -66.5t-78 -21.5q-27 0 -51.5 3t-42.5 10z" />
    <glyph glyph-name="cid199" unicode="&#xb4;" horiz-adv-x="344" 
d="M276 738l-140 -222h-68l85 222h123z" />
    <glyph glyph-name="cid244" unicode="&#xb6;" horiz-adv-x="625" 
d="M554 -110h-88v795h-85v-795h-88v464q-56 0 -97.5 15t-69.5 42t-41.5 64t-13.5 80t13.5 79.5t41 63.5t68.5 42t96 15h264v-865z" />
    <glyph glyph-name="cid104" unicode="&#xb7;" horiz-adv-x="274" 
d="M92 293q-18 0 -18 23v77q0 23 18 23h89q18 0 18 -23v-77q0 -23 -18 -23h-89z" />
    <glyph glyph-name="cid104" unicode="&#x30fb;" horiz-adv-x="274" 
d="M92 293q-18 0 -18 23v77q0 23 18 23h89q18 0 18 -23v-77q0 -23 -18 -23h-89z" />
    <glyph glyph-name="cid206" unicode="&#xb8;" horiz-adv-x="337" 
d="M78 -100q17 -12 36.5 -18.5t39.5 -6.5q46 0 46 22q0 21 -39 18q-24 -1 -39 -10l-35 16l40 97h74l-16 -47q29 6 50.5 1.5t34.5 -16t18 -28.5t2 -36q-8 -48 -41 -68t-92 -20q-32 0 -62 10t-51 28z" />
    <glyph glyph-name="cid842" unicode="&#xb9;" horiz-adv-x="262" 
d="M56 714l87 72h62v-299h-74v213l-37 -30z" />
    <glyph glyph-name="cid675" unicode="&#xba;" horiz-adv-x="359" 
d="M57 355h245v-93h-245v93zM310 497q0 -54 -35 -85t-92 -31h-10q-57 0 -90.5 30.5t-33.5 85.5v120q0 25 8.5 47.5t25 39t39 26t51.5 9.5h10q29 0 52.5 -10t40 -26.5t25.5 -38.5t9 -47v-120zM149 514q0 -23 7.5 -32t20.5 -9h2q27 0 27 41v92q0 21 -7.5 30.5t-19.5 9.5h-2
q-13 0 -20.5 -8.5t-7.5 -31.5v-92z" />
    <glyph glyph-name="cid177" unicode="&#xbb;" 
d="M448 304l-391 272l59 82l468 -321v-68l-476 -308l-55 86zM711 304l-391 279l59 80l468 -326v-68l-475 -311l-56 84z" />
    <glyph glyph-name="cid177" unicode="&#x226b;" 
d="M448 304l-391 272l59 82l468 -321v-68l-476 -308l-55 86zM711 304l-391 279l59 80l468 -326v-68l-475 -311l-56 84z" />
    <glyph glyph-name="cid751" unicode="&#xbc;" 
d="M156 659l114 91h77v-399h-90v286l-52 -40zM527 735h109l-281 -736h-109zM487 148l111 304h111v-304h34v-63h-34v-85h-77v85h-124q-21 0 -21 19v44zM632 148v204h-2l-69 -204h71z" />
    <glyph glyph-name="cid748" unicode="&#xbd;" 
d="M550 452h80q54 0 86 -29t32 -86q0 -21 -2 -38t-8 -33.5t-17.5 -33.5t-30.5 -38q-22 -22 -41 -50t-19 -56q0 -6 1 -9h113v-79h-210v55q0 37 13 75.5t52 80.5q21 22 33 37t17.5 27t7 22.5t1.5 22.5q0 49 -49 49h-59v83zM151 659l114 91h77v-399h-90v286l-52 -40zM522 735
h109l-281 -736h-109z" />
    <glyph glyph-name="cid752" unicode="&#xbe;" 
d="M533 735h109l-280 -736h-109zM493 148l112 304h111v-304h34v-63h-34v-85h-78v85h-124q-21 0 -21 19v44zM638 148v204h-2l-68 -204h70zM167 415q18 -7 38.5 -11.5t43.5 -2.5q18 1 27.5 8.5t9.5 37.5v8q0 31 -8.5 40.5t-31.5 9.5h-41v71h44q20 0 27 10.5t7 36.5v6
q0 22 -13 31t-30 9t-29.5 -1.5t-32.5 -5.5l-14 74q21 5 46 8.5t49 3.5q57 0 85.5 -29.5t28.5 -77.5v-10q0 -35 -10.5 -55.5t-36.5 -30.5v-2q26 -8 37 -30t11 -57v-20q0 -59 -32.5 -84.5t-86.5 -25.5q-31 0 -58 4.5t-47 12.5z" />
    <glyph glyph-name="cid209" unicode="&#xbf;" horiz-adv-x="417" 
d="M203 535h116v-47q0 -31 -1.5 -52.5t-8 -38.5t-19.5 -33.5t-36 -36.5q-29 -26 -46 -43.5t-26 -33t-12 -31.5t-3 -38q0 -35 23.5 -56t68.5 -21h109v-104h-126q-194 0 -194 170q0 36 4.5 59.5t17 45t36 46t62.5 62.5q25 25 30 45.5t5 49.5v57zM303 714q18 0 18 -23v-74
q0 -23 -18 -23h-84q-18 0 -18 23v74q0 23 18 23h84z" />
    <glyph glyph-name="cid18353" unicode="&#xc0;" horiz-adv-x="625" 
d="M558 559q5 -2 6 -7.5t1 -13.5v-656l-31 -32h-436l-33 22q-3 2 -4 7.5t-1 11.5v651q0 7 3.5 11.5t7.5 6.5l163 54h158zM487 236q0 36 -13.5 67.5t-37.5 55.5t-55.5 37.5t-67.5 13.5t-68 -13.5t-56 -37.5t-37.5 -55.5t-13.5 -67.5t13.5 -68t37.5 -55.5t56 -37.5t68 -14
t67.5 14t55.5 37.5t37.5 55.5t13.5 68zM396 625q-82 10 -167 0v157q0 7 26 10.5t57.5 3.5t57.5 -3.5t26 -10.5v-157zM386 235q2 -8 -1 -13t-10 -7l-184 -53l-8 26l10 3l2 -7q2 -6 4.5 -7t4.5 0q4 1 3 6l-3 10q-2 5 -7 4q-16 -3 -20 11l-3 11q-2 6 0.5 12t10.5 8q15 5 20 -11
l3 -11l-10 -3l-3 11q-2 5 -7 3q-5 -1 -3 -9l1 -4q2 -6 4 -7t7 0q13 1 17 -12l4 -15l7 2l-2 5l-17 57l11 3l16 -56q2 -5 7.5 -3.5t3.5 6.5l-16 56l10 3l16 -56q2 -6 7 -4.5t3 7.5l-16 56l11 3l16 -57q1 -3 1 -5l7 2l-1 2l-9 29q-2 7 2 13t15 8q-1 5 -7 4l-10 -3l-3 10l10 3
q8 2 13 0t7 -11l12 -41q1 -3 1 -6l22 7q5 1 4 7l-6 -2q-16 -5 -20 11l-7 26q-4 16 11 21t20 -12l12 -41q1 -3 1 -6l22 7q5 2 4 7l-7 -2q-14 -3 -18 11l-8 26q-3 15 11 20q16 3 21 -11zM527 -120q3 0 3 3v649q0 3 -3 3t-3 -3v-649q0 -3 3 -3zM403 240q1 -5 10 -3l7 2l3 -10
l-11 -3q-16 -5 -20 11l-12 42q-3 16 11 20q17 5 21 -11l7 -26q4 -15 -10 -20zM438 295q-2 5 -7 4t-3 -7l16 -57l-10 -3l-16 57q-2 9 1 13.5t10 6.5q15 5 20 -11l3 -10l-11 -3zM291 208q2 -5 7.5 -3.5t3.5 6.5l-9 31l-5 -1q-5 -2 -4 -7zM323 237q3 -8 7 -7l6 2l-9 31
q-2 6 -7 4.5t-3 -7.5zM400 251l4 1q6 2 4 10l-7 23q-2 6 -7 4.5t-3 -7.5zM361 247q2 -5 4 -5.5t5 0.5l3 1l-9 31q-2 6 -7 4.5t-3 -7.5z" />
    <glyph glyph-name="cid18354" unicode="&#xc1;" horiz-adv-x="767" 
d="M641 449q12 -7 24 -19t21.5 -27.5t15 -33.5t5.5 -36v-467q0 -16 -17 -16h-263q-17 0 -17 16v467q0 18 6 36t15.5 33.5t22 27.5t24.5 19q-7 3 -7 11q0 14 14 14h147q14 0 14 -14q0 -8 -7 -11h2zM60 372h297v-506q0 -16 -17 -16h-264q-16 0 -16 16v506zM60 379v259
q0 17 16 17h264q17 0 17 -17v-259h-297zM270 179q-4 12 -19 10q-7 -2 -9 -7t-1 -11l7 -23q2 -8 6.5 -10.5t9.5 -0.5l7 2q1 -6 -4 -6l-20 -6q0 3 -1 6l-10 37q-2 6 -7 9t-11 1q-15 -5 -11 -19l7 -24q4 -13 18 -9l6 2q1 -6 -4 -7l-20 -7q0 3 -1 6l-10 37q-2 8 -6.5 10t-12.5 1
l-9 -3l3 -10l8 3q6 1 7 -4q-20 -3 -15 -19l7 -25l1 -2l-5 -2q0 2 -1 5l-15 51l-10 -3l14 -50q2 -6 -2 -7.5t-6 4.5l-15 50l-9 -3l14 -50q2 -5 -2.5 -6.5t-6.5 3.5l-15 50l-10 -1l15 -53l2 -3l-6 -2l-3 13q-4 11 -16 10q-5 -1 -6.5 0t-3.5 7l-1 4q-1 6 3 7t7 -1l2 -11l9 3
l-3 9q-5 15 -18 11q-7 -2 -9 -7.5t0 -10.5l2 -11q5 -12 18 -9q4 1 6 -4l3 -8q1 -5 -3 -6q-2 -1 -4 0t-3 6l-2 6l-10 -3l8 -22l166 47q6 2 9 7q1 4 0 11zM618 180q-4 12 -19 10q-7 -2 -9 -7t-1 -11l7 -23q2 -8 6.5 -10.5t9.5 -0.5l7 2q1 -6 -4 -6l-20 -6q0 3 -1 6l-10 37
q-2 6 -7 9t-11 1q-15 -5 -11 -19l7 -24q4 -13 18 -9l6 2q1 -6 -4 -7l-20 -7q0 3 -1 6l-10 37q-2 8 -6.5 10t-12.5 1l-9 -3l3 -10l8 3q6 1 7 -4q-20 -3 -15 -19l7 -25l1 -2l-5 -2q0 2 -1 5l-15 51l-10 -3l14 -50q2 -6 -2 -7.5t-6 4.5l-15 50l-9 -3l14 -50q2 -5 -2.5 -6.5
t-6.5 3.5l-15 50l-10 -1l15 -53l2 -3l-6 -2l-3 13q-4 11 -16 10q-5 -1 -6.5 0t-3.5 7l-1 4q-1 6 3 7t7 -1l2 -11l9 3l-3 9q-5 15 -18 11q-7 -2 -9 -7.5t0 -10.5l2 -11q5 -12 18 -9q4 1 6 -4l3 -8q1 -5 -3 -6q-2 -1 -4 0t-3 6l-2 6l-10 -3l8 -22l166 47q6 2 9 7q1 4 0 11z
M609 507h-100v66h100v-66zM625 479h-133v20h133v-20zM648 148q13 4 10 19l-7 23q-2 6 -6.5 9t-12.5 1q-12 -5 -9 -18l10 -38q4 -13 18 -10l11 3l-3 9l-7 -2q-8 -3 -9 3zM300 148q13 4 10 18l-7 23q-2 6 -6.5 9t-12.5 1q-12 -5 -9 -18l10 -38q4 -13 18 -10l10 2l-2 10l-7 -2
q-8 -3 -9 3zM576 540q0 7 -5 12t-12 5q-8 0 -13 -5t-5 -12q0 -8 5 -13t13 -5q7 0 12 5t5 13zM678 188l9 2l-3 9q-3 13 -18 10q-13 -4 -9 -18l14 -52l9 3l-15 51q-1 6 3.5 7t6.5 -4zM330 187l9 2l-3 9q-3 13 -18 10q-13 -4 -9 -18l14 -52l9 3l-15 51q-1 6 3.5 7t6.5 -4z
M632 185q-2 5 3 6.5t7 -3.5l7 -21q2 -8 -5 -10l-3 -1zM566 165q-2 5 2 6.5t6 -3.5l9 -29l-6 -2q-4 -1 -7 7zM218 164q-2 5 2 6.5t6 -3.5l9 -29l-6 -2q-4 -1 -7 7zM535 141q-1 5 4 7l5 1l7 -29q2 -4 -2.5 -5.5t-6.5 2.5zM187 140q-1 5 4 7l5 1l7 -29q2 -4 -2.5 -5.5t-6.5 2.5
zM284 184q-2 5 3 6.5t7 -3.5l5 -21q2 -8 -3 -10l-3 -1zM599 174q-2 6 2.5 7.5t6.5 -4.5l8 -27l-3 -1q-3 -1 -4.5 -1t-2.5 5zM251 173q-2 6 2.5 7.5t6.5 -4.5l8 -27l-3 -1q-3 -1 -4.5 -1t-2.5 5zM476 175q-2 3 -5 2l-4 -1l5 -16l4 1q4 2 2 5v1q0 3 -3 3q2 2 1 4v1zM535 178
q0 1 -1 2v3q-2 3 -3 3q1 1 0 3v2q-2 3 -5 2l-4 -1l5 -16l3 1l-2 6h1q2 2 2 -1l1 -3v-1h3zM489 165l-1 2v2q-2 3 -3 3q1 1 0 4v1q-1 4 -5 3l-3 -1l4 -17l3 1l-2 7h1q2 2 2 -1l1 -3q0 -1 1 -2zM441 151q-1 0 -1 1l-1 3q0 3 -2 3q0 1 0.5 1.5t-0.5 2.5v1q-1 3 -5 3l-4 -1l5 -17
l2 1l-2 7h1q2 0 3 -2v-2l1 -2zM500 186l-3 -1l2 -17h2v3l3 1l1 -3l3 1zM437 167l4 -12q2 -5 5 -3q2 0 3 1.5t-1 3.5l-3 12h-2l3 -13q0 -1 -1 -2q-1 0 -1 1l-4 13zM515 172l2 1l-6 8l1 8h-2l-1 -8l-2 7l-3 -1l5 -16h2l-1 5v2zM489 180l5 1l-1 3l-7 -2l5 -17l7 2l-1 3l-5 -2
l-1 5l4 1l-1 2l-3 -1zM517 188l4 1v3l-7 -2l4 -16l7 1v3l-5 -2l-1 5l3 1v3l-4 -1zM458 171l4 1v3l-7 -3l5 -16l7 2l-1 3l-5 -2l-1 5l4 1l-1 2l-4 -1zM451 154l7 2v2l-5 -1l-4 14l-2 -1zM433 164l1 -2l1 -1q0 -3 -1 -3h-1l-2 5zM481 178q1 0 2 -2v-1q1 -1 -1 -3h-1l-1 5z
M527 191q1 0 2 -1v-2q0 -2 -1 -2h-1l-2 5h2zM471 175q2 0 2 -1l1 -1q0 -2 -2 -2l-1 -1l-1 5h1zM499 182l4 -8h-3zM473 168q2 0 2 -2l1 -1q0 -1 -1 -2h-1l-2 5h1z" />
    <glyph glyph-name="cid18355" unicode="&#xc2;" horiz-adv-x="417" 
d="M357 400l-60 -427q0 -4 -3 -4q-1 -1 -2 0q-45 -1 -81 -1h-85q-5 0 -7 2q-1 1 -1 3l-58 427v28h297v-28zM290 -146q0 -1 -1 -2q-2 -2 -4 -2h-157q-4 0 -4 2q-1 1 0 2l-5 103h177zM223 49q-1 7 -10 6q-9 -3 -7 -10l6 -14q2 -8 9 -5l3 1q1 -1 0.5 -2.5t-1.5 -1.5l-15 -3v1v1
l-6 22q-3 6 -8 5l-6 -1l1 -6l5 2q3 0 4 -2l-3 -1q-8 -2 -7 -11l3 -12l3 -3l-5 -1q2 0 0 4l-8 28l-5 -2l9 -29q0 -2 -2 -3q-4 -1 -4 2l-8 28l-6 -1l8 -28q1 -3 -1 -4q-2 0 -3 3l-8 27l-7 -1l8 -28l2 -4l-4 -1q1 0 1 2l-2 6q0 3 -3 6q-2 0 -3 -0.5t-3 0.5q-5 0 -5 2l-1 6
q-1 2 1.5 2.5t2.5 -1.5l3 -6l5 2l-2 6q-2 7 -10 5q-9 -3 -7 -11l1 -5q1 -2 1.5 -3.5t3.5 -1.5q2 -2 7 0q3 -2 4 -3l1 -5q0 -2 -2 -3q-1 0 -3 2l-2 5l-6 -1l3 -14l99 28q6 3 4 10l-7 22q-2 7 -10 6q-8 -5 -5 -11l4 -14q3 -8 9 -6l3 1q0 -2 -1 -2l-11 -3q-1 0 -1 1v2zM293 31
l-148 -44h141zM266 36l-7 -3l-3 3l4 1q7 2 5 9l-5 15q-2 7 -8 5q-9 -3 -6 -10l5 -20q1 -4 2.5 -6.5t6.5 -0.5l7 1zM277 59l6 2l-1 4q-4 10 -12 8q-9 -4 -6 -12l9 -29l5 1l-9 30q-1 2 2.5 3t4.5 -1zM202 18q-3 0 -4 2l-3 12q-1 4 1 4l3 1l5 -15q2 -4 -2 -4zM223 31l-5 -1
l-1 2l-4 14q0 2 2 3t3 -1zM250 57q-1 3 2 3.5t3 -2.5l4 -13v-3l-4 -1zM240 37l-2 -1q-3 0 -3 2l-4 14q0 2 2 2.5t2 -1.5z" />
    <glyph glyph-name="cid18356" unicode="&#xc3;" horiz-adv-x="361" 
d="M74 -152q-14 0 -14 13v118h241v-118q0 -13 -11 -13h-216zM301 -17h-241v49q0 12 14 12h216q11 0 11 -12v-49zM166 -91v22q0 7 -7 7t-7 -7v-13q0 -7 6 -7h4q0 -2 -2 -2h-12l1 1v1v20q0 7 -7 7h-6v-5h5q3 0 3 -2h-3q-7 0 -7 -8v-11q0 -2 1 -3h-5q1 0 1 3v26h-5v-26
q0 -3 -2 -3q-3 0 -3 3v26h-5v-26q0 -3 -2 -3t-2 3v26h-6v-26q0 -2 1 -3h-4q1 0 1 2v5q0 3 -1 5l-6 2q-3 1 -3 3v5q0 2 2.5 2t2.5 -2v-5h5v5q0 7 -8 7t-8 -7v-5q0 -4 2 -5q2 -2 6 -2q3 -2 3 -4v-4q0 -2 -3 -2q-2 0 -2 2v5h-6v-12h90q5 0 5 7v20q0 7 -7 7t-7 -7v-13q0 -7 6 -7
h3q0 -2 -1 -2h-11zM199 -91h-6q-2 0 -2 2h4q6 0 6 7v13q0 7 -7 7q-8 0 -8 -7v-19q0 -8 7 -8h6v5zM215 -74h5v4q0 8 -8 8t-8 -8v-26h5v27q0 2 3 2t3 -2v-5zM191 -69q0 2 2.5 2t2.5 -2v-13q0 -1 -1 -2h-4v15zM141 -91q-2 0 -2 3v11q0 3 2 3h3v-14q0 -3 -3 -3zM162 -84h-4l-1 2
v13q0 2 2.5 2t2.5 -2v-15zM178 -84h-3q-1 0 -1 2v13q0 2 2 2t2 -2v-15z" />
    <glyph glyph-name="cid18357" unicode="&#xc4;" horiz-adv-x="410" 
d="M311 -115v-14h-212v493h212v-426l-180 -53h180zM292 396h-174v103q0 6 5 11t11 5h141q7 0 12 -5t5 -11v-103zM96 -129h-36v493h36v-493zM314 -129v493h36v-493h-36zM130 -98q0 -2 1 -2h-1l1 -5l8 2h3l31 9q1 0 1 0.5t1 0.5h1l19 6q1 1 2 1l16 5l4 1h2l20 5q4 2 5 4
q2 4 1 8l-7 25q-2 4 -4 5q-4 2 -8 1q-3 0 -5 -5q-1 -3 0 -7l4 -15q1 -2 1 -3t2 -3q4 -2 8 -1l3 1v-3h-2l-13 -5v3l-7 25q-3 5 -4 5q-3 4 -8 2q-4 -1 -6 -5t0 -7l4 -15q2 -5 4 -6q3 -3 8 -1l3 1q1 -1 -1 -3q0 -1 -1 -1l-6 -2l-8 -2v3l-7 25q-2 5 -5 6t-7 0l-5 -1l1 -6l6 1h3
l1 -2l-3 -1q-4 0 -6 -5q-1 -3 0 -7l3 -14q2 -2 2 -3l-5 -1v3l-9 33l-6 -2l10 -33q1 -1 0 -3l-2 -1h-3q0 1 -0.5 1t-0.5 1l-10 34l-6 -3l9 -32q1 -2 0 -3q0 -1 -2 -2q-1 0 -2 1q-1 0 -2 1l-9 34l-7 -2l11 -33q0 -2 1 -3l-5 -1v3l-2 6q0 2 -3 5q-3 1 -9 1h-2l-1 2l-2 6
q0 1 1 3h2q0 1 1 0q2 0 2 -1l1 -7l7 3l-2 5q-2 5 -4 6q-3 3 -7 1q-5 -2 -6 -5q-3 -3 -1 -7l2 -6q0 -2 4 -4q3 -3 7 -1q2 0 2 -1l2 -2l1 -6q1 -1 0 -2q0 -1 -1 -2h-3l-2 2l-1 6l-6 -1l3 -7v-1zM311 -132l-5 -9l-4 -9h-194l-9 18h212zM99 368l7 14l2 3h194l9 -17h-212z
M242 -31q-2 -2 0 -6l6 -25q2 -6 6 -6q3 -1 7 0l6 1l-2 6l-6 -1h-2q-2 0 -2 2l3 1q5 2 6 5t1 6l-5 16l-3 5q-6 2 -9 0q-4 0 -6 -4zM104 -150h-22l-19 18h33zM347 -132l-19 -18h-22l8 18h33zM63 368l19 17h23l-9 -17h-33zM306 385h22l19 -17h-33zM264 -25q-2 -4 0 -6l9 -34
l5 2l-8 33v2l2 2q2 0 2 -1q1 0 1 -1l2 -5l6 1l-2 5q-2 5 -3 5q-4 3 -8 2q-5 -3 -6 -5zM210 -45q1 0 1 -1l5 -19l-3 -1h-2l-2 2l-4 16v2l2 2q2 0 3 -1zM232 -39v-1l5 -19h-5l-2 2l-4 15v2q0 2 2 2q1 1 3 0zM248 -35v2q0 1 2 1h3q1 0 1 -2l4 -15q2 -2 0 -2q0 -1 -1 -2l-4 -1z
M196 -79q0 -1 -2 -1h-3l-1 1l-4 15q-2 2 0 2q0 2 2 2l3 1l5 -19q1 -1 0 -1z" />
    <glyph glyph-name="cid18358" unicode="&#xc5;" horiz-adv-x="537" 
d="M108 45h321v-195h-321v195zM60 45h45v-195h-45v195zM433 -150v195h44v-195h-44zM420 -135v66l-225 -66h225zM445 134v-81h-354v81h354zM327 -39q-3 10 -15 7q-11 -3 -8 -14l5 -19q4 -10 13 -7l5 1q1 -3 -2 -5l-16 -5q0 2 -1 4l-9 30q-3 11 -14 8q-11 -4 -8 -15l5 -18
q3 -12 15 -8l4 1q1 -4 -3 -5l-16 -5q0 2 -1 4l-8 30q-3 11 -14 8l-8 -2l3 -8l7 2q3 1 5 -2q-8 -2 -11 -6t-1 -9l6 -21l1 -2l-5 -1q0 1 -1 3l-12 41l-7 -2l11 -40q1 -5 -2.5 -6t-4.5 4l-12 40l-7 -2l12 -40q1 -4 -3 -5t-5 3l-12 40l-8 -2l13 -41q0 -2 1 -4l-5 -1l-3 10
q-3 10 -12 9q-4 -1 -5.5 -0.5t-2.5 5.5l-1 3q0 6 2 6q4 1 6 -2l2 -8l7 2l-2 8q-3 11 -15 8q-10 -3 -8 -14l3 -8q3 -10 14 -8q3 1 3.5 0l1.5 -3l2 -7q2 -4 -2 -4q-5 -2 -6 5l-2 5l-7 -2l6 -19l132 38q5 2 7 5q1 3 1 9zM285 -52q-1 5 2.5 6t4.5 -3l7 -23l-5 -1q-2 -1 -5 5z
M261 -70q0 3 3 5h4l6 -22q2 -4 -2 -5t-6 3zM351 -65q10 4 7 15l-5 18q-2 12 -15 8q-10 -3 -8 -14l9 -30q3 -11 14 -8l8 2l-2 7l-5 -1q-6 -2 -7 2zM374 -34l8 2l-2 8q-3 11 -15 8q-5 -2 -7 -5t0 -10l11 -41l7 2l-11 41q-2 5 2 5.5t5 -3.5zM312 -44q-2 5 1.5 6t5.5 -4l6 -22
l-2 -1h-3.5t-2.5 4zM338 -36q-1 5 2.5 6t4.5 -4l5 -16q3 -7 -2 -7l-3 -1z" />
    <glyph glyph-name="cid666" unicode="&#xc6;" horiz-adv-x="707" 
d="M463 430h178v-109h-178v-146q0 -38 14 -52t50 -14h140v-109h-163q-78 0 -116 32.5t-44 111.5h-136l-45 -144h-123l240 735h383v-109h-200v-196zM343 248v330l-103 -330h103z" />
    <glyph glyph-name="cid18359" unicode="&#xc7;" horiz-adv-x="397" 
d="M80 -150q-9 0 -14.5 6t-5.5 14v639q0 8 5.5 14t14.5 6h237q9 0 14.5 -6t5.5 -14v-639q0 -7 -4.5 -13.5t-15.5 -6.5h-237zM250 633h8q7 0 7 -7v-84q0 -8 -7 -8h-119q-8 0 -8 8v84q0 7 8 7h8v42h8v59q0 1 5 2q4 1 13 1.5t26 0.5t25 -0.5t12 -1.5t5 -2v-59h9v-42zM123 272
q2 0 2 -3v-7h7v7q0 3 -3 6q-1 4 -7 4q-7 0 -8 -4q-3 -2 -3 -6v-7q0 -5 3 -6q1 -4 7 -4q1 0 1 -0.5t1 -0.5h1q1 -1 1 -3v-6q0 -1 -1 -2q0 -2 -3 -2q-2 0 -2 2q-1 0 -1 2v6h-7v-17h120q3 0 6 3q2 2 4 7v27q0 3 -2 7q-3 4 -8 4t-8 -4q-2 -2 -2 -7v-17q0 -4 2 -6q4 -4 8 -4h3
q0 -1 -1 -2t-2 -1h-15q0 1 0.5 1.5t0.5 1.5v27q0 3 -2 7q-4 4 -8 4t-8 -4q-2 -4 -2 -7v-17q0 -2 2 -6q4 -4 8 -4h3q0 -1 -1 -2t-2 -1h-15q0 1 0.5 1.5t0.5 2.5v26q0 5 -4 9q-2 2 -6 2h-7v-7h7q1 0 2 -1q1 0 1 -3h-3q-5 0 -8 -3q-2 -4 -2 -7v-20h-5q1 1 1 4v37h-7v-37
q0 -2 -1 -2q0 -1 -2 -1t-3 1l-1 2v37h-6v-37q0 -1 -1 -2q0 -1 -3 -1q-2 0 -2 1q-1 0 -1 2v37h-7v-37q0 -2 1 -4h-5q0 2 0.5 2t0.5 2v6q0 4 -3 7q-2 4 -8 4q-1 0 -2 1q-1 0 -1 2v7q0 3 1 3h2h2zM171 161q-22 7 -37.5 21t-23.5 34h-5q8 -21 25 -36.5t40 -22.5q19 -5 38 -3
t35 10t29 21t20 31h-5q-14 -33 -47 -49.5t-69 -5.5zM225 347q39 -12 58 -47h4q-19 37 -61 51q-35 10 -67.5 -4.5t-49.5 -46.5h5q16 29 47 42.5t64 4.5zM255 279q-4 0 -8 -4q-2 -2 -2 -7v-27q0 -4 3 -7t7 -3h6v7h-6q-2 0 -3 1q0 1 -0.5 1t-0.5 1h4q3 0 7 4q3 3 3 6v17
q0 4 -3 7q-2 4 -7 4zM213 716q0 6 -4.5 10.5t-10.5 4.5q-5 0 -9.5 -4.5t-4.5 -10.5t4.5 -10t9.5 -4q6 0 10.5 4t4.5 10zM282 261h7v7q0 3 -2 7q-4 4 -8 4t-8 -4q-3 -3 -3 -7v-37h7v37q0 4 2 4h2q0 -1 1 -1q2 -2 2 -3v-7zM258 249q-1 -1 -3 -1h-4v20q0 4 2 4h2q0 -1 1 -1
q2 -2 2 -3v-19zM208 272q2 0 2 -4v-20h-3q-2 0 -3 1t-1 2v17q0 4 2 4h2h1zM234 248h-3q-2 0 -3 1q0 1 -1 2v17q0 4 2 4h2h1q2 0 2 -4v-20zM186 242q0 -2 -1 -2q0 -2 -2 -2q-1 0 -3 2q-1 0 -1 2v16q0 2 0.5 2t0.5 1q1 0 1.5 0.5t1.5 0.5h3v-20z" />
    <glyph glyph-name="cid18360" unicode="&#xc8;" horiz-adv-x="785" 
d="M659 527q12 -7 24 -19.5t21.5 -28t15 -33.5t5.5 -36v-544q0 -16 -17 -16h-264q-17 0 -17 16v544q0 18 6 36t15.5 33.5t21.5 27.5t24 19q-6 6 -6 11q0 7 4.5 11t9.5 4h148q14 0 14 -15q0 -7 -6 -10h1zM60 430h297v-563q0 -17 -18 -17h-262q-17 0 -17 17v563zM60 438v257
q0 18 17 18h262q18 0 18 -18v-257h-297zM268 24q-5 11 -20 10q-6 -2 -8.5 -7t-0.5 -11l7 -24q2 -7 6.5 -10t9.5 -1l7 3q1 -7 -5 -7l-19 -5q0 2 -1 5l-11 38q-2 6 -7 9.5t-10 0.5q-15 -4 -12 -20l8 -24q4 -12 18 -9l5 2q2 -5 -3 -7l-20 -7q0 3 -1 6l-10 37q-2 9 -7 11t-12 1
l-10 -3l3 -10l9 2q5 1 6 -3q-10 -2 -13.5 -7.5t-1.5 -12.5l8 -24l1 -2l-6 -3q0 3 -1 5l-15 51l-10 -3l14 -49q2 -7 -2 -8.5t-6 4.5l-15 50l-9 -2l14 -51q2 -5 -2 -6t-6 3l-16 51l-10 -2l15 -53l2 -3l-5 -2l-4 13q-4 11 -16 10q-5 -1 -6.5 0t-3.5 7l-1 5q-2 5 3 6q4 1 7 -1
l2 -11l9 4l-3 8q-5 15 -18 11q-7 -2 -9 -7.5t0 -9.5l2 -12q5 -12 18 -9q6 1 6 -4l3 -8q1 -5 -3 -6q-2 -1 -4 0t-3 6l-2 6l-10 -3l8 -22l167 47q6 3 9 7q1 4 0 12zM635 25q-5 11 -20 10q-6 -2 -8.5 -7t-0.5 -11l7 -24q2 -7 6.5 -10t9.5 -1l7 3q1 -7 -5 -7l-19 -5q0 2 -1 5
l-11 38q-2 6 -7 9.5t-10 0.5q-15 -4 -12 -20l8 -24q4 -12 18 -9l5 2q2 -5 -3 -7l-20 -7q0 3 -1 6l-10 37q-2 9 -7 11t-12 1l-10 -3l3 -10l9 2q5 1 6 -3q-10 -2 -13.5 -7.5t-1.5 -12.5l8 -24l1 -2l-6 -3q0 3 -1 5l-15 51l-10 -3l14 -49q2 -7 -2 -8.5t-6 4.5l-15 50l-9 -2
l14 -51q2 -5 -2 -6t-6 3l-16 51l-10 -2l15 -53l2 -3l-5 -2l-4 13q-4 11 -16 10q-5 -1 -6.5 0t-3.5 7l-1 5q-2 5 3 6q4 1 7 -1l2 -11l9 4l-3 8q-5 15 -18 11q-7 -2 -9 -7.5t0 -9.5l2 -12q5 -12 18 -9q6 1 6 -4l3 -8q1 -5 -3 -6q-2 -1 -4 0t-3 6l-2 6l-10 -3l8 -22l167 47
q6 3 9 7q1 4 0 12zM334 -22l-232 -69h232v69zM702 -22l-232 -69h232v69zM618 584h-92v29q-3 13 -17 17q-7 2 -15 1v20h97zM643 557h-133v20h133v-20zM665 -7q13 4 10 19l-7 23q-3 14 -19 11q-13 -5 -9 -18l10 -40q4 -13 18 -10l10 2l-2 10l-7 -2q-9 -2 -9 3zM298 -8
q13 4 10 19l-7 23q-3 14 -19 11q-13 -5 -9 -18l10 -40q4 -13 18 -10l10 2l-2 10l-7 -2q-9 -2 -9 3zM328 32l10 2l-4 10q-3 13 -18 9q-5 -2 -8 -5.5t-1 -12.5l14 -52l9 3l-15 51q-1 7 4 8t6 -4zM695 33l10 2l-4 10q-3 13 -18 9q-5 -2 -8 -5.5t-1 -12.5l14 -52l9 3l-15 51
q-1 7 4 8t6 -4zM216 8q-2 6 1.5 7.5t5.5 -3.5l10 -29l-6 -3q-5 -1 -8 7zM583 9q-2 6 1.5 7.5t5.5 -3.5l10 -29l-6 -3q-5 -1 -8 7zM552 -14q-1 4 3 6l5 1l8 -29q2 -4 -3 -5t-7 2zM185 -15q-1 4 3 6l5 1l8 -29q2 -4 -3 -5t-7 2zM282 30q-2 4 3 5.5t7 -3.5l5 -21q2 -6 0.5 -7.5
t-4.5 -2.5l-2 -1zM649 31q-2 4 3 5.5t7 -3.5l5 -21q2 -6 0.5 -7.5t-4.5 -2.5l-2 -1zM248 18q-1 7 3.5 8.5t6.5 -5.5l7 -28l-2 -1q-3 -1 -4.5 -0.5t-2.5 5.5zM615 19q-1 7 3.5 8.5t6.5 -5.5l7 -28l-2 -1q-3 -1 -4.5 -0.5t-2.5 5.5zM493 20q-3 3 -6 2l-4 -1l5 -17l5 1q2 2 1 5
v2q0 3 -3 3q3 2 2 4v1zM126 19q-3 3 -6 2l-4 -1l5 -17l5 1q2 2 1 5v2q0 3 -3 3q3 2 2 4v1zM552 23q0 1 -1 2v4q-2 3 -4 3q2 1 0 2v2q-2 3 -5 2l-3 -1l4 -16l3 1l-2 7h1q2 2 2 -1l2 -4v-1h3zM185 22q0 1 -1 2v4q-2 3 -4 3q2 1 0 2v2q-2 3 -5 2l-3 -1l4 -16l3 1l-2 7h1
q2 2 2 -1l2 -4v-1h3zM90 -6q-1 0 -1 1l-1 4q0 3 -2 3v1v2v1q-1 3 -5 3l-4 -1l5 -17l2 1l-2 8h1q2 0 3 -2v-3l1 -2zM457 -5q-1 0 -1 1l-1 4q0 3 -2 3v1v2v1q-1 3 -5 3l-4 -1l5 -17l2 1l-2 8h1q2 0 3 -2v-3l1 -2zM505 9v1l-1 2v2q-2 3 -3 3q1 1 0 4v1q-1 4 -5 3l-2 -1l3 -18
l3 1l-2 8h1q2 2 2 -1l1 -4q0 -1 1 -2zM138 8v1l-1 2v2q-2 3 -3 3q1 1 0 4v1q-1 4 -5 3l-2 -1l3 -18l3 1l-2 8h1q2 2 2 -1l1 -4q0 -1 1 -2zM516 32l-3 -1l2 -18h2v3l4 1l1 -3l2 1zM149 31l-3 -1l2 -18h2v3l4 1l1 -3l2 1zM86 11l4 -12q1 -6 5 -4q2 0 3 2t-1 4l-3 12h-2l3 -13
q0 -1 -1 -2q-1 0 -1 1l-4 13zM453 12l4 -12q1 -6 5 -4q2 0 3 2t-1 4l-3 12h-2l3 -13q0 -1 -1 -2q-1 0 -1 1l-4 13zM138 24l5 1l-1 4l-7 -2l6 -19l6 3l-1 3l-4 -2l-1 5l3 1l-1 2l-2 -1zM505 25l5 1l-1 4l-7 -2l6 -19l6 3l-1 3l-4 -2l-1 5l3 1l-1 2l-2 -1zM166 32l5 1v3l-8 -2
l5 -16l6 1v3l-4 -2l-1 5l3 2v3l-4 -1zM533 33l5 1v3l-8 -2l5 -16l6 1v3l-4 -2l-1 5l3 2v3l-4 -1zM531 17l2 1l-6 8l1 8h-2l-1 -8l-1 7h-3l4 -17h2l-1 5v2zM164 16l2 1l-6 8l1 8h-2l-1 -8l-1 7h-3l4 -17h2l-1 5v2zM474 16l5 1v3l-8 -3l5 -16l7 2l-1 2l-5 -2l-1 5l4 1l-1 3
l-4 -2zM107 15l5 1v3l-8 -3l5 -16l7 2l-1 2l-5 -2l-1 5l4 1l-1 3l-4 -2zM467 -1l7 2v2l-5 -1l-4 14l-2 -1zM100 -2l7 2v2l-5 -1l-4 14l-2 -1zM122 12q2 0 2 -3l2 -1q0 -1 -2 -2h-1l-2 6h1zM489 13q2 0 2 -3l2 -1q0 -1 -2 -2h-1l-2 6h1zM130 22q1 0 2 -2v-1q1 -1 -1 -3h-1
l-1 5zM497 23q1 0 2 -2v-1q1 -1 -1 -3h-1l-1 5zM148 27l4 -9h-3zM515 28l4 -9h-3zM120 19q2 0 2 -1l1 -1q0 -2 -2 -2l-1 -1l-1 5h1zM487 20q2 0 2 -1l1 -1q0 -2 -2 -2l-1 -1l-1 5h1zM82 7l1 -2l1 -1q0 -2 -1 -2h-1l-2 4zM449 8l1 -2l1 -1q0 -2 -1 -2h-1l-2 4zM543 36
q1 0 2 -1v-2l-1 -1h-1l-2 4h2zM176 35q1 0 2 -1v-2l-1 -1h-1l-2 4h2z" />
    <glyph glyph-name="cid18361" unicode="&#xc9;" horiz-adv-x="552" 
d="M80 -150q-8 0 -14 5.5t-6 14.5v182h432v-182q0 -9 -6 -14.5t-14 -5.5h-392zM492 60h-432v74q0 8 6 14t14 6h392q8 0 14 -6t6 -14v-74zM225 -39q0 10 -11 10q-12 0 -12 -10v-21q0 -8 3.5 -10t8.5 -2h3v-3h-20q2 0 2 1v1v33q0 10 -10 10h-10v-8h8q4 0 4 -3h-4
q-12 0 -12 -12v-18q0 -3 2 -4h-7q1 1 1 4v41h-8v-41q0 -4 -4 -4t-4 4v41h-8v-41q0 -4 -3 -4q-4 0 -4 4v41h-8v-41q0 -2 1 -4h-6l1 1v1v9q0 8 -8 11q-5 2 -5.5 3t-0.5 3v7q0 3 3 3t3 -3v-8h8v9q0 10 -11 10q-12 0 -12 -10v-8q0 -7 3 -9t8 -4q4 -1 4 -8v-4q0 -3 -3.5 -3
t-3.5 3v7h-8v-18h139q8 0 8 10v34q0 10 -11 10q-12 0 -12 -10v-22q0 -8 3 -10t8 -2h4v-1q0 -1 -2 -1h-17v36zM276 -75h-11v3h3q3 0 7.5 2t4.5 10v21q0 10 -12 10q-11 0 -11 -10v-32q0 -5 1 -8.5t7 -3.5h11v8zM299 -49h8v8q0 7 -3.5 9.5t-8.5 2.5q-11 0 -11 -12v-42h8v43
q0 3 3.5 3t3.5 -3v-9zM245 -64h-5q-3 0 -3 4v20q0 3 4 3t4 -3v-24zM187 -75q-4 0 -4 4v18q0 5 4 5h4v-23q0 -4 -4 -4zM265 -40q0 3 3.5 3t3.5 -3v-20q0 -4 -3 -4h-4v24zM217 -64h-4q-3 0 -3 4v20q0 3 3.5 3t3.5 -3v-24z" />
    <glyph glyph-name="cid18362" unicode="&#xca;" horiz-adv-x="264" 
d="M98 722v-16l38 3q12 2 24.5 2.5t21.5 1.5q3 1 5 0.5t4 -0.5q6 -2 7 -2q2 -1 4 -1q1 0 2 -1h-2l-4 -2l-6 -3q-6 -2 -9 -2l-47 -4l-38 -3v-16l38 3l46 4q3 1 5 0.5t4 -1.5q2 0 3.5 -0.5t3.5 -0.5q2 -1 4 -1h2q-1 0 -2 -1q-2 -2 -4 -2l-6 -3q-6 -2 -9 -2l-47 -4l-38 -3v-17
q9 2 18 2.5t20 1.5l46 4q3 1 5 0.5t4 -1.5q2 0 3.5 -0.5t3.5 -0.5q2 -1 4 -1q1 0 2 -1q-1 -1 -2 -1t-1.5 -0.5t-2.5 -0.5l-6 -3q-6 -2 -9 -2q-10 -1 -21.5 -2t-25.5 -2q-10 -1 -19.5 -2t-18.5 -1l1 -16q8 0 17.5 1t19.5 2l46 4q3 1 5 0.5t4 -1.5q2 0 3.5 -0.5t3.5 -0.5
q2 -1 4 -1q1 0 2 -1l-6 -3q-2 0 -6 -2q-6 -2 -9 -2q-10 -1 -21.5 -2t-25.5 -2q-10 -2 -19.5 -2.5t-17.5 -1.5v-16q8 1 17.5 1.5t19.5 2.5q12 1 24.5 1.5t21.5 2.5q6 0 9 -1t7 -1q2 -1 4 -1q1 0 2 -1l-6 -3q-2 0 -6 -2q-2 -1 -4.5 -2t-4.5 -1q-10 0 -21.5 -1t-25.5 -3l-37 -3
v-16l37 3q12 2 24.5 2.5t21.5 1.5q3 1 5 0.5t4 -0.5l7 -2q2 0 2.5 -0.5t1.5 -0.5h2l-6 -3q-2 0 -3 -1t-3 -1q-5 -3 -9 -2q-10 -2 -21.5 -2.5t-25.5 -2.5l-37 -3v-16l37 3q12 2 24.5 2.5t21.5 1.5q3 1 5 0.5t4 -0.5l7 -2q2 -1 4 -1h2q-1 0 -2 -1q-2 -2 -4 -2q-2 -1 -3 -1
t-3 -2q-6 -2 -9 -2l-47 -4l-37 -3v-16l37 3q12 2 24.5 2.5t21.5 1.5q3 1 5 0.5t4 -0.5q6 -2 7 -2q2 -1 4 -1q1 0 2 -1q-1 -1 -2 -1t-1.5 -0.5t-2.5 -0.5l-6 -3q-6 -2 -9 -2q-10 -1 -21.5 -2t-25.5 -2l-36 -3v-16l36 3l46 4q3 1 5 0.5t4 -1.5q2 0 3.5 -0.5t3.5 -0.5
q2 -1 4 -1q1 0 2 -1q-1 -1 -2 -1t-1.5 -0.5t-2.5 -0.5l-6 -3q-6 -2 -9 -2q-10 -1 -21.5 -2t-25.5 -2l-36 -3v-17q8 1 18.5 1.5t21.5 2.5l44 4q6 0 8 -1t6 -1q2 -1 4 -1q1 0 2 -1q0 -1 -1 -1t-2 -0.5t-2 -0.5l-6 -3l-4 -2t-4 0l-43 -4l-42 -4v-16l40 3q12 2 23.5 3t20.5 1
q5 2 8 0q2 -1 3.5 -1t2.5 -1q2 0 2.5 -0.5t1.5 -0.5h2q0 -1 -1 -1q-1 -1 -2 -1t-2 -1q-2 0 -6 -2q-6 -2 -8 -2q-9 -2 -20.5 -2.5t-22.5 -1.5l-42 -4v-16q9 0 19 1t21 2q12 2 23.5 2.5t20.5 1.5q5 2 8 0q2 -1 3.5 -1t2.5 -1q2 -1 4 -1h2q0 -1 -1 -1q-1 -1 -2 -1t-2 -1
q-2 -1 -3 -1t-3 -2q-2 0 -4 -1t-4 -1q-9 -1 -20.5 -1.5t-22.5 -2.5q-12 -1 -22.5 -1.5t-19.5 -2.5v-4l5 -11l35 3q12 2 23.5 2.5t20.5 1.5q2 1 4 0.5t4 -0.5q4 -2 6 -2q2 -1 4 -1h2q0 -1 -1 -1q-1 -1 -2 -1t-2 -1q-4 -2 -6 -2q-5 -3 -8 -3q-9 -1 -20.5 -1.5t-22.5 -2.5
l-32 -3l6 -15l24 2l44 4q4 1 8 -1q2 0 3.5 -0.5t2.5 -0.5q2 -1 4 -1h2l-1 -1q-2 -2 -4 -2l-6 -3q-6 -2 -8 -2q-9 -1 -20.5 -1.5t-22.5 -2.5l-22 -2l-5 -13l33 3l38 3q5 1 8 0t5 -1h5q0 -1 -1 -1t-2 -0.5t-2 -0.5q-2 0 -5 -1t-7 -2q-8 -1 -18 -1t-20 -2q-10 -1 -19.5 -1.5
t-17.5 -0.5l-4 -10h2l76 6q5 1 8 0t5 -1h5q0 -1 -1 -1t-2 -0.5t-2 -0.5q-2 0 -5 -1.5t-7 -1.5q-8 0 -18 -0.5t-20 -1.5q-11 -2 -21 -2t-18 -2q-3 0 -4 1l-6 -12q6 2 10 2l76 6q5 1 8 0t5 -1h5q0 -1 -1 -1t-2 -0.5t-2 -0.5q-2 0 -5 -1t-7 -1l-38 -3q-11 -1 -21 -2t-18 -1
q-3 -1 -5.5 -0.5t-4.5 0.5v-12q6 2 10 2l38 3q11 1 20.5 2t17.5 1q5 1 8 0.5t5 -0.5q1 -1 4 -1h1q0 -1 -1 -1h-4q-2 -1 -5 -2t-7 -1l-38 -3l-39 -3q-3 -1 -5.5 -0.5t-4.5 0.5l1 -11q2 1 4 1.5t5 0.5q8 0 17.5 1t20.5 1q11 2 20.5 2.5t17.5 1.5q5 0 8 -0.5t5 -0.5q1 -1 2 -1
q0 -1 -2 -1q-2 -1 -5 -2t-7 -1l-38 -3l-39 -3h-9l1 -11q4 2 8 2q8 1 17.5 1t20.5 2q11 1 20.5 1.5t17.5 0.5q5 1 8 0.5t5 -0.5q1 -1 2 -1q0 -1 -2 -1q-2 -1 -5 -2t-7 -1l-38 -3l-39 -3h-8l1 -10q2 0 3.5 0.5t3.5 0.5l76 6q5 0 8 -0.5t5 -0.5q1 -1 2 -1q0 -1 -2 -1
q-2 -1 -5 -2t-7 -1q-8 0 -18 -1l-20 -2l-39 -3h-7l1 -10q2 0 3 0.5t3 0.5l76 6q5 1 8 0t5 -1h5q0 -1 -1 -1t-2 -0.5t-2 -0.5q-2 0 -5 -1t-7 -2q-8 -1 -18 -1t-20 -2q-11 -1 -21 -1.5t-18 -0.5q-3 -2 -6 0l1 -11q2 1 5 1l76 6q5 1 8 0t5 -1h5q0 -1 -1 -1t-2 -0.5t-2 -0.5
q-2 0 -5 -1.5t-7 -1.5q-8 0 -18 -0.5t-20 -1.5q-11 -2 -21 -2t-18 -1q-2 -2 -5 0l1 -11q1 1 4 1l76 6q5 1 8 0t5 -1h5q0 -1 -1 -1t-2 -0.5t-2 -0.5q-2 0 -5 -1t-7 -1l-38 -3q-11 -1 -21 -2t-18 -1h-4l1 -10h3l38 3q11 1 20.5 2t17.5 1q5 1 8 0.5t5 -0.5q1 -1 4 -1h1
q0 -1 -1 -1h-4q-2 -1 -5 -2t-7 -1l-38 -3l-39 -3h-3l1 -10q1 0 1 0.5t1 0.5q8 0 17.5 1t20.5 1q11 2 20.5 2.5t17.5 1.5q5 0 8 -0.5t5 -0.5q1 -1 2 -1q0 -1 -2 -1q-2 -1 -5 -2t-7 -1l-38 -3l-39 -3h-2l1 -10l1 1q8 1 17.5 1t20.5 2q11 1 20.5 1.5t17.5 0.5q5 1 8 0.5t5 -0.5
q1 0 2 -0.5t2 -0.5h1h-1q-1 0 -2 -0.5t-2 -0.5q-2 -1 -5 -2t-7 -1l-38 -3l-39 -3h-1l1 -9l76 6q5 0 8 -0.5t5 -0.5q1 -1 2 -1q0 -1 -2 -1q-2 -1 -5 -2t-7 -1q-8 0 -18 -1l-20 -2l-39 -3l1 -9l37 3l38 3q5 1 8 0t5 -1h5q0 -1 -1 -1t-2 -0.5t-2 -0.5q-2 0 -5 -1t-7 -1
q-8 -2 -18 -2t-20 -2q-11 -1 -20.5 -1.5t-17.5 -0.5l1 -10l36 3l38 3q5 1 8 0t5 -1h5q0 -1 -1 -1t-2 -0.5t-2 -0.5q-2 0 -5 -1t-7 -2q-8 0 -18 -0.5t-20 -1.5q-10 -2 -19.5 -2t-17.5 -1l1 -9q8 0 17 0.5t18 1.5l38 3q5 1 8 0t5 -1h5q0 -1 -1 -1t-2 -0.5t-2 -0.5q-2 0 -5 -1
t-7 -1l-38 -3l-36 -3l1 -9l34 2q11 1 20.5 2t17.5 1q5 1 8 0.5t5 -0.5q1 -1 4 -1h1q0 -1 -1 -1h-4q-2 -1 -5 -2t-7 -1l-38 -3l-35 -3l1 -9q7 1 15.5 1.5t17.5 0.5q11 2 20.5 2.5t17.5 1.5q5 0 8 -0.5t5 -0.5q1 -1 2 -1q0 -1 -2 -1q-2 -1 -5 -2t-7 -1l-38 -3l-34 -3l1 -9
l32 3l38 3q5 0 8 -0.5t5 -0.5q1 0 2 -0.5t2 -0.5h1h-1q-1 0 -2 -0.5t-2 -0.5q-2 -1 -5 -2t-7 -1l-38 -3q-9 -1 -17 -1.5t-16 -0.5v-10l32 3l38 3q5 0 8 -0.5t5 -0.5q1 -1 2 -1q0 -1 -2 -1q-2 -1 -5 -2t-7 -1q-8 0 -18 -1l-20 -2l-32 -2l1 -9q7 0 14.5 0.5t15.5 1.5l38 3
q5 1 8 0t5 -1h5q0 -1 -1 -1t-2 -0.5t-2 -0.5q-2 0 -5 -1t-7 -1q-8 -1 -18 -1.5t-20 -2.5q-8 0 -16 -0.5t-15 -1.5v-10h3l34 3l33 3q4 1 7 0t5 -1h4l-4 -2q-2 0 -4.5 -1t-6.5 -2q-7 0 -15.5 -0.5t-17.5 -1.5q-10 -2 -18.5 -2t-15.5 -1h-3l1 -10h1l34 3l33 3q4 1 7 0t5 -1h4
l-4 -2q-2 0 -4.5 -1t-6.5 -1l-33 -3l-34 -3h-2v-10h1l34 3q9 1 17.5 2t15.5 1q4 1 7 0.5t5 -0.5q1 -1 3 -1h1q0 -1 -1 -1h-3q-2 -1 -4.5 -2t-6.5 -1l-33 -3l-34 -3h-1l1 -9q6 0 15 1t18 1q9 2 17.5 2.5t15.5 1.5q4 0 7 -0.5t5 -0.5q1 0 1.5 -0.5t1.5 -0.5q-2 0 -3 -1
q-2 -1 -4.5 -2t-6.5 -1l-33 -3l-34 -3v-9l66 6q4 0 7 -0.5t5 -0.5q1 0 1.5 -0.5t1.5 -0.5h1h-1q-1 0 -1.5 -0.5t-1.5 -0.5q-2 0 -4.5 -1.5t-6.5 -1.5l-66 -6v-9l32 3l33 3q4 0 7 -0.5t5 -0.5q1 0 1.5 -0.5t1.5 -0.5q-2 0 -3 -1q-2 -1 -4.5 -2t-6.5 -1q-7 0 -15.5 -1
t-17.5 -2l-32 -3v-9l31 3l33 3q4 1 7 0t5 -1h4l-4 -2q-2 0 -4.5 -1t-6.5 -1q-7 -1 -15.5 -1.5t-17.5 -2.5q-9 0 -16.5 -1t-14.5 -1v-9l27 2l34 3q3 1 6 0t5 -1h4l-4 -2q-2 0 -5 -1l-6 -2q-7 0 -16 -0.5t-18 -1.5l-26 -3v-4l74 -1l-3 -4l-83 -13l-17 11l-26 450l-11 422
l35 15l96 -4l11 -7l-104 -11v-15l38 3q12 2 24.5 2.5t21.5 1.5q5 1 9 0l7 -2q2 -1 4 -1h2l-6 -3q-2 -1 -3 -1t-3 -2q-2 0 -4.5 -1t-4.5 -1l-47 -4z" />
    <glyph glyph-name="cid18363" unicode="&#xcb;" horiz-adv-x="930" 
d="M162 534v45q0 31 18.5 46.5t44.5 15.5h31v19q0 29 18 45.5t46 16.5h486q29 0 46.5 -16.5t17.5 -45.5v-488q0 -32 -17.5 -47.5t-46.5 -15.5h-30v-18q0 -31 -17.5 -46.5t-45.5 -15.5h-39v-47q0 -31 -18 -46t-47 -15h-486q-30 0 -46.5 16t-16.5 46v488q0 31 18.5 47t44.5 16
h39zM123 533q-26 0 -44 -16t-18 -46v-488q0 -61 62 -61h487q29 0 46 15t17 46v488q0 30 -17 46t-46 16h-487zM654 -17q0 -17 -13 -29.5t-31 -12.5h-487q-18 0 -31 12.5t-13 29.5v488q0 19 13 31.5t31 12.5h487q21 0 32.5 -12.5t11.5 -32.5v-487zM674 30h39q28 0 45 15t17 46
v488q0 30 -17 45.5t-45 15.5h-488q-26 0 -44 -15.5t-18 -45.5v-45h18v45q0 19 13 31.5t31 12.5h488q20 0 31.5 -12.5t11.5 -32.5v-487q0 -17 -13 -29.5t-30 -12.5h-39v-19zM776 110h30q29 0 46 15t17 47v488q0 29 -17 45t-46 16h-486q-27 0 -45 -16t-18 -45v-19h18v19
q0 18 13 30.5t32 12.5h486q21 0 32.5 -12t11.5 -32v-487q0 -17 -13 -30t-31 -13h-30v-19zM198 257q2 0 4 -1q4 -2 4 -4v-16h14v15q0 3 -0.5 7t-2.5 7q-7 7 -18 8q-12 0 -17 -8q-6 -8 -6 -13v-16q0 -3 2 -7l4 -8q5 -7 16 -7q5 0 8 -3v-18q0 -4 -1 -6q-2 -1 -7 -1q-4 0 -5 1
q-1 2 -1 5v15h-16v-37h262q9 0 14 4q8 8 8 17v59q0 3 -1 7.5t-4 6.5q-4 7 -16 9q-12 0 -18 -8q-4 -5 -4 -15v-37q-1 -6 4 -14q6 -7 17 -7h7q0 -6 -2 -6q-2 -1 -2.5 -1.5t-2.5 -0.5h-32q1 2 1 8v58q0 7 -4 14q-3 3 -7.5 5.5t-10.5 3.5q-10 0 -17 -9q-3 -2 -4 -6t-1 -7v-38
q0 -8 5 -14q4 -7 17 -7h8q0 -6 -3 -6q-1 -1 -2 -1t-3 -1h-32q2 4 2 8v59q0 10 -8 16q-6 4 -12 6h-15v-16h14q2 0 4 -2q2 0 2 -4h-6q-10 0 -17 -7q-5 -6 -5 -15v-36q0 -2 0.5 -4.5t0.5 -3.5h-12q2 2 2 8v80h-15v-80q0 -4 -1 -6q-1 -1 -7 -1q-4 0 -5 1q-1 2 -1 6v80h-16v-80
q0 -2 -0.5 -3t-0.5 -3q-2 -1 -6 -1q-5 0 -6 1q-1 2 -1 6v80h-15v-80q0 -2 0.5 -4.5t0.5 -3.5h-11q1 1 1 8v14q0 10 -3 14q-8 8 -18 8q-3 0 -6 3q-1 0 -1 4v16q0 3 3 5h3zM307 22q-48 14 -83 45.5t-53 74.5l-11 -1q19 -45 56 -79t89 -50q41 -12 82 -8t77 22t64 47.5t43 68.5
h-9q-15 -36 -42.5 -64t-61.5 -44.5t-73 -20t-78 8.5zM426 431q42 -13 74.5 -40.5t51.5 -63.5h11q-21 40 -55 69.5t-79 42.5q-39 11 -78 8t-73.5 -18t-62.5 -41.5t-46 -61.5h10q18 33 45 57t60 38t69.5 17t72.5 -7zM491 273q-11 0 -18 -9q-5 -5 -5 -14v-58q0 -13 8 -18
q4 -4 14 -4h16v14h-16q-2 0 -4 2q-3 0 -3 6h7q10 -1 18 7q4 5 4 13v38q0 9 -4 14q-5 7 -17 9zM550 235h14v15q0 7 -4 14q-6 8 -16 9q-11 0 -18 -9q-4 -4 -4 -14v-80h12v80q0 4 4 6q2 1 5 1q1 0 3 -1q4 -2 4 -6v-15zM446 207h-8q-4 0 -6 1q-2 0 -2 5v37q0 5 4 7q2 1 5 0
q1 0 3 -1q4 -2 4 -6v-43zM385 257q2 1 4 0q4 -2 4 -6v-44h-8q-4 0 -5 1q-2 0 -2 5v38q0 4 3 6q2 1 4 0zM498 213q0 -5 -2 -5q0 -1 -6 -1h-7v43q0 4 4 6q2 1 4 1q1 0 3 -1q4 -2 4 -6v-37zM340 193q0 -2 -0.5 -3t-0.5 -3q-4 -2 -5 -2l-6 2q-2 2 -2 6v36q0 3 2 4q3 3 6 3h6v-43
zM322 284q-1 1 -1 3v3q0 5 -2 6q2 1 2 5v1q0 5 -6 5h-6v-23h4v9h1q3 0 3 -3v-6h5zM223 284q-1 1 -1 3v3q0 5 -2 6q2 1 2 5v1q0 5 -6 5h-6v-23h4v9h1q3 0 3 -3v-6h5zM276 284h3v23h-3v-14l-4 14h-5v-23h3v17zM180 294h4v-10h4v23h-4v-10h-4v10h-4v-23h4v10zM290 284h3v23h-3
v-14l-3 14h-5v-23h3v17zM198 307h-4l-5 -23h4l1 5h4l1 -5h4zM234 307q-6 0 -6 -6q0 -5 4 -6.5t4 -4.5t-2 -3t-2 3v1h-4v-1q0 -6 6 -6t6 6q0 5 -4 6t-4 5q0 3 2 3t2 -3v-1h4v1q0 6 -6 6zM254 307v-17q0 -6 5 -6q6 0 6 6v17h-4v-17q0 -3 -1 -3q-3 0 -3 3v17h-3zM301 303h6v4
h-10v-23h10v3h-6v7h4v3h-4v6zM241 303h3v-19h4v19h4v4h-11v-4zM204 284h4v23h-4v-23zM196 303l2 -12h-4zM216 303q2 0 2 -2v-1q0 -3 -3 -3h-1v6h2zM315 303q2 0 2 -2v-1q0 -3 -3 -3h-1v6h2z" />
    <glyph glyph-name="cid18364" unicode="&#xcc;" horiz-adv-x="676" 
d="M121 694v9q0 17 12 29.5t31 12.5h7q0 17 12.5 28.5t30.5 11.5h359q18 0 30.5 -12t12.5 -30v-713q0 -17 -12.5 -29.5t-30.5 -12.5h-7q-1 -17 -13 -28.5t-30 -11.5h-18v-9q0 -17 -12 -29.5t-31 -12.5h-359q-18 0 -30.5 12.5t-12.5 29.5v614l12 11l-12 11v77q0 18 12.5 30
t30.5 12h18zM103 693q-18 0 -30 -12t-12 -29v-77l12 -11l-12 -11v-614q0 -17 12 -29t30 -12h359q18 0 30 12t12 29v713q0 17 -12 29t-30 12h-359zM492 -61q0 -12 -8.5 -20.5t-21.5 -8.5h-359q-13 0 -21.5 8.5t-8.5 20.5v609l18 16l-18 16v72q0 12 8.5 21t21.5 9h359
q13 0 21.5 -9t8.5 -21v-713zM505 -51h18q18 0 30 12t12 29v713q0 17 -12 29t-30 12h-359q-18 0 -30 -12t-12 -29v-9h12v9q0 12 8.5 21t21.5 9h359q13 0 21.5 -9t8.5 -21v-713q0 -12 -8.5 -20.5t-21.5 -8.5h-18v-12zM566 -11h7q18 0 30 12t12 29v713q0 17 -12 29t-30 12h-359
q-19 0 -30.5 -12t-11.5 -26v-1h12v1q0 10 8.5 18.5t21.5 8.5h359q13 0 21.5 -9t8.5 -21v-713q0 -12 -8.5 -20.5t-21.5 -8.5h-7v-12zM437 84l-277 -81h277v81zM326 119q-5 11 -20 10q-6 -2 -8.5 -7t-0.5 -11l7 -24q2 -7 6.5 -10t9.5 -1l7 3q1 -7 -5 -7l-19 -5q0 2 -1 5
l-11 38q-2 6 -7 9.5t-10 0.5q-15 -4 -12 -20l8 -24q4 -12 18 -9l5 2q2 -5 -3 -7l-20 -7q0 3 -1 6l-10 37q-2 9 -7 11t-12 1l-10 -3l3 -10l9 2q5 1 6 -3q-10 -2 -13.5 -7.5t-1.5 -12.5l8 -24l1 -2l-6 -3q0 3 -1 5l-15 51l-10 -3l14 -49q2 -7 -2 -8.5t-6 4.5l-15 50l-9 -2
l14 -51q2 -5 -2 -6t-6 3l-16 51l-10 -2l15 -53l2 -3l-5 -2l-4 13q-4 11 -16 10q-5 -1 -6.5 0t-3.5 7l-1 5q-2 5 3 6q4 1 7 -1l2 -11l9 4l-3 8q-5 15 -18 11q-7 -2 -9 -7.5t0 -9.5l2 -12q5 -12 18 -9q6 1 6 -4l3 -8q1 -5 -3 -6q-2 -1 -4 0t-3 6l-2 6l-10 -3l8 -22l167 47
q6 3 9 7q1 4 0 12zM356 87q13 4 10 19l-7 23q-3 14 -19 11q-13 -5 -9 -18l10 -40q4 -13 18 -10l10 2l-2 10l-7 -2q-9 -2 -9 3zM386 127l10 2l-4 10q-3 13 -18 9q-5 -2 -8 -5.5t-1 -12.5l14 -52l9 3l-15 51q-1 7 4 8t6 -4zM274 103q-2 6 1.5 7.5t5.5 -3.5l10 -29l-6 -3
q-5 -1 -8 7zM243 80q-1 4 3 6l5 1l8 -29q2 -4 -3 -5t-7 2zM340 125q-2 4 3 5.5t7 -3.5l5 -21q2 -6 0.5 -7.5t-4.5 -2.5l-2 -1zM306 113q-1 7 3.5 8.5t6.5 -5.5l7 -28l-2 -1q-3 -1 -4.5 -0.5t-2.5 5.5z" />
    <glyph glyph-name="cid18365" unicode="&#xcd;" horiz-adv-x="823" 
d="M114 570v1q0 18 14 32t34 14h12v5q0 20 14 33.5t35 13.5h493q20 0 33.5 -13.5t13.5 -33.5v-45l-22 -17l22 -18v-414q0 -20 -13.5 -34t-33.5 -14h-13v-4q0 -20 -13.5 -34t-33.5 -14h-7q0 -20 -13.5 -33.5t-33.5 -13.5h-494q-20 0 -34 14t-14 34v494q0 20 14 33.5t34 13.5
h6zM108 569q-20 0 -33.5 -13t-13.5 -33v-494q0 -20 13.5 -33.5t33.5 -13.5h494q20 0 33 13.5t13 33.5v414l-4 4l-18 14l18 14l4 3v45q0 20 -13 33t-33 13h-494zM637 484l-29 -23l29 -24v-408q0 -15 -10.5 -25.5t-24.5 -10.5h-494q-15 0 -25 10.5t-10 25.5v494q0 14 10 24.5
t25 10.5h494q17 0 26 -9.5t9 -25.5v-39zM567 151l-340 -100h340v100zM187 617v5q0 14 10 24.5t25 10.5h494q17 0 26 -9.5t9 -25.5v-39l-29 -23l29 -24v-408q0 -15 -10.5 -25.5t-24.5 -10.5h-13v-11h13q20 0 33 13.5t13 33.5v414l-22 18l22 17v45q0 20 -13 33t-33 13h-494
q-20 0 -33.5 -13t-13.5 -33v-5h12zM127 570v1q0 14 10 24t25 10h494q17 0 26 -9.5t9 -25.5v-39l-29 -23l29 -24v-408q0 -15 -10.5 -25.5t-24.5 -10.5h-7v-11h7q20 0 33 13.5t13 33.5v414l-4 4l-18 14l18 14l4 3v45q0 20 -13 33t-33 13h-494q-20 0 -33.5 -13t-13.5 -32v-1h12
zM427 191q-5 15 -22 12q-15 -5 -12 -22l8 -28q6 -16 20 -11l7 2q1 -6 -4 -8l-24 -7q0 3 -1 6l-13 44q-5 19 -21 13q-8 -2 -11.5 -8t-0.5 -14l7 -28q6 -18 22 -12l6 2q1 -7 -4 -8l-24 -7q0 3 -1 6l-13 44q-4 18 -21 12l-11 -3l3 -11l11 4q6 1 7 -5q-12 -2 -16 -8.5t-2 -13.5
l10 -32l1 -2l-8 -2q0 2 -1 5l-17 62l-12 -3l17 -61q2 -7 -3 -8.5t-7 5.5l-18 60l-11 -3l18 -60q2 -6 -4 -7.5t-8 3.5l-17 61l-12 -3l18 -62l2 -5l-7 -2l-5 16q-4 14 -18 13q-6 -1 -8 0t-4 7l-1 5q-2 8 3 9q6 2 8 -3l3 -12l11 3l-3 12q-6 16 -22 12q-8 -2 -11 -8.5t-1 -12.5
l3 -12q6 -15 22 -12q5 1 8 -5l3 -10q1 -6 -3 -7q-3 -1 -5.5 0t-4.5 8l-2 7l-11 -3l9 -28l198 57q8 2 11 8q2 5 1 14zM464 153q15 6 11 22l-8 28q-2 8 -8 11t-14 1q-17 -5 -12 -22l13 -45q4 -17 21 -12l12 3l-3 11l-8 -2q-8 -2 -11 3zM499 200l11 3l-3 11q-5 17 -21 12
q-17 -5 -12 -22l17 -61l11 3l-18 61q-2 7 3.5 8t7.5 -4zM329 145q-1 5 4 7l6 1l9 -33q2 -6 -3.5 -7.5t-7.5 4.5zM365 173q-2 6 3 8t7 -5l10 -33l-6 -3q-5 -1 -8 8zM445 197q-2 6 3 7.5t7 -4.5l8 -25q2 -6 0.5 -8t-4.5 -3l-5 -1zM405 185q-2 6 3 8t7 -5l10 -34l-3 -1
q-3 -1 -5.5 -0.5t-4.5 6.5z" />
    <glyph glyph-name="cid18366" unicode="&#xce;" horiz-adv-x="991" 
d="M425 591h150l149 -51q16 -5 16 -22v-625l-30 -31h-414l-32 22l-2 6q-2 6 -2 12v620q0 3 1 7q2 8 9 10zM253 -87h-160l-29 19q-1 2 -2 5q-2 6 -2 12v575q0 3 1 6q2 7 8 9l144 49h140l21 -7l-105 -35q-16 -5 -16 -24v-118q-27 -5 -50 -18.5t-39.5 -33.5t-25.5 -45.5
t-9 -53.5q0 -29 9 -54t25.5 -45t39.5 -33.5t50 -18.5v-189zM617 581l21 7h140l144 -49q6 -3 8 -9q1 -3 1 -6v-575q0 -6 -2 -12q-1 -3 -2 -5l-29 -19h-150v191q25 6 46 20t36.5 33.5t24 44t8.5 51.5q0 55 -32 95.5t-83 53.5v115q0 9 -3.5 15.5t-14.5 10.5zM666 230
q0 34 -13 64.5t-35.5 53t-53 35.5t-64.5 13q-35 0 -65 -13t-52.5 -35.5t-35.5 -53t-13 -64.5q0 -35 13 -65t35.5 -52.5t52.5 -35.5t65 -13q34 0 64.5 13t53 35.5t35.5 52.5t13 65zM580 601q-30 4 -58.5 4.5t-51.5 -0.5q-26 -1 -50 -4v150q1 2 5 4q3 2 8.5 3.5t13.5 3.5
q9 1 22 2.5t28.5 2t32 -0.5t32.5 -4q5 -1 9 -3l6 -4t3 -4v-150zM783 597q-28 4 -54 4.5t-47 -0.5q-25 -1 -47 -4v139q1 1 5 3q3 2 7.5 3.5t12.5 3.5q16 3 46.5 4t59.5 -4q4 -1 8 -3q3 -2 6 -3.5t3 -3.5v-139zM356 597q-28 4 -54 4.5t-47 -0.5q-25 -1 -46 -4v139q1 1 5 3
q3 2 7.5 3.5t12.5 3.5q16 3 46.5 4t59.5 -4q4 -1 8 -3q8 -4 8 -7v-139zM570 229q2 -8 -2 -13q-2 -2 -4 -3.5t-4 -1.5l-36 -11l-3 -1l-32 -9h-1l-34 -10q-1 0 -1 -1l-54 -15h-3l-12 -4l-3 10q-2 2 -2 4l-3 11l10 2l3 -10q0 -1 2 -3q1 -1 3 -1l2 1l3 2v4l-3 10q0 1 -2 3
q-1 1 -4 1q-9 -4 -13 2q-5 3 -7 8l-2 10q-2 4 0 10q2 5 10 9q8 3 13 -2q4 -3 7 -9l2 -10l-9 -2l-4 10q0 2 -1 2q-1 3 -5 1q-3 -2 -3 -3v-4l2 -9q2 -3 3 -4h4q7 3 13 -2q4 -3 6 -9l3 -9v-5l8 2q-2 2 -2 5l-16 54l10 3l15 -54q0 -2 1 -2q0 -1 1 -1q2 -1 5 -1l3 2q1 3 0 4
l-16 55l11 3l15 -55q0 -3 2 -3q1 -1 4 0h1q3 0 3 2v4l-15 54l9 3l16 -54q1 -2 1 -5l7 2q-2 2 -2 5l-7 24q-3 6 0 11q3 7 10 8l5 2q0 3 -2 3q-2 1 -4 1l-10 -4l-3 10l10 3q5 2 11 0q6 -3 8 -11l11 -39q1 -2 1 -5l11 3l6 2l4 1q3 3 3 2q1 1 0 4l-4 -1q-8 -2 -13 2q-4 3 -6 8
l-7 25q-2 6 1 11q2 7 9 8q7 3 13 -2q4 -2 7 -8l11 -40v-5l21 6l4 2q0 2 0.5 2.5t-0.5 2.5l-5 -2q-8 -2 -13 2q-4 3 -6 9l-7 25q-2 6 1 10q3 7 10 8q7 3 13 -2q4 -1 6 -8zM253 211l-78 -23l-3 10h1q-2 1 -2 3l-3 10l9 2l3 -8q0 -2 2 -4h4q4 2 3 2v4l-3 9q0 1 -2 3q-1 1 -3 1
q-8 -3 -13 1q-4 3 -5 8l-3 9q-1 6 0 10q3 6 10 8q8 2 12 -2q5 -3 6 -8l2 -9l-9 -2l-2 9l-2 2q-3 2 -4 1q-3 -2 -3 -3q-3 0 0 -3l2 -9q0 -3 2 -3q1 -1 4 0q6 1 12 -2q4 -3 6 -9l2 -9q1 -1 1 -4l6 2q0 2 -2 4l-14 51l9 2l14 -50q2 -4 2 -3h4q2 0 4 2v3l-15 51l9 3l15 -51
q0 -1 2 -3h5l2 2v4l-14 50l9 3l14 -51q0 -1 0.5 -1.5t0.5 -2.5l3 1v-10zM602 233l2 -9l-9 -3q-7 -2 -11 1q-7 2 -8 9l-12 40q-2 6 1 10q3 8 10 9q6 1 13 -2q4 -3 6 -9l7 -24q1 -6 -1 -11q-2 -6 -9 -8l-5 -2q0 -3 2 -3q2 -2 4 0zM803 257l3 -9l-9 -3q-5 -2 -10 0t-8 10
l-10 36q-2 5 0 10t10 8q7 2 12 -2q2 -2 3 -4t3 -4l6 -23q1 -4 0 -10q-4 -5 -10 -7l-5 -2q1 -2 1.5 -2t1.5 -1q1 -2 3 0zM610 284l15 -55l-10 -2l-15 54q-2 6 0 11q2 4 10 8q8 3 13 -2q4 -3 7 -9l2 -10l-9 -2l-4 10q0 2 -1 3h-5q-3 0 -3 -2v-4zM748 240l14 4q4 1 3 6l-5 -1
q-8 -2 -12 2v23l4 -13q1 -5 6 -3l4 1l-7 28q-1 4 -7 3v9q12 2 16 -10l10 -36q3 -15 -10 -18l-16 -5v10zM811 307q-1 -3 0 -4l14 -50l-9 -3l-14 50q-1 5 0 11q3 6 10 7q6 3 11 -2q6 -2 6 -8l3 -9l-9 -3l-3 9q0 2 -2 4h-4q-1 0 -3 -2zM558 237l-9 29l-2 3q-1 1 -4 1
q-4 -2 -4 -3v-4l7 -25l2 -3h4zM482 200q0 -2 3 0h1q3 1 3 3q3 0 0 3l-8 30l-5 -1l-4 -3v-4l8 -25q0 -2 2 -3zM587 246q4 0 4 2v3l-7 25q0 3 -2 3q-2 2 -4 1q-3 -2 -4 -3v-3l9 -30zM522 226l-9 30q0 2 -2 3q-1 1 -4 0q-3 0 -3 -2q-1 -1 0 -4l7 -24q0 -3 2 -4q0 -2 4 0z
M790 268q4 0 4 2v4l-7 22q0 2 -0.5 2t-0.5 1q-2 1 -5 1l-3 -3v-3l8 -28zM253 232l-5 17q-4 10 5 15v-32zM253 270l-5 -2l-3 9l8 3v-10z" />
    <glyph glyph-name="cid18367" unicode="&#xcf;" horiz-adv-x="489" 
d="M121 -120h-10v-30h-14v30h-12v-30h-32l-3 6v370q0 3 3 5l-3 2v102q0 4 3.5 6t6.5 2h163q10 0 10 -8v-102l-3 -2q3 -3 3 -5v-370l-3 -6h-32v30h-12v-30h-13v30h-14v-30h-11v30h-12v-30h-15v30zM427 233h2q3 0 6.5 -1.5t3.5 -5.5v-370l-4 -6h-31v30h-13v-30h-13v30h-10v-30
h-16v30h-11v-30h-11v30h-15v-30h-12v30h-12v-30h-32l-3 6v370q0 7 11 7v38h1v35q0 5 3.5 8.5t8.5 3.5q3 2 18 5t49 3q33 0 48.5 -3t17.5 -5q5 0 8.5 -3.5t3.5 -8.5v-35h2v-38zM383 151q0 -1 -1 -1q-1 -1 -4 -1h-7v-9h7q3 0 5 0.5t4 1.5q3 3 3 9q0 8 -3 10q-3 3 -9 3h-7
q-2 2 -7 -3q-4 -3 -4 -10l-2 -1q-1 -1 -2 -1h-1h-7q-2 0 -3 1q-1 0 -2 1h-1q0 1 2 3q2 1 4 1h7v10h-21v-141q0 -4 3 -8t11 -4h30q3 0 9 2q3 4 3 9t-3 10q-3 3 -9 3h-19q-7 0 -8 -3q-2 -2 -2.5 -3.5t-0.5 -5.5v-4q-3 0 -5 2q-1 0 -1 2v17q1 -1 6 -1h30q5 0 8 3q4 2 4 9
q0 5 -3 8q-5 3 -9 3h-19q-7 0 -8 -3q-3 -2 -3 -8v-3h-5q-1 0 -1 3v18q2 -1 6 -1h30q7 -1 9 4q3 3 3 7v8h-7v-11q-1 0 -2 -0.5t-3 -0.5v4q0 7 -4 10q-4 2 -5 2h-21q-2 0 -3 -0.5t-3 -0.5v5h48v9h-45q-2 1 -2 3q0 4 2 4q1 0 1.5 0.5t1.5 0.5h42v8h-42q-2 0 -3 1q-2 0 -2 2
q0 3 2 4q1 1 3 1h42v6h-42q-2 0 -6 -2v8q2 0 3 -0.5t3 -0.5h6q5 0 9 2q6 4 6 9q0 2 1 3q0 1 1 1h7q2 0 4 -2q1 -1 1 -2zM173 151q0 -1 -1 -1q-1 -1 -4 -1h-8v-9h8q4 0 8 2q5 5 5 9q0 7 -5 10q-2 3 -8 3h-8q-2 1 -7 -3q-3 -3 -3 -10l-2 -1q0 -1 -2 -1h-9l-2 1q-1 1 -2 1
q0 1 2 3q1 1 2 1h9v10h-21v-141q-1 -2 3 -8q1 -4 9 -4h30q5 0 9 2q2 2 3.5 4.5t1.5 4.5q0 4 -1.5 6t-3.5 4q-3 3 -8 3h-19q-5 0 -9 -3q-3 -3 -3 -9v-4q-2 0 -4 2v19q1 -1 4 -1h30q4 0 9 3q1 1 3 3.5t2 5.5q0 5 -5 8q-3 3 -8 3h-19q-5 0 -9 -3q-3 -1 -3 -8v-3h-4v21
q1 -1 4 -1h31q7 -1 9 4q4 4 4 7v8h-8v-8q0 -1 -2 -3q-1 0 -1.5 -0.5t-1.5 -0.5v4q0 7 -3 10q-6 2 -8 2h-20q-1 0 -1.5 -0.5t-2.5 -0.5v5h48v9h-46q-2 2 -2 3q0 4 2 4q1 0 2 1h44v8h-44l-2 1q-1 0 -1 2q0 3 1 4t2 1h44v6h-44l-4 -2v8q2 0 2.5 -0.5t1.5 -0.5h9q3 0 7 2
q2 2 3 4.5t1 4.5v3q1 1 3 1h8q2 0 4 -2q1 -1 1 -2zM347 309h-39t-34 2q-2 -1 -2 -5v-35h150v35q0 5 -4 5q-15 -2 -33.5 -2h-37.5zM112 -43v209h-10v-209h10zM322 -43v209h-9v-209h9zM181 -4q0 2 -1.5 4.5t-3.5 4.5q-2 1 -4.5 2t-4.5 1h-30q-7 0 -9 -4q-3 -5 -3 -8v-8h8v8
q0 2 1 2q1 1 3 1v-3q0 -7 3 -9q4 -3 9 -3h19q5 0 8 3q5 2 5 9zM390 -4q0 2 -1 4.5t-2 4.5l-4 2t-5 1h-30q-5 0 -7 -1t-4 -3q-3 -5 -3 -8v-8h8v8q0 2 1 2q1 1 5 1v-3q0 -6 3 -9q1 -3 8 -3h19q4 0 9 3q3 3 3 9zM159 -36v-7h8q6 0 9 1q1 2 3 4.5t2 4.5q0 5 -5 10l-4 2t-4 1h-43
v-8h43q1 0 4 -3q1 -1 1 -2t-1 -2t-4 -1h-9zM370 -36v-7h8q6 0 8 1q4 4 4 9q0 3 -1 5.5t-2 4.5l-4 2t-5 1h-44v-8h44q1 0 4 -3q1 -1 1 -2t-1 -2t-4 -1h-8zM354 20v3q0 4 1 4q2 2 4 2h19q1 0 4 -3q1 -2 1 -3t-1 -2t-4 -1h-24zM348 76q-1 0 -2 0.5t-2 0.5q-2 2 -2 3q0 2 2 4
q1 1 4 1h21q1 0 1 -1t0.5 -2t0.5 -2v-4h-23zM145 20v3q0 4 2 4q0 2 2 2h18q2 0 5 -3q1 -2 1 -3t-1 -2t-4 -1h-23zM137 76q-1 0 -1 0.5t-1 0.5q-2 2 -2 3q0 2 2 4q1 1 2 1h20l1 -1q2 -2 2 -4v-4h-23zM383 52q0 -1 -1 -2t-4 -1h-24v3q0 2 1 3t4 1h19q2 0 4 -2q1 -1 1 -2z
M173 52q0 -1 -1 -2t-4 -1h-23v3q0 1 2 3q0 1 2 1h19q2 0 4 -2q1 -1 1 -2zM359 -7q-3 0 -4 1q-1 0 -1 1v1v3h24q2 0 4 -2l1 -1q0 -1 -1 -2q-2 -2 -4 -2zM149 -7q-2 0 -2 1q-1 0 -1 1l-1 1v3h23q2 0 4 -2l1 -1q0 -1 -1 -2q-2 -2 -4 -2z" />
    <glyph glyph-name="cid667" unicode="&#xd0;" horiz-adv-x="524" 
d="M44 425h65v310h195q48 0 81 -13.5t54 -39t30.5 -61.5t9.5 -80v-347q0 -44 -9.5 -80t-30.5 -61.5t-54 -39t-81 -13.5h-195v316h-65v109zM292 109q35 0 51 21t16 59v348q0 38 -16 63.5t-51 25.5h-63v-201h62v-109h-62v-207h63z" />
    <glyph glyph-name="cid18368" unicode="&#xd1;" horiz-adv-x="581" 
d="M531 45v-176q0 -8 -6.5 -13.5t-16.5 -5.5h-435q-10 0 -16.5 5.5t-6.5 13.5v176h481zM508 143q10 0 16.5 -5.5t6.5 -13.5v-72h-481v72q0 8 6.5 13.5t16.5 5.5h435zM430 -19q-3 15 -20 10q-13 -4 -10 -18l7 -24q4 -13 20 -8l4 1q1 -5 -5 -7l-19 -5q0 2 -1 5l-11 37
q-2 6 -6.5 9t-12.5 1q-15 -5 -10 -20l7 -23q4 -12 20 -7l3 1q2 -6 -2 -8l-20 -6q0 2 -1 5l-10 36q-4 17 -19 12l-10 -3l3 -10l9 3q4 1 6 -4q-10 -2 -13.5 -7.5t-1.5 -11.5l8 -24l2 -3l-8 -2v5l-15 51l-9 -3l14 -50q2 -6 -2.5 -7t-6.5 4l-14 50l-10 -3l15 -50q2 -5 -2 -6
t-6 4l-16 49l-10 -3l16 -52l3 -3l-7 -2l-4 14q-4 12 -15 11q-8 -1 -10 5l-2 7q-2 5 2.5 6.5t6.5 -3.5l3 -9l9 3l-3 9q-4 13 -18 9q-8 -2 -9.5 -6.5t0.5 -9.5l3 -10q4 -12 14 -11q8 1 10 -4l2 -7q2 -7 -2 -8q-6 -2 -7 4l-3 9l-9 -3l7 -23l166 48q13 4 10 19zM494 -62
l-227 -67h227v67zM460 -51q7 2 9.5 6.5t-0.5 14.5l-6 21q-2 8 -7.5 10.5t-11.5 0.5q-14 -4 -11 -18l12 -40q2 -8 6 -9.5t11 0.5l11 3l-3 8l-7 -1q-8 -3 -10 2zM489 -11l9 3l-3 10q-4 13 -18 9q-14 -5 -10 -19l15 -51l10 3l-15 51q-2 5 2.5 6.5t6.5 -3.5zM410 -26
q-2 7 3.5 8.5t7.5 -4.5l7 -28l-3 -1q-7 -2 -9 3zM443 -15q-2 5 3.5 6.5t6.5 -3.5l6 -20q2 -8 -4 -10l-4 -1zM375 -35q-2 6 3 7.5t7 -3.5l8 -27l-2 -1q-9 -3 -10 4zM347 -57q-1 3 3 5l5 1l8 -28q1 -4 -3.5 -5t-5.5 3z" />
    <glyph glyph-name="cid18369" unicode="&#xd2;" horiz-adv-x="727" 
d="M667 -116h-71v-65h-536v849h71v65h536v-849zM556 629h-456v-770h456v770zM627 693h-456v-25h425v-745h31v770zM369 -52l14 94h29v-132h-20v94l-14 -94h-20l-15 93v-93h-18v132h29zM315 -90h-21l-3 24h-26l-3 -24h-19l21 132h30zM315 82h-21v132h21v-56h23v56h21v-132h-21
v57h-23v-57zM399 337q0 -32 -31 -32h-10v-50h-21v132h31q31 0 31 -33v-17zM465 510q0 -33 -31 -33h-10v-49h-21v131h31q31 0 31 -32v-17zM282 387v-102q0 -12 11 -12t11 12v102h20v-101q0 -15 -8 -24t-23 -9q-16 0 -24 9t-8 24v101h21zM206 -17h29v-41q0 -33 -31 -33t-31 33
v68q0 33 31 33t31 -33v-13h-19v14q0 13 -11 13t-11 -13v-71q0 -13 11 -13t11 13v25h-10v18zM225 561q30 0 30 -33v-5h-19v6q0 13 -11 13q-10 0 -10 -13q0 -10 6 -17t13.5 -14t14 -16t6.5 -23q0 -33 -30 -33q-32 0 -32 33v8h20v-9q0 -13 11 -13t11 13q0 10 -6.5 17t-14 14
t-14 16t-6.5 23q0 33 31 33zM396 159h28v-19h-28v-39h35v-19h-56v132h56v-18h-35v-37zM355 504h29v-19h-29v-39h36v-18h-57v131h57v-18h-36v-37zM447 -14h29v-19h-29v-38h36v-19h-56v132h56v-19h-36v-37zM221 214h64v-18h-21v-114h-21v114h-22v18zM261 559h64v-18h-22v-113
h-20v113h-22v18zM424 541v-45h10q10 0 10 13v19q0 13 -10 13h-10zM358 368v-45h10q10 0 10 13v20q0 12 -10 12h-10zM268 -49h20l-10 67z" />
    <glyph glyph-name="cid18370" unicode="&#xd3;" horiz-adv-x="727" 
d="M667 -116h-72v-65h-535v849h71v65h536v-849zM556 629h-456v-770h456v770zM627 693h-456v-25h424v-745h32v770zM419 362l12 78h24v-109h-16v78l-13 -78h-15l-13 77v-77h-15v109h24zM299 103l-6 -58h-23l-13 109h17l9 -86l8 86h17l8 -86l9 86h15l-12 -109h-23zM370 297h27
q26 0 26 -27v-55q0 -27 -26 -27h-27v109zM271 -15q0 27 26 27t26 -27v-57q0 -27 -26 -27t-26 27v57zM319 267v-79h-16v109h22l17 -66v66h16v-109h-18zM349 -19v-79h-15v109h22l18 -66v66h15v-109h-18zM402 45h-17l-3 20h-21l-3 -20h-16l17 109h26zM296 188h-18l-3 20h-21
l-3 -20h-15l17 109h25zM322 331h-17l-3 20h-21l-3 -20h-16l18 109h24zM448 542q0 -27 -25 -27h-9v-41h-17v109h26q25 0 25 -27v-14zM240 517l-5 -9v-34h-18v109h18v-47l22 47h18l-25 -49l25 -60h-18zM436 105h23v-34q0 -28 -25 -28t-25 28v57q0 27 25 27t25 -27v-11h-15v12
q0 11 -9 11t-9 -11v-59q0 -11 9 -11t9 11v20h-8v15zM226 155q25 0 25 -27v-4h-16v5q0 11 -9 11q-8 0 -8 -11q0 -8 5.5 -14t11.5 -12t11.5 -13t5.5 -19q0 -28 -26 -28t-26 28v7h16v-8q0 -11 9 -11t9 11q0 8 -5.5 14t-11.5 12t-11.5 13t-5.5 19q0 27 26 27zM256 372v-15
q0 -28 -25 -28q-26 0 -26 28v57q0 27 26 27q25 0 25 -27v-11h-16v12q0 11 -9 11t-9 -11v-59q0 -11 9 -11t9 11v16h16zM299 537h24v-16h-24v-32h30v-15h-47v109h47v-16h-30v-30zM357 537h23v-16h-23v-32h29v-15h-46v109h46v-16h-29v-30zM330 440h17v-94h28v-15h-45v109z
M387 281v-78h10q9 0 9 11v57q0 10 -9 10h-10zM288 -73q0 -11 9 -11t9 11v59q0 11 -9 11t-9 -11v-59zM414 567v-36h9q8 0 8 10v16q0 10 -8 10h-9zM363 80h17l-9 55zM283 366h16l-8 55zM257 223h16l-8 55z" />
    <glyph glyph-name="cid18371" unicode="&#xd4;" horiz-adv-x="1050" 
d="M141 536v71h849v-535h-81v-71h-849v535h81zM870 496h-770v-455h770v455zM242 329q-3 0 -6 -1q-5 -2 -5 -10v-21q0 -4 3 -7t8 -3q14 0 23 -9t9 -22v-21q0 -7 -4 -11h17q-2 3 -2 12v113h21v-113q0 -11 10 -11t10 11v113h21v-113q0 -4 2 -7.5t8 -3.5q11 0 11 11v113h21v-114
q0 -7 -3 -11h16q-1 3 -1 11v52q0 12 8 21.5t22 9.5h10q1 10 -10 10h-20v21h22q13 0 21.5 -8t8.5 -23v-83q0 -5 -2 -11h45q10 0 10 10h-11q-13 0 -22 10t-9 21v53q0 14 9 22.5t23 8.5q13 0 22 -8.5t9 -24.5v-82q0 -6 -2 -10h44q11 0 11 10h-11q-14 0 -22 9.5t-8 21.5v52
q0 32 32 32q16 0 23 -9.5t7 -23.5v-82q0 -31 -32 -31h-369v53h21v-21q0 -10 11 -10q10 0 10 10v21q0 10 -10 10q-16 2 -24 11q-7 10 -7 20v21q0 14 9 22.5t23 8.5q15 0 23 -9.5t8 -21.5v-21h-22v21q0 7 -5 10q-3 1 -5 1zM180 536h729v-425h41v456h-770v-31zM654 349
q31 0 31 -32v-52q0 -13 -8.5 -22t-22.5 -9h-11q0 -10 11 -10h20v-21h-20q-13 0 -22.5 7.5t-9.5 23.5v82q0 15 8 24t24 9zM738 317q0 5 -1.5 6.5l-3.5 3.5q-3 1 -5 2l-6 -2q-5 -3 -5 -10v-114h-20v114q0 14 8.5 23t22.5 9t22.5 -9.5t8.5 -23.5v-20h-21v21zM506 329
q-3 0 -6 -1q-5 -2 -5 -10v-53q0 -11 11 -11h10v63q0 8 -5 11q-3 1 -5 1zM664 317q0 5 -2 6.5t-4 3.5q-3 1 -5 2q-3 -1 -5 -2q-5 -3 -5 -10v-63h11q10 0 10 11v52zM590 317q0 5 -1.5 6.5l-3.5 3.5l-4 2q-3 0 -6 -1q-5 -3 -5 -12v-51q0 -11 10 -11h10v63zM441 297h-10
q-10 0 -10 -10v-52q0 -10 10 -10t10 10v62z" />
    <glyph glyph-name="cid18372" unicode="&#xd5;" horiz-adv-x="902" 
d="M842 1h-782v643h782v-643zM100 41h702v563h-702v-563zM208 464l15 96h29v-135h-20v97l-14 -97h-21l-16 96v-96h-18v135h29zM482 224h33q32 0 32 -34v-69q0 -33 -32 -33h-33v136zM227 187q0 -20 -14 -26q16 -7 16 -30v-11q0 -32 -33 -32h-33v136h32q32 0 32 -32v-5z
M287 88q-2 3 -2.5 5.5t-0.5 11.5v21q0 17 -13 17h-8v-55h-21v136h32q32 0 32 -32v-10q0 -21 -15 -28q15 -5 15 -29v-21q0 -11 2 -16h-21zM359 523v-98h-20v135h27l22 -81v81h19v-135h-22zM418 186v-98h-19v136h26l22 -82v82h19v-136h-22zM389 88h-22l-3 25h-26l-4 -25h-20
l22 136h31zM486 562q32 0 32 -34v-4h-21v5q0 14 -10 14q-11 0 -11 -14q0 -10 6.5 -17t14.5 -14.5t14.5 -16.5t6.5 -24q0 -34 -32 -34t-32 34v9h20v-10q0 -13 11 -13q12 0 12 13q0 10 -6.5 17.5t-14.5 14.5t-14.5 16t-6.5 24q0 34 31 34zM432 394q32 0 32 -34v-5h-20v6
q0 13 -11 13t-11 -13q0 -11 6.5 -18t14.5 -14t14.5 -16t6.5 -24q0 -34 -32 -34t-32 34v8h21v-9q0 -14 11 -14t11 14q0 10 -6.5 17.5t-14.5 14.5t-14.5 16t-6.5 24q0 34 31 34zM354 335h29v-19h-29v-41h36v-19h-58v136h58v-19h-36v-38zM709 335h30v-19h-30v-41h37v-19h-58
v136h58v-19h-37v-38zM289 503h29v-19h-29v-40h37v-19h-58v135h58v-19h-37v-38zM565 301l-27 91h23l16 -62l16 62h21l-27 -91v-45h-22v45zM287 332h28v-20h-28v-56h-21v136h56v-19h-35v-41zM470 392h66v-19h-22v-117h-22v117h-22v19zM163 392h21v-117h35v-19h-56v136z
M623 392h20v-117h36v-19h-56v136zM229 392h21v-136h-21v136zM503 205v-98h12q11 0 11 13v71q0 14 -11 14h-12zM184 149v-42h12q12 0 12 14v11q0 17 -14 17h-10zM263 205v-42h9q12 0 12 14v13q0 15 -11 15h-10zM184 205v-36h8q14 0 14 14v7q0 15 -11 15h-11zM340 131h21
l-11 69zM422 540v20h21v-18l-10 -22h-8l6 20h-9z" />
    <glyph glyph-name="cid18373" unicode="&#xd6;" horiz-adv-x="1143" 
d="M1083 -1h-1023v646h1023v-646zM100 39h943v566h-943v-566zM346 344q-2 4 -2.5 8t-0.5 17v32q0 25 -20 25h-11v-82h-32v201h48q25 0 35.5 -11.5t10.5 -34.5v-16q0 -31 -20 -41q11 -5 16 -16t5 -26v-31q0 -8 0.5 -13.5t2.5 -11.5h-32zM383 94h-32l-6 37h-38l-6 -37h-29
l32 202h47zM498 344h-32l-5 37h-39l-6 -37h-29l32 201h47zM265 469q0 -49 -47 -49h-15v-76h-32v201h47q47 0 47 -49v-27zM975 296l-33 -98l36 -104h-34l-26 80l-26 -80h-30l36 104l-34 98h33l24 -75l25 75h29zM873 419v-27q0 -50 -48 -50q-47 0 -47 50v105q0 24 12 37.5
t35 13.5q24 0 36 -13.5t12 -37.5v-19h-30v21q0 20 -17 20q-16 0 -16 -20v-109q0 -19 16 -19q17 0 17 19v29h30zM604 419v-27q0 -50 -47 -50t-47 50v105q0 24 12 37.5t35 13.5t35 -13.5t12 -37.5v-19h-29v21q0 20 -17 20q-16 0 -16 -20v-109q0 -19 16 -19q17 0 17 19v29h29z
M214 298q46 0 46 -51v-6h-30v8q0 20 -15 20q-16 0 -16 -20q0 -15 9.5 -25.5t21 -21.5t21 -24.5t9.5 -34.5q0 -51 -46 -51q-48 0 -48 51v12h30v-15q0 -19 17 -19q16 0 16 19q0 16 -9.5 26.5t-21.5 21.5t-21.5 24.5t-9.5 34.5q0 51 47 51zM696 298q46 0 46 -51v-6h-30v8
q0 20 -15 20q-16 0 -16 -20q0 -15 9.5 -25.5t21 -21.5t21 -24.5t9.5 -34.5q0 -51 -47 -51t-47 51v12h30v-15q0 -19 16 -19q17 0 17 19q0 16 -9.5 26.5t-21.5 21.5t-21.5 24.5t-9.5 34.5q0 51 47 51zM531 211h44v-29h-44v-59h55v-29h-87v202h87v-29h-55v-56zM794 211h43v-29
h-43v-59h54v-29h-86v202h86v-29h-54v-56zM924 461h43v-29h-43v-59h54v-29h-86v201h86v-28h-54v-56zM430 206h42v-29h-42v-83h-31v202h84v-29h-53v-61zM614 545h98v-28h-33v-173h-31v173h-34v28zM726 545h32v-201h-32v201zM203 517v-69h15q16 0 16 20v30q0 19 -16 19h-15z
M312 517v-62h12q9 0 14 4.5t5 16.5v20q0 21 -17 21h-14zM425 408h31l-15 102zM311 158h30l-15 102z" />
    <glyph glyph-name="cid131" unicode="&#xd7;" horiz-adv-x="477" 
d="M455 529l-140 -140l141 -140l-78 -77l-140 140l-141 -141l-77 77l141 141l-140 140l77 78l140 -141l140 140z" />
    <glyph glyph-name="cid673" unicode="&#xd8;" horiz-adv-x="478" 
d="M79 60q-29 46 -29 114v389q0 90 48 138.5t135 48.5q62 0 106 -27l15 37h78l-38 -97q22 -42 22 -100v-389q0 -89 -48.5 -137.5t-134.5 -48.5q-54 0 -96 20l-12 -32h-79zM170 291l121 308q-15 42 -58 42q-27 0 -45 -19t-18 -57v-274zM233 97q27 0 45 18.5t18 56.5v240
l-114 -290q18 -25 51 -25z" />
    <glyph glyph-name="cid18374" unicode="&#xd9;" horiz-adv-x="983" 
d="M480 714q-65 0 -124 -19t-108.5 -53.5t-88 -82t-60.5 -104.5h-38q23 64 64.5 118.5t96 93.5t120.5 61t138 22t138 -22t121 -61t96.5 -93.5t64.5 -118.5h-39q-23 57 -61 104.5t-87.5 82t-108.5 53.5t-124 19zM480 -105q60 0 116 16.5t103.5 46.5t85.5 72t63 93h39
q-26 -59 -67 -107.5t-94 -83t-115.5 -54t-130.5 -19.5t-130 19.5t-115 54t-94.5 83t-67.5 107.5h40q25 -51 63 -93t85.5 -72t103 -46.5t115.5 -16.5zM608 413h52q48 0 48 -57v-115q0 -57 -48 -57h-52v229zM823 413h51q49 0 49 -57v-115q0 -57 -49 -57h-51v229zM452 184
q-2 5 -2.5 9.5t-0.5 18.5v36q0 29 -21 29h-12v-93h-32v229h49q26 0 37 -13t11 -40v-18q0 -36 -21 -46q22 -11 22 -49v-35q0 -8 0.5 -14.5t2.5 -13.5h-33zM480 547q-58 0 -107 -25t-83 -67h-44q38 58 99 93t135 35q75 0 136 -35t99 -93h-44q-34 42 -83.5 67t-107.5 25z
M601 184h-33l-6 42h-40l-6 -42h-30l34 229h48zM268 327q0 -57 -48 -57h-16v-86h-32v229h48q48 0 48 -57v-29zM325 312h45v-73q0 -57 -48 -57q-49 0 -49 57v119q0 57 49 57q48 0 48 -57v-22h-30v24q0 23 -17 23t-17 -23v-123q0 -13 4.5 -17.5t12.5 -4.5t12.5 4.5t4.5 17.5v42
h-15v33zM480 62q47 0 88 16t73 45h51q-38 -45 -93 -71t-119 -26q-63 0 -118 26t-93 71h50q32 -29 73.5 -45t87.5 -16zM92 413v-177q0 -22 17 -22t17 22v177h31v-174q0 -58 -49 -58q-48 0 -48 58v174h32zM754 316h45v-32h-45v-67h56v-33h-89v229h89v-33h-56v-64zM855 380
v-163h19q16 0 16 22v119q0 22 -16 22h-19zM641 380v-163h18q17 0 17 22v119q0 22 -17 22h-18zM204 380v-77h16q8 0 12 4.5t4 16.5v35q0 12 -4 16.5t-12 4.5h-16zM416 380v-70h13q9 0 14.5 5t5.5 19v23q0 23 -17 23h-16zM355 601l-11 44l13 5l24 -58l-9 -3l-17 41l11 -44
l-9 -4l-24 39l17 -42l-8 -3l-24 59l13 5zM353 -36l22 39l13 -4l-22 -60l-9 4l16 42l-22 -40l-9 3l8 45l-15 -42l-8 3l22 59l13 -5zM456 625l4 45l13 1l5 -63l-10 -1l-3 45l-4 -45l-9 -1l-10 44l3 -44l-9 -1l-4 63l14 1zM459 -58l9 44h14l-3 -63h-9l2 45l-9 -44h-10l-5 45
l-2 -45l-9 1l4 63l13 -1zM502 654q2 17 17 14q15 -2 13 -17l-4 -33q0 -5 -3 -8q0 -2 3 -2h1l-1 -9h-2q-7 2 -8 6q-2 -1 -7 -1q-15 2 -13 18zM526 257h32l-16 115zM501 -28q-3 15 13 17q14 2 16 -14l4 -32q1 -5 -1 -9q2 -2 3 -1h1l1 -9h-1q-5 -1 -9 3q-4 -2 -7 -2
q-14 -2 -17 14zM696 19l-33 23l3 -5l-8 -5l29 -46l-9 -5l-29 45l-8 -5l-5 7l26 17l7 5l23 -17l-11 27l7 6l16 -41l13 -17l-8 -6zM303 552l-5 6l-6 8q-4 6 -10 3l-3 -2l16 -21l-8 -6l-38 51l12 9q12 8 21 -3l3 -4q6 -7 2 -14q6 1 13 -7l6 -8l5 -6zM276 -19l4 7l5 8q4 7 -1 10
l-3 2l-14 -22l-8 6l34 53l12 -8q12 -8 5 -20l-3 -4q-4 -8 -12 -8q4 -6 -2 -15l-5 -8q-3 -3 -3 -7zM616 -51l-10 -3l-5 10l-12 -4l3 -11l-9 -3l-11 63l14 4zM595 583l-9 4l2 11l-11 4l-6 -10l-8 3l30 56l14 -5zM257 567q10 -12 0 -22l-3 -3l16 -17l-8 -7l-42 46l10 10
q11 10 22 -1zM276 28q-10 -13 -21 -3l-4 3l-15 -19l-8 6l40 49l11 -9q11 -9 2 -21zM555 662l-11 -48q-1 -6 3 -7q6 0 7 5l11 47l9 -2l-11 -46q-3 -16 -18 -13q-14 4 -11 19l11 47zM399 662l10 -48q2 -6 6 -5q5 2 4 7l-10 48l9 1l10 -46q3 -16 -11 -19q-15 -3 -18 13l-10 47z
M417 -8l-8 -48q-1 -5 4 -7q5 0 6 5l8 48l10 -2l-9 -47q-1 -15 -17 -13q-14 3 -12 18l9 48zM542 -7l10 -47q1 -7 7 -5q4 0 3 7l-10 47l9 2l10 -47q5 -15 -11 -18q-14 -3 -17 12l-11 47zM306 597l11 7l5 -8l-12 -7l9 -16l15 9l5 -8l-24 -14l-31 55l23 14l5 -8l-15 -9zM318 -2
l13 -6l-5 -8l-12 7l-8 -17l15 -8l-4 -8l-24 13l29 56l24 -13l-4 -8l-16 8zM685 552l18 40l8 -6l-13 -27l24 17l7 -6l-36 -24l-14 -16l-8 6zM626 639l9 -5l-24 -48l15 -7l-4 -9l-24 12zM673 613l25 -17l-5 -7l-9 6l-30 -45l-8 6l30 44l-8 6zM598 10l9 4l22 -49l15 7l4 -9
l-24 -10zM393 -2l10 -3l-16 -61l-10 3zM624 22l9 5l30 -55l-9 -5zM657 623l8 -5l-31 -55l-9 5zM369 654l9 3l18 -61l-9 -3zM514 -60q1 -6 6 -6t5 7l-4 34q-2 6 -6 5q-5 0 -5 -7zM508 620q-1 -5 4 -7q6 0 6 6l4 34q1 6 -4 6q-6 2 -6 -5zM233 564l14 -15l4 3q3 3 -1 8l-6 7
q-4 4 -8 1zM270 51l-13 -16l3 -3q4 -3 8 1l6 8q3 4 -1 7zM296 32l-10 -16l3 -2q5 -3 9 2l3 5q4 5 -1 8zM263 589l11 -15l3 2q5 3 1 9l-4 5q-3 6 -7 2zM588 -39l9 3l-15 28zM581 610l9 -3l6 31z" />
    <glyph glyph-name="cid18375" unicode="&#xda;" horiz-adv-x="1013" 
d="M85 449q22 66 63.5 121.5t96.5 96t121.5 63t140.5 22.5q73 0 139.5 -22.5t122 -63t96.5 -96t64 -121.5h-39q-21 58 -59 107.5t-88 84.5t-110 55t-126 20t-126 -20t-110 -55t-88 -84.5t-60 -107.5h-38zM924 150q-24 -63 -65.5 -116.5t-96 -91.5t-119.5 -59.5t-136 -21.5
q-72 0 -137 21.5t-119 59.5t-95.5 91.5t-65.5 116.5h39q23 -55 61 -101.5t87 -80t107.5 -52t122.5 -18.5t122 18.5t107 52t87 80t61 101.5h40zM268 449q37 62 99.5 99t139.5 37q76 0 139 -37t99 -99h-43q-33 46 -84 73t-111 27q-61 0 -112 -27t-84 -73h-43zM736 150
q-37 -55 -97 -88.5t-132 -33.5t-132 33.5t-98 88.5h45q34 -39 81.5 -62t103.5 -23t103.5 23t80.5 62h45zM148 335q0 43 36 43q38 0 38 -43v-89q0 -43 -38 -43q-36 0 -36 43v89zM468 295q-17 8 -17 35v4q0 42 37 42h28v-25h-28q-13 0 -13 -16v-11q0 -18 15 -18h10v19h25v-19
h6v-24h-6v-56q0 -6 0.5 -11t2.5 -10h-25q-1 3 -1.5 5.5t-1.5 8.5q-6 -16 -22 -16q-27 0 -27 40v17q0 28 17 35zM818 329v-124h-22v171h31l25 -103v103h22v-171h-25zM104 237l18 139h23l-24 -171h-36l-25 171h25zM338 269v-23q0 -43 -36 -43q-37 0 -37 43v89q0 43 37 43
q36 0 36 -43v-17h-23v19q0 16 -13 16q-12 0 -12 -16v-92q0 -17 12 -17q13 0 13 17v24h23zM712 269v-23q0 -43 -36 -43t-36 43v89q0 43 36 43t36 -43v-17h-23v19q0 16 -12 16q-13 0 -13 -16v-92q0 -17 13 -17q12 0 12 17v24h23zM597 378q37 0 37 -43v-6h-23v8q0 16 -13 16
q-12 0 -12 -16q0 -14 7.5 -23t16.5 -18t16.5 -20.5t7.5 -29.5q0 -43 -37 -43q-36 0 -36 43v11h23v-12q0 -17 12 -17q14 0 14 17q0 13 -7.5 22t-16.5 18t-16.5 20.5t-7.5 29.5q0 43 35 43zM372 304h33v-24h-33v-50h42v-25h-67v171h67v-25h-42v-47zM745 304h34v-24h-34v-50h42
v-25h-66v171h66v-25h-42v-47zM879 376h74v-25h-25v-146h-24v146h-25v25zM231 376h24v-171h-24v171zM172 245q0 -17 12 -17q13 0 13 17v92q0 16 -13 16q-12 0 -12 -16v-92zM664 573l-8 5l4 9l-11 6l-7 -9l-7 4l-10 4l6 45l-16 -40l-9 3l23 56l11 -4l-4 -38l13 34l8 -3
l-22 -57l37 49l12 -6zM227 505l24 -21l-7 -12l-54 30l6 8l41 -23l-36 30l5 8l43 -24l-37 32l5 6l45 -40l-7 -11zM291 554l-23 36l10 9l40 -45l-8 -6l-28 33l23 -38l-6 -6l-34 28l29 -32l-7 -5l-39 45l9 9zM232 535q-11 9 -2 21q11 11 22 1l24 -22q10 -10 1 -21q-9 -9 -22 0z
M749 585l11 -9q10 -11 0 -21l-22 -22q-10 -11 -20 -1l-10 10zM789 518q-6 -6 -13 -3q3 -7 -5 -13l-4 -4q-11 -9 -20 3l-10 11l48 38l8 -11q11 -11 -2 -20zM283 77q11 11 20 2q10 -9 1 -20l-20 -22q-10 -11 -19 -2q-11 10 -1 20zM525 -13q-2 14 12 16q13 2 15 -14l3 -29
q2 -15 -12 -15q-13 -1 -15 12zM434 -5q3 13 16 11q14 -3 11 -16l-6 -30q-2 -13 -15 -11q-14 3 -11 17zM431 608q-2 0 -3 6l-3 10q-1 7 -7 6l-3 -1l6 -24l-9 -2l-16 57l14 4q13 4 17 -9l1 -5q3 -9 -3 -14q7 0 10 -10l2 -9l3 -7zM329 613l21 -38l-7 -4l-29 53l11 6l25 -27
l-17 31l8 4l29 -53l-9 -4zM536 615l-10 1l-1 11l-11 1l-2 -12l-10 1l13 60h14zM411 602l-10 -3l-4 9l-12 -3l3 -12l-9 -3l-11 61l12 5zM488 228q12 0 12 15v39h-8q-17 0 -17 -21v-16q0 -17 13 -17zM522 -21q0 -14 -13 -14h-4v-22h-9v57l13 1q13 0 13 -15v-7zM355 -23l-7 3
l23 52l7 -4l-9 -22l8 -3l11 22l8 -4l-23 -52l-8 4l9 22l-9 4zM492 -21q0 -15 -15 -13h-4l-2 -21l-8 1l5 57l13 -1q14 -2 12 -16zM597 627l-2 -9q-5 -14 -17 -10q-13 1 -11 17l8 31q3 14 17 11t11 -18l-2 -6l-9 3l2 6q1 6 -3 6q-5 1 -6 -3l-8 -32q-1 -7 3 -8q6 0 7 5l2 9z
M558 674q14 -2 11 -18h-8v2q1 7 -4 7q-4 1 -6 -5q-1 -5 1.5 -8t5.5 -7t5.5 -8.5t2.5 -10.5q-3 -16 -17 -14q-14 3 -12 18l1 3l8 -1v-4q-1 -5 4 -7q5 0 6 6q0 4 -2 7.5t-5 7.5t-5.5 8.5t-1.5 10.5q2 16 16 13zM446 646l12 3l1 -9l-12 -3l2 -17l17 3l2 -9l-26 -4l-11 60l26 4
l2 -9l-16 -2zM308 589l11 8l5 -8l-11 -6l10 -16l13 10l5 -7l-21 -15l-35 50l22 15l5 -8l-13 -8zM714 581l10 -8l-5 -7l-10 8l-11 -14l13 -10l-5 -7l-21 16l37 48l20 -16l-5 -7l-13 10zM726 91l11 -27l27 -14l-6 -7l-21 11l10 -21l-7 -5l-11 28l-26 14l7 7l19 -12l-9 20z
M667 46q13 8 19 -5l1 -2l-7 -5l-1 3q-5 4 -7 2q-5 -2 -1 -7q2 -4 6 -5t8.5 -2t9 -3t7.5 -7q6 -12 -5 -18q-10 -7 -18 5l-2 2l8 5l2 -4q1 -4 6 -1q5 0 1 6q-2 4 -6 5t-8.5 2t-8.5 3t-7 7q-8 11 3 19zM401 -6l12 -4l-3 -8l-12 4l-5 -15l15 -5l-3 -8l-23 8l18 54l23 -8l-2 -8
l-15 5zM567 6q12 3 15 -11v-2l-8 -1l-1 2q0 7 -5 5q-4 -2 -3 -7t4 -7t7 -4.5t7.5 -5.5t4.5 -9q3 -13 -11 -16q-12 -3 -15 11l-1 3l8 2l1 -4q1 -5 6 -5q4 2 3 7q-1 4 -4 6.5t-7 5t-7.5 5.5t-4.5 9q-3 13 11 16zM703 40l9 8l5 -7l-9 -8l9 -12l13 8l5 -6l-20 -15l-33 46l19 15
l5 -7l-13 -9zM488 650l12 1v-9l-11 -1l1 -25h-10l-3 61l25 1l1 -9l-16 -1zM778 492l27 33l5 -9l-19 -21l27 9l5 -8l-40 -11l-17 -12l-6 9zM640 4l11 5l3 -7l-11 -5l7 -16l14 6l3 -7l-22 -10l-23 52l22 10l3 -7l-14 -7zM692 627l25 -17l-5 -6l-8 4l-28 -43l-8 5l28 44l-8 5z
M308 42l9 -7l-5 -7l-9 7l-14 -19l-7 6l34 45l19 -14l-5 -6l-12 8zM593 12l26 9l3 -8l-8 -3l15 -46l-8 -3l-16 46l-9 -3zM345 47l24 -14l-4 -6l-9 3l-24 -42l-7 5l24 42l-8 5zM613 661l8 -3l-18 -57l-9 3zM583 9l8 3l15 -55l-9 -2zM750 573l-30 -32l4 -4q3 -4 8 1l21 23
q5 4 1 8zM262 521q5 -4 9 -1q3 4 -2 8l-24 22q-5 5 -8 0q-4 -4 1 -8zM270 49q-3 -4 0 -7q3 -4 8 1l20 23q3 3 0 7q-3 3 -7 -1zM537 -43q1 -4 5 -4t4 5l-3 31q0 7 -5 5q-4 0 -4 -6zM438 -37q-2 -6 3 -6q5 -2 6 5l5 30q1 5 -3 7q-5 0 -5 -5zM764 522l-14 -11l4 -5q3 -4 7 0
l4 4q7 3 2 8zM407 655l5 -18l4 1q5 2 4 8l-2 6q-1 4 -6 4zM505 -8v-19h4q5 0 5 6v8q0 5 -5 5h-4zM476 -6l-2 -19l4 -1q5 0 5 6l1 7q0 6 -4 6zM383 612l9 3l-15 28zM654 600l9 -4l9 29zM515 635h9l-3 31zM784 537l-13 -9l2 -3q5 -5 9 -1l3 2q4 4 1 8z" />
    <glyph glyph-name="cid18376" unicode="&#xdb;" horiz-adv-x="1357" 
d="M1296 292v-4l-3 -6l-1 -1q-8 -5 -16 -11.5t-15 -14.5l-4 -5q-5 -6 -10 -12.5t-10 -13.5q6 -7 9 -17q5 -11 6 -19q4 -2 8 -4.5t9 -6.5t8 -9q3 -3 1 -6q0 -4 -3 -7t-5 -3q-2 -1 -3 -0.5t-3 0.5l-8 4q-4 6 -8 7l-4 -8q-2 -1 -6 -5q-1 -1 -4 -1l4 -4q4 -3 9 -3q10 -3 19 -3h3
l1 -2v-4t-1 -4q-2 -5 -5 -6q-4 -4 -10 -6q-3 -2 -9 -4l-1 -2h-1q-1 0 -2 1q-3 -1 -8 -1q2 -4 4 -6h1v-1q2 -3 4.5 -5t4.5 -4l11 -6q4 -1 7 -2t6 -1l5 -1l-3 -4q-6 -8 -14 -8q-3 -1 -6.5 0t-7.5 2q-15 8 -23 15l-1 1l-1 -1l-2 3l-7 7l-7 12q-2 4 -2.5 8t-1.5 8l-5 -3
q-4 -2 -6 -4t-4.5 -3t-4.5 -3l-9 -4q-2 -2 -3 -4.5t-4 -5.5q-3 -6 -11 -10q-4 -4 -12 -6q-3 -2 -6.5 -2t-7.5 -1q-14 0 -27 3q-6 2 -12 5t-12 5q-6 3 -11 7l-10 8q-4 1 -7.5 4t-6.5 5q0 -6 -2 -10t-4 -7.5t-4 -7.5q7 -10 13 -23q3 -8 5.5 -14t4.5 -14q7 -27 9 -54l4 -2
l-1 -2q16 -10 27 -19q8 -6 15.5 -12.5t14.5 -12.5l26 -27q7 -7 13 -16l3 -4l1 -1q0 -1 0.5 -1t0.5 -2v-1l-3 -3h-1v-1q-3 0 -4 -2l5.5 -5.5t4.5 -6.5l4 -8q0 -2 0.5 -4t1.5 -5v-2l-2 -1q-8 -4 -13 -3q-9 0 -13 6l-9 8l-2 4t-2 5l-5 -2l-3 -1l-1 4q-1 3 -3 6l-4 6q-2 2 -4 5
t-5 5l-10.5 10.5l-10.5 10.5q-11 10 -21.5 20t-21.5 19q-8 6 -9 13v7q1 2 1 3t1 2q-16 15 -29 32q-6 9 -11.5 17.5t-10.5 19.5q-7 -7 -14.5 -12.5t-16.5 -9.5q-18 -11 -39 -17q-23 -7 -43 -8q-9 -1 -18.5 -1h-18.5q3 -8 -1 -20l-8 -9q-4 -3 -10 -6q-4 -10 -12 -20l-3 -3
l1 -2q-3 -2 -5.5 -3t-5.5 -2q-3 -3 -7 -4q-11 -6 -22 -7q-11 -3 -24 -1h-2l-1 2q-2 4 -2 11t4 11q2 2 4.5 3.5t4.5 2.5q6 2 8 2q0 7 4 17q2 1 3.5 3t3.5 4l4 4l-1 2h1l2 1q0 2 3 5l5 7q1 0 1 0.5t1 0.5q-8 -1 -17 -1h-17q-6 0 -12 0.5t-11 1.5q-8 0 -17 3l-1 -2l-3 2
q0 -1 -1 -2l-3 -3q-2 -2 -4 -3.5t-4 -2.5q-8 -5 -19 -10q-7 -6 -15.5 -10.5t-16.5 -8.5q-5 -2 -9.5 -3.5t-9.5 -3.5t-10 -2h-10h-2l-1 2q-4 13 3 21q3 5 6.5 8t7.5 7q7 6 17 9q4 2 8 3.5t7 3.5q3 7 9 12q2 2 4 3t4 3l-4 2q-16 6 -32.5 13.5t-30.5 17.5q-14 11 -27.5 23
t-23.5 27q-21 30 -27 66q-6 35 5 68l-9 4q-1 -8 -2.5 -15.5t-4.5 -13.5q-3 -9 -5.5 -17t-7.5 -15l-19 -29q-5 -7 -10 -13.5t-11 -11.5q6 -13 11.5 -25.5t9.5 -26.5q4 -13 6 -29q0 -4 -0.5 -7.5t-2.5 -8.5t-5 -7q-1 0 -2 -0.5t-2 -0.5q2 -5 3 -9t1 -9q0 -7 -2 -10h3
q0 -6 -6 -10q4 -5 7 -10l6 -10q1 -3 2.5 -6.5t2.5 -7.5v-8q-1 -2 -1.5 -3.5t-3.5 -3.5q-2 -2 -4 -2q-2 -1 -4 0q-3 1 -4 2t-3 2q-3 3 -5 6l-4 6q-3 7 -5.5 13.5t-4.5 11.5q-7 5 -11 12q-6 6 -6 15t5 17q2 4 8 10l-1 1q1 0 3 2q-1 1 -1 4q0 4 -1 7l-5 12l-10 27
q-3 6 -5.5 12.5t-4.5 12.5q-4 11 -1 17q2 6 7 9q-4 3 -9 11q-4 7 -6 18q-1 2 -1 10q0 -1 -0.5 -1t-0.5 -1q-5 -5 -10 -9l-10 -8q-5 -5 -11.5 -8t-11.5 -7q-6 -2 -11.5 -3.5t-11.5 -2.5q0 -2 0.5 -4t0.5 -4q0 -4 -1 -6q0 -1 -2 -3q5 -6 9.5 -11t8.5 -11q9 -15 14 -29l4 -16
t1 -16q0 -16 -9 -28l2 -2l-2 -2q2 -10 1 -17q0 -7 -4 -11q-5 -4 -13 -4l-2 1l-4 4l-4 4q-4 3 -6 11q-2 3 -1 6l2 6q1 2 5 6l-2 1l-3 2l1 2q4 11 1 26q-1 7 -1.5 13t-2.5 13q-3 13 -7.5 25t-9.5 24q-1 -1 -6 -1q-3 0 -7 2t-6 5l-4 6q-15 -15 -32 -22q-18 -11 -39 -17l-22 -4
t-22 -1t-21.5 3.5t-19.5 8.5h-1l-6 3l8 3q-2 0 -1 0.5t1 1.5l2 4v8q1 5 1 9.5v9.5q-32 42 -56 91q-11 26 -19 52.5t-9 54.5q-5 57 21 108q11 26 28.5 47t38.5 40q20 19 43 34t48 27q12 7 24.5 13t25.5 10l26 8q8 2 13.5 3.5t13.5 3.5q28 6 54.5 10.5t54.5 5.5q30 2 55 -4
q7 0 14 -2t13 -4q7 -2 13 -5t12 -8q13 2 29.5 1t30.5 -7q5 -2 9 -4.5t8 -6.5q8 5 13 5q3 1 5 1.5t5 0.5q2 0 4 0.5t4 -0.5q5 0 13 -2l11 -8q2 -3 4.5 -5.5l4.5 -4.5q2 -4 4 -6l11 21l2 14l4 -3l3 5l11 21l1 3q2 2 2 3q4 4 6 5q2 2 4 2l6 -3q2 -4 2 -7q5 -6 2 -16
q-2 -8 -6 -15q-2 -2 -4 -5t-5 -7l5 -1l-12 -6l-3 -6l-10 -10t-10 -11q0 -1 -1 -1l2 -3q-1 -1 -4 -1v-3v-1q0 -2 1 -2q3 -5 3 -12q4 -1 7.5 -2t7.5 -3q9 -3 18 -12q5 -8 7 -20v-6q0 -2 -2 -5q-2 -5 -5 -2q-4 0 -5 1l-3 4h-1q-4 8 -12 16q-6 6 -17 2q-5 -2 -8.5 -5.5
l-7.5 -7.5q-2 -4 -5 -7t-6 -7q9 -9 17 -10q3 -1 5.5 -1.5t5.5 -0.5q4 0 10 2l10 11q4 4 10 3q4 0 5 -2q3 -3 3 -5v-3q-3 -5 -6.5 -9.5t-8.5 -8.5q-8 -10 -22 -10t-23 5q-10 4 -19 13h-1q-1 1 -2 1l-2 -1q-2 -9 -8 -15q-7 -8 -15 -11q-5 -3 -8.5 -4t-8.5 -3l-14 -4v-7
q-1 -7 -5 -12l-5 -7h5.5t6.5 -2q6 -4 8 -9q1 -1 3 -6q23 20 49 36q14 9 28.5 16t28.5 13q15 7 31 10.5t32 5.5q31 6 65 1q32 -4 63 -14.5t59 -24.5q29 -16 54 -35.5t48 -42.5l31 -16l14 -10t14 -11l24 -26q8 -13 15 -29q7 1 15 0q5 0 8 -2t7 -4q3 -3 6.5 -5.5t5.5 -6.5
q3 -2 5 -7q3 8 8.5 15t10.5 15h1l16 14q8 7 19 13h7q2 0 7 -3q0 -2 0.5 -2.5t0.5 -2.5zM951 35q8 3 15.5 7t13.5 9l23 24l21 24q2 7 5 12q2 5 2 9t2 8l1 2q-9 30 -15 59q-2 16 -3.5 31t0.5 32q3 35 17 61q7 14 14 21q-2 2 -6 4q-17 -28 -39.5 -34.5t-42.5 -2.5q-24 4 -48 18
q-21 19 -29.5 35t-9 28.5t3 21t6.5 12.5q-8 2 -16 2.5t-16 1.5q-27 4 -54 3.5t-55 -4.5q-51 -4 -101 -20l-13 -10l1 -2q-6 -6 -15 -17t-18 -22.5t-16 -21.5t-10 -14l1 -1q12 -12 18 -29q5 -14 8 -29t5 -30q8 8 15 4t12.5 -13t9 -19.5t4.5 -16.5q3 -2 6.5 -2.5t6.5 -1.5
q11 -3 21.5 -5.5t21.5 -6.5q5 -1 9.5 -2.5t9.5 -3.5q6 -2 11 -4q2 -2 5 -3q2 0 3 -4q6 -2 12 -3.5t11 -3.5q2 -2 5 -3.5t5 -4.5q3 -2 5 -10q10 -1 18 -7q7 -4 9 -6q4 -4 4 -11q5 -3 6 -7q4 -6 5 -9h4v-3l4 -3q1 7 6 24t21 26q18 8 32 6q12 -2 22.5 -14t12.5 -44
q-7 -21 -18 -33q-10 -11 -25.5 -14.5t-38.5 12.5h-8t-8 1h-2l-1 1l-9 15q-2 1 -4 6l-2 2h-1v1q0 1 -0.5 2t-0.5 2q-7 0 -9 1q-6 2 -7 5q-2 -2 -4 -2q-5 0 -7 2q-3 1 -4.5 3t-3.5 4q-3 4 -5 8l-4 8q-2 -5 -10 -3q-4 1 -7 3t-5 4t-6 7t-7 10h-2v4q-4 -1 -10 1l-10 2l-20 6
l-38 12l-1 1q-8 -19 -18 -24t-18 -3q-10 2 -20 10q-18 23 -19.5 42.5t0.5 25.5q-3 0 -5 4q-5 5 -9 15q-9 16 -12 34v1q-2 -3 -4 -9l-2 1q-7 -31 -1 -63q3 -31 25 -63q9 -14 21 -25.5t26 -21.5q14 -9 29.5 -18t31.5 -16h1l6 -4v2q1 0 11.5 -3.5t30.5 -17.5l-1 -1l14 -3
q5 -2 11 -2h11q11 0 21.5 0.5t21.5 2.5l-1 2q1 0 3.5 1t9.5 3q5 1 13 0q5 0 10 -1l10 -2l-1 -2q9 0 18.5 0.5t18.5 1.5q11 2 20.5 4.5t20.5 5.5q9 3 19 6.5t18 8.5zM223 101q39 11 73 35l5 2l16 11l-3 4q2 2 9 2q37 28 72 63l45 44q6 6 9.5 12.5t5.5 14.5l2 9
q-15 8 -20.5 18t-4.5 19t4.5 17t6.5 11q-2 5 -4 8.5t-4 7.5q-8 14 -15 28.5t-12 29.5q-14 31 -18 63q-1 8 -1.5 16t0.5 16l2 16t4 16q7 10 15.5 17.5t17.5 13.5l8 4q-16 2 -31.5 2.5t-31.5 0.5q-34 -3 -70 -12q-17 -5 -34 -9.5t-34 -11.5q-13 -5 -26.5 -10.5t-26.5 -13.5
q-15 -9 -28 -22l-23 -23t-20 -25q6 -5 18 -20.5t15 -38t-11.5 -50.5t-62.5 -59q7 -39 25 -77q12 -25 26.5 -47.5t30.5 -45.5v-2q0 -5 -0.5 -10t-1.5 -10q0 -5 -1 -9q0 -1 -2 -5v-1q20 -5 35 -5q19 1 41 6zM330 323q-18 -11 -37.5 -13.5t-38 2.5t-35 16.5t-26.5 29.5
q-11 18 -13.5 37.5t2.5 38t16.5 34.5t29.5 27q18 10 37.5 12.5t38 -2.5t34.5 -16.5t27 -29.5q10 -17 12.5 -36.5t-2 -38t-16 -35t-29.5 -26.5zM1158 107l3.5 3.5t3.5 5.5q-11 16 -19 34q-4 10 -6.5 20.5t-3.5 21.5q-2 22 8 41q9 19 30 29q-4 8 -8.5 14.5t-10.5 13.5
q-12 14 -24 23q-11 11 -26 21l-28 20h-1q-6 -3 -10.5 -8t-9.5 -10t-9.5 -11.5t-8.5 -13.5q-13 -28 -14 -60q-2 -16 -1 -30.5t3 -30.5q2 -14 4.5 -28t6.5 -28l1 -4q11 -7 21.5 -13t21.5 -11q6 -2 11.5 -4t11.5 -4t11 -3t11 -1t12 3q6 2 10 4zM617 608q-12 5 -28.5 6t-30.5 -1
h-1l-2 1l-1 1h-20t-20 -1t-21.5 -2.5t-20.5 -4.5q-11 -4 -20.5 -8t-18.5 -10q-9 -5 -17 -12.5t-14 -15.5q-7 -13 -7 -30q-1 -8 -0.5 -15.5t1.5 -15.5q2 -16 7 -31t11 -30q10 -30 27 -57q0 -1 2 -3q4 -2 7.5 -3t8.5 -2q9 -3 19 -3q19 -2 35 11q-20 11 -35 30q-4 4 -7 9.5
t-5 10.5q-3 15 1 25q5 11 14 20q10 9 21 15q10 6 21 9.5t22 7.5l-3 8q-3 7 -1 16q2 5 4.5 9t4.5 7q6 6 11.5 11t13.5 10q16 10 28 15q8 3 14.5 6.5t14.5 5.5q-6 7 -15 11zM733 450q-44 -18 -82 -43q21 8 43.5 12.5t45.5 7.5q53 7 112 1q56 -6 107 -30q49 -22 90 -61
q12 12 25 20q-23 21 -48 39t-51 32q-29 15 -58.5 25t-60.5 14q-62 6 -123 -17zM599 423q6 7 4 17l-2 5l-6 12l-9 13l-11 8q-4 3 -14 7q-4 3 -7 7t-5 8l-3 6q-11 -5 -21.5 -9t-20.5 -9q-11 -6 -19 -13.5t-13 -18.5q-4 -10 0 -22q1 -6 4 -11t6 -9q7 -9 16 -17t18 -14
q19 2 35 6q3 0 6 1t7 3q1 1 3 1l14 7l7 6q3 5 6 8t5 8zM766 342q24 6 45.5 -5t27.5 -31q5 -23 -8 -42.5t-38 -26.5q-25 -6 -46 4.5t-26 33.5q-6 22 7 41t38 26zM703 564q1 0 1 1l-2 2q-2 0 -2 2q-5 -5 -15 -5q-9 1 -20 6q-5 3 -9 5.5t-9 6.5q-3 2 -6.5 5t-6.5 8l-14 -7
t-14 -6q-8 -4 -14.5 -8t-13.5 -8q-7 -5 -13 -9.5t-11 -11.5q-2 -2 -4.5 -5.5t-2.5 -7.5q-3 -7 0 -13v-1q1 -8 6 -18l8 -11q3 11 10 18q9 12 19 15q12 4 25 1q5 -2 10.5 -3.5t10.5 -4.5h1l4 2l-1 -2h1l2 2h1q1 1 4 1h1q3 0 5.5 -0.5t5.5 -1.5l17 -3h1q2 -4 1 -7q0 -2 -5 -4
q-2 -2 -4 -2t-4 -2l-11 -3h-4q1 -14 -8 -23q-5 -5 -10.5 -7.5t-10.5 -5.5q-5 -2 -9.5 -3t-9.5 -2q0 -5 2 -9q19 2 33 10q4 2 7 4.5t6 4.5q2 4 4 7t2 7l1 2l1 1q1 1 3 1q0 5 5 12l4 2t7 0l11 14q4 6 13 11q-2 3 -2 7q-1 3 -0.5 5t0.5 5q3 7 6 7h1v4l-2 6q-1 1 -1 2l-1 1v6z
M221 272q24 6 44 -3.5t25 -29.5t-8 -38t-36 -25q-24 -6 -44.5 4t-25.5 30t8.5 37.5t36.5 24.5zM500 222q4 7 6 14.5t4 15.5l1 1q-2 7 -3 14t-3 13q-2 4 -3 7t-3 6q-2 2 -4 4.5t-5 3.5q-7 -1 -13.5 -2t-14.5 -1q0 -3 -0.5 -5.5t-1.5 -5.5q-3 -14 -15 -28q-4 -4 -8 -7t-8 -8
q3 -2 5 -7q2 -6 1 -13q-1 -3 -1 -6t-2 -7q-2 -3 -2.5 -6t-1.5 -5q-1 -3 -2 -4l-3 1q0 -2 -1 -3q0 -2 -0.5 -5t-0.5 -7q-2 -8 0 -15q0 -10 4 -15q4 -8 9 -12v2q0 -1 2 -1q1 -1 2.5 -1t3.5 -1q4 -1 7 -1h2l-2 -1l1 -2l19 28q5 7 8.5 14l7.5 15q4 7 8 14.5t7 15.5zM1245 190
q-2 6 -6 15q-1 4 -3 8l-4 8l-1 -3q-5 0 -8 7q-3 6 -3 9h2q-4 5 -9 9q-4 6 -11 9q-2 2 -5 3t-6 3l-14 3h-1v-1q-8 -7 -14 -14t-10 -16q-8 -16 -8 -38q1 -7 2 -13.5t3 -13.5q2 2 4.5 5t4.5 5q4 4 8.5 7t9.5 5q11 5 23 -2q8 -6 13 -17l1 -1v-5l2 -1l3 -4l2 -2q1 1 6 1
q1 -1 4 -1h2l1 1q3 2 5 5q5 3 5 9v1l-5 -1q-1 6 0.5 13t1.5 8zM463 302q9 2 17.5 3.5t17.5 3.5l19 6q5 2 9 3.5t9 4.5q6 2 11 8q4 3 9 11q4 6 7 13t5 13l3 7l-4 1l-1 1q-2 2 -3 4l-3 3q-2 0 -6 -2q-5 0 -9.5 -0.5t-9.5 -1.5q-9 -2 -18 0q-9 -9 -17 -11q-11 -3 -21 -3t-20 3
q-4 1 -6.5 2t-5.5 3q5 -13 9.5 -26t6.5 -27q1 -5 1 -10v-9zM244 583q-7 -4 -13 -7t-13 -8l40 16t44 15q35 11 70 12q17 0 35.5 -1t34.5 -8q12 7 28 10l22 4t22 3q16 1 33 0q-3 2 -7 3.5t-7 3.5q-7 2 -13.5 3.5t-13.5 3.5q-13 2 -26.5 2.5t-27.5 0.5q-27 -2 -53.5 -6
t-53.5 -10q-12 -3 -25 -6.5t-27 -8.5q-13 -5 -25.5 -10.5t-23.5 -11.5zM594 220q-2 16 -4.5 31.5t-7.5 29.5q-3 7 -7.5 13.5t-9.5 11.5q-4 5 -9.5 9t-12.5 4l-5 -3l-5 -2q3 -26 9 -55h1q-1 0 -1 -1l3 -9q3 -17 10 -33l8 -16q2 -1 3 -2.5t3 -2.5q1 -1 2 -1q1 1 1 6
q5 11 11 16q4 2 11 2v2zM1047 42q-2 7 -4 13.5t-6 12.5q-2 7 -4.5 12.5t-7.5 10.5l-3 -5l-15 -16q-6 -8 -15 -15q2 -5 5.5 -10t6.5 -10q4 -9 12 -18q6 -8 12.5 -15.5t12.5 -15.5q2 1 3.5 2t3.5 2t4 1h4q-2 26 -9 51zM730 143l-4 3q-5 3 -10 3q-5 2 -10.5 4t-10.5 3
q-11 4 -21 6.5t-21 4.5q-10 3 -20 5.5t-21 7.5q-7 2 -10 7q-5 7 -5 11l-3 8q-3 1 -5 -1q-3 -2 -4.5 -6.5t-2.5 -6.5h-4q5 -9 13 -15t16 -11t17 -9.5t19 -8.5q9 -5 18.5 -7.5t19.5 -4.5l19 -6l10 -2q6 -2 10 -4l6 6q3 3 3 13h1zM1044 344q-26 26 -53.5 42t-50.5 24
q-26 10 -52 13q23 5 42.5 5t33.5 -3q16 -4 29 -10q14 -7 24 -19t16 -23q7 -14 11 -29zM402 181q5 5 9 9.5t7 9.5l-2 1q1 1 2 4q1 2 3 10q5 13 2 18l-2 3q-5 -6 -11 -11.5t-12 -10.5q-17 -16 -34.5 -31t-35.5 -29q3 -1 7 -5q3 -2 4 -3.5t3 -3.5l20 10q5 3 10.5 6.5t10.5 7.5
q6 3 10 6.5t9 8.5zM1073 -30q-3 2 -6 4.5t-5 4.5l-1 -1q-3 1 -10 1q-1 -1 -1.5 -1t-1.5 -1t-2 -1l-1 1q-1 -1 -1 -4q0 -2 1 -3q1 -2 2.5 -3.5l3.5 -3.5h1q12 -10 22.5 -19.5t21.5 -20.5q6 -5 11 -10t10 -12q2 -3 4 -6.5t4 -5.5q2 -3 3.5 -6t2.5 -6l1 1l-1 1l2 2q1 1 2 1.5
t3 2.5q3 1 6.5 2t8.5 0l3 4l-1 1q-6 6 -12 14l-28 26q-7 7 -14 13t-13 13q-4 3 -7.5 6.5t-7.5 5.5zM475 51q0 6 -1.5 12.5t-3.5 14.5q-4 12 -8.5 24.5t-9.5 23.5h-1q-1 0 -3 1l-8 2q-4 1 -6.5 2t-3.5 1q-3 -3 -4 -7q-2 -4 0 -11q7 -14 11 -26q2 -6 5 -12.5t5 -14.5l5 -12
q0 -6 1 -7v-4h6l8 -3l3 -3q4 2 5 7.5t0 11.5zM365 65q-5 14 -13.5 27t-16.5 25l-2 2l-1 -4q-6 2 -5 2q5 -11 9 -23t6 -25q4 -14 6 -27q1 -7 1.5 -13t-1.5 -13l4 -3v2l6 -2q2 0 4 -0.5t3 1.5l1 -1q2 5 3 11t1 12q0 8 -1.5 14.5t-3.5 14.5zM618 392q-3 8 -9 11q-4 2 -6 2
l-18 -16l-7 -10q0 -5 -1 -7l-4 2q-2 -6 -2 -7l-11 -28l-9 -13l-4 -3q8 -2 13 -4q2 4 8 11.5t14 18.5q11 15 20.5 26t15.5 17zM640 -31q7 2 14 6.5t14 9.5q-2 9 -7 12q-2 1 -5 1h-3l-1 4q-8 -3 -16 -7t-15 -9q-8 -5 -12 -13q-5 -5 -3 -13q4 0 8 1l8 2zM801 -51q9 9 10 18
q0 6 -6 9q-5 4 -19 2l-12 -4l-1 2q0 -1 -0.5 -1t-0.5 -1q-4 -3 -5 -6q-3 -5 -5 -14l1 1l3 -3q4 -4 7 -5q10 -6 25 2v-2q1 0 3 2zM528 250q1 4 2.5 8t2.5 6l1 -1q-2 12 -3 24.5t-2 24.5l-10 -3q-5 -2 -9.5 -2.5t-9.5 -2.5q-1 -1 -3 -1l7 -6q2 -3 3.5 -7t3.5 -8t4 -14v-13z
M755 110q3 10 15 14q-3 3 -3 4l-10 7q-7 3 -16 5q0 -12 -9 -19q-2 -2 -3.5 -3t-3.5 -1q4 -9 11 -14q5 -5 11 -6q5 -2 9 2h-4q0 3 3 11zM467 0q2 3 2 9q0 9 -4 14h-1q-4 4 -6 4q-4 0 -6 -2l-2 3q-2 -2 -3 -4t-3 -4q-4 -5 -4 -14q0 -10 11 -19l7 5l6 6q1 1 1 2h2zM790 110
q-4 2 -8 3.5t-9 3.5l1 -4q-3 -2 -5 -3t-4 -5l-2 -4v-2h-4q2 -5 5 -8.5t6 -7.5q2 -3 5.5 -6t6.5 -1l-3 1q0 1 1 3q2 4 4 7q1 3 3 5l4 4t8 4q-1 2 -1 4zM830 -16q1 4 1.5 7.5t-1.5 8.5q-9 2 -14.5 2t-10.5 -1q-2 0 -3 -0.5t-2 -0.5h-2l-2 1q-7 -3 -11 -9q-1 0 -3 -4q1 1 2 1
q18 4 27 -3q5 -4 7 -7q2 -4 2 -7l3 3q2 2 3.5 4t3.5 5zM819 74q0 -3 -2 -5q-3 -4 -10 -6h-1q0 -1 1 -1q4 -4 4 -7q3 -2 5.5 -4.5l5.5 -5.5q5 -1 10 -1.5t9 0.5h5h1v1l1 2l-3 3q-4 4 -7 7.5t-8 6.5zM698 2q0 2 1 2.5t1 1.5q-8 5 -12.5 7.5t-8.5 4.5t-7 2v2q-2 -2 -4.5 -3.5
t-5.5 -3.5l-5 -6q5 0 10 -3q4 -3 7 -7l4 -7zM710 472q-6 0 -12 2q-11 3 -21 13v-2q-3 0 -3 -1q-2 -2 -2 -4v-1l19 -11q12 -5 19 -5q12 2 19 9q6 4 12 15q0 1 -2 1q-4 0 -5 -1q-3 -2 -5 -5t-4 -7h-2q-6 -3 -13 -3zM727 613l11 -7l9 12q4 6 5.5 13t-1.5 12v1l-3 3q-1 0 -4 -3
l-2 -2l-1 -3l-12 -20zM482 -46l-2 6t-2 7q-2 4 -5 8.5t-7 8.5h-1q-3 -5 -6 -5q-1 0 -1 -0.5t-1 -0.5q2 -5 4.5 -10t4.5 -10q4 -8 7 -11t5 -3h2v1q2 0 2 3v6zM310 124q2 -2 6 -2q2 4 4 6q3 3 7 1q2 0 10 -4l-1 -2h2q0 1 1 1v4q0 2 -2 8l-1 -2l-2 2q-1 1 -2 1.5t-3 2.5t-3 2
t-2 1h-3l-2 4q-5 -4 -8.5 -6.5t-8.5 -5.5v-1q3 -7 8 -10zM1210 115q1 -2 2 -3.5t2 -3.5q2 3 11 3q-6 9 -6 18v2l-2 3q-2 1 -2 2t-1 2l-1 1l-1 1v2q-2 2 0 6q0 1 0.5 1.5t0.5 2.5v1q-1 2 -2 2q0 -1 -1 -1q-1 -1 -1.5 -1t-1.5 -1q0 -2 -2 -4h-1v-8q2 -14 6 -25zM741 524
q-7 7 -13 10q-4 2 -8 2.5t-8 1.5l-2 -5q0 -5 2 -7h6q10 0 11 -5q5 -4 9 -8t6 -10q2 -2 3 -2v6q0 9 -6 17zM642 503l-2 4t-3 5q-2 -2 -5 -4t-5 -5q-8 -5 -5 -10q2 -5 12 -5q7 0 11 7l1 1zM776 -66q-6 2 -9 4q-10 6 -12 10q-6 -1 -11 -5q-4 -5 -2 -13q12 -2 20 1zM365 -12v7
t-1 6h-3q-3 0 -5 1l-8 2l-4.5 -4.5t-0.5 -6.5q3 -7 14 -11q3 0 4 1zM1163 -132q-2 3 -3.5 5t-3.5 4l-1 -2q-8 2 -11 -1q-1 -1 -2 -1t-1 -1l3 -6q2 -5 6 -7q3 -2 5 -3t5 -1q2 -1 8 1q0 2 -0.5 3t-0.5 2q-2 2 -2.5 3.5t-1.5 3.5zM1289 290q1 2 0 2l-2 2h-4l-17 -12l-10 -8
q1 -2 1 -4t2 -3h1v-4q15 15 28 24v1q0 1 0.5 1t0.5 1zM804 92l1 -2q-5 -1 -12 -8q-2 -2 -2 -3.5t-1 -2.5l-1 -2h-3q5 -4 15 -4v4h4l4 2q1 1 1 3l2 1q0 3 -2 7zM1264 172q-3 2 -6 4.5t-7 4.5q-1 -3 -1 -8h-1v-1q3 -4 11 -10q2 -1 3 -2t3 -1q1 -1 3 -1q0 1 1 1v2q2 1 1 5z
M657 499q3 1 8 1q2 2 4 2.5t4 2.5q4 2 2 5q-3 1 -6.5 2t-8.5 1q-7 0 -9 1q0 -1 2 -5q4 -9 4 -10zM1250 250q-2 2 -3.5 4t-2.5 4q0 1 -1 1q-4 -6 -8 -11.5t-6 -12.5h3v-5zM1263 133q-5 1 -9 1.5t-9 2.5h-1l2 -3l-5 -4l6 -7l-1 -2q2 1 3 1t2 1q3 1 5 2t4 3q3 3 3 5zM1244 90
q-6 2 -7 5v-2h-9q8 -7 20 -12q7 -2 10 -1q5 0 5 1q-4 2 -7 2q-3 2 -6 3t-6 4zM707 577h1q2 0 2 -2l17 18l-7 4l-1 1zM686 595q-7 5 -13 6.5t-14 1.5q-2 0 -4 -0.5t-3 -0.5h-1l-3 -3q10 3 23 0.5t27 -20.5v4q-3 3 -5.5 6t-6.5 6zM585 399q-5 -7 -15 -10l1 -1q1 -1 5 -6
q2 4 8 8q3 4 5.5 7.5t7.5 6.5q-1 0 -7 -2zM568 493q4 5 12.5 13.5t22.5 10.5q1 1 1 3q-3 0 -6 -0.5t-7 -1.5q-12 -7 -19 -17q-2 -2 -2.5 -4t-1.5 -4zM602 463q-4 6 -11 15.5t-23 9.5q4 -1 10 -5q5 -2 8 -4.5t5 -4.5q4 -5 9 -12zM1159 169q-1 -2 -2 -3t-1 -3q5 3 9 6t6 5t2 3
t1 3l-6 -4l-6 -4zM1206 160q1 0 1 1q-1 5 -3.5 9.5t-4.5 7.5l-3 2h-2q-1 0 -1 -1v-2q5 -3 8 -8.5t5 -8.5zM1228 144l-2 1h-3v-1q0 -2 2 -2q1 -3 2 -3l4 3l-3 3v-1zM629 512l-1 -1q1 0 3 2l-13 4v-1zM1235 118q-2 0 -2 1t-1 2q0 -3 1 -4q1 0 2 1zM1219 102q1 0 1 -1q2 2 3 2
v1zM327 119q1 1 1 3l-2 -1q0 -1 0.5 -1.5t0.5 -1.5v1z" />
    <glyph glyph-name="cid18377" unicode="&#xdc;" horiz-adv-x="1592" 
d="M135 468q-9 0 -15 -3q-5 -2 -9.5 -8.5t-4.5 -17.5v-55q0 -14 7.5 -21t21.5 -9q44 -7 65 -24t21 -54v-63q0 -19 -9 -32h46q-7 15 -7 35v307h57v-307q0 -14 6 -21.5t22 -7.5q28 0 28 28v308h56v-308q0 -29 29 -29q27 0 27 28v309h57v-310q0 -9 -1 -16.5t-4 -15.5h43
q-2 8 -3.5 16t-1.5 17v139q0 39 22 62t63 23h27q1 16 -7.5 22t-20.5 6h-54v57h57q39 0 60.5 -19t21.5 -63v-229q0 -16 -6 -31h124q27 0 27 28h-28q-36 0 -60 19.5t-24 66.5v143q0 35 22 60t63 25q42 0 63 -25.5t21 -63.5v-225q0 -16 -6 -28h122q12 0 20 7t8 21h-28
q-36 0 -60 20.5t-24 65.5v139q0 38 22 63.5t65 25.5q42 0 61.5 -25.5t19.5 -63.5v-226q0 -38 -22 -61t-62 -23h-1003v146h56v-58q0 -27 29 -27q28 0 28 27v55q0 13 -5.5 20t-22.5 10q-42 7 -63.5 23.5t-21.5 62.5v57q0 38 24.5 60.5t62.5 22.5t61 -24.5t23 -60.5v-56h-59v57
q0 11 -4.5 16.5t-9.5 8.5q-6 4 -13 4zM1257 523q44 0 64 -25.5t20 -63.5l-1 -140q0 -43 -22 -64t-63 -21h-28q0 -16 7 -22t20 -6h57v-57h-63q-35 0 -56 19t-21 65v226q0 38 22 63.5t64 25.5zM1485 434q0 17 -9 25.5t-20 8.5t-20 -8.5t-9 -24.5v-311h-56v311q0 38 22.5 63
t64.5 25q21 0 36.5 -7.5t26 -20t16 -28.5t5.5 -33v-56h-57v56zM1284 435q0 16 -9 24t-19.5 8t-19.5 -8t-9 -24v-170h28q14 0 21.5 6t7.5 23v141zM880 437q0 16 -9 24t-19.5 8t-19 -8t-8.5 -23v-143q0 -17 7.5 -23.5t21.5 -6.5h27v172zM1081 434q0 17 -9 25.5t-19.5 8.5
t-19 -8.5t-8.5 -25.5v-139q0 -17 7 -23.5t22 -6.5h27v169zM650 184q28 0 28 30v168h-28q-28 0 -28 -30v-139q0 -13 7 -21t21 -8zM101 -31l15 101h32v-142h-22v102l-15 -102h-21l-17 101v-101h-20v142h31zM1469 70h35q34 0 34 -35v-72q0 -35 -34 -35h-35v142zM1200 32
q0 -20 -14 -28q16 -7 16 -31v-12q0 -33 -34 -33h-35v142h34q33 0 33 -32v-6zM1262 -72q-1 3 -1.5 6t-0.5 11v23q0 18 -15 18h-8v-58h-23v142h35q33 0 33 -32v-11q0 -22 -14 -30q15 -7 15 -30v-22q0 -12 2 -17h-23zM259 31v-103h-20v142h28l23 -85v85h20v-142h-23zM1401 31
v-103h-19v142h27l24 -85v85h20v-142h-24zM1371 -72h-23l-3 26h-28l-4 -26h-21l23 142h33zM756 72q32 0 32 -36v-5h-21v7q0 14 -11 14q-12 0 -12 -14q0 -11 7 -18.5t15.5 -15t15.5 -17.5t7 -25q0 -36 -34 -36t-34 36v9h21v-11q0 -13 13 -13q11 0 11 13q0 11 -7 18.5t-15 15
t-15 17.5t-7 25q0 36 34 36zM394 72q33 0 33 -36v-5h-21v7q0 14 -11 14q-12 0 -12 -14q0 -11 7 -18.5t15 -15t15 -17.5t7 -25q0 -36 -33 -36t-33 36v9h20v-11q0 -13 12 -13t12 13q0 11 -7 18.5t-15 15t-15 17.5t-7 25q0 36 33 36zM1048 11h32v-21h-32v-42h39v-20h-62v142h62
v-20h-39v-39zM673 11h31v-21h-31v-42h39v-20h-62v142h62v-20h-39v-39zM187 11h30v-21h-30v-42h39v-20h-62v142h62v-20h-39v-39zM898 -25l-28 95h23l18 -64l17 64h22l-29 -95v-47h-23v47zM603 7h29v-20h-29v-59h-23v142h60v-20h-37v-43zM796 70h70v-20h-24v-122h-23v122h-23
v20zM956 70h23v-122h37v-20h-60v142zM472 70h22v-122h38v-20h-60v142zM541 70h23v-142h-23v142zM1491 50v-102h13q11 0 11 14v74q0 14 -11 14h-13zM1156 -8v-44h12q12 0 12 14v12q0 11 -3.5 14.5t-11.5 3.5h-9zM1237 50v-43h9q6 0 10 3t4 12v13q0 15 -11 15h-12zM1320 -27
h22l-12 73zM1156 50v-38h8q13 0 13 16v7q0 15 -11 15h-10zM326 49v21h22v-19l-9 -22h-10l6 20h-9z" />
    <glyph glyph-name="cid18378" unicode="&#xdd;" horiz-adv-x="1592" 
d="M135 468q-9 0 -15 -3q-5 -2 -9.5 -8.5t-4.5 -17.5v-55q0 -14 7.5 -21t21.5 -9q44 -7 65 -24t21 -54v-63q0 -19 -9 -32h46q-7 15 -7 35v307h57v-307q0 -14 6 -21.5t22 -7.5q28 0 28 28v308h56v-308q0 -29 29 -29q27 0 27 28v309h57v-310q0 -9 -1 -16.5t-4 -15.5h43
q-2 8 -3.5 16t-1.5 17v139q0 39 22 62t63 23h27q1 16 -7.5 22t-20.5 6h-54v57h57q39 0 60.5 -19t21.5 -63v-229q0 -16 -6 -31h124q27 0 27 28h-28q-36 0 -60 19.5t-24 66.5v143q0 35 22 60t63 25q42 0 63 -25.5t21 -63.5v-225q0 -16 -6 -28h122q12 0 20 7t8 21h-28
q-36 0 -60 20.5t-24 65.5v139q0 38 22 63.5t65 25.5q42 0 61.5 -25.5t19.5 -63.5v-226q0 -38 -22 -61t-62 -23h-1003v146h56v-58q0 -27 29 -27q28 0 28 27v55q0 13 -5.5 20t-22.5 10q-42 7 -63.5 23.5t-21.5 62.5v57q0 38 24.5 60.5t62.5 22.5t61 -24.5t23 -60.5v-56h-59v57
q0 11 -4.5 16.5t-9.5 8.5q-6 4 -13 4zM650 184q28 0 28 30v168h-28q-28 0 -28 -30v-139q0 -13 7 -21t21 -8zM880 437q0 16 -9 24t-19.5 8t-19 -8t-8.5 -23v-143q0 -17 7.5 -23.5t21.5 -6.5h27v172zM1081 434q0 17 -9 25.5t-19.5 8.5t-19 -8.5t-8.5 -25.5v-139q0 -17 7 -23.5
t22 -6.5h27v169zM1257 523q44 0 64 -25.5t20 -63.5l-1 -140q0 -43 -22 -64t-63 -21h-28q0 -16 7 -22t20 -6h57v-57h-63q-35 0 -56 19t-21 65v226q0 38 22 63.5t64 25.5zM1284 435q0 16 -9 24t-19.5 8t-19.5 -8t-9 -24v-170h28q14 0 21.5 6t7.5 23v141zM1485 434
q0 17 -9 25.5t-20 8.5t-20 -8.5t-9 -24.5v-311h-56v311q0 38 22.5 63t64.5 25q21 0 36.5 -7.5t26 -20t16 -28.5t5.5 -33v-56h-57v56z" />
    <glyph glyph-name="cid676" unicode="&#xde;" horiz-adv-x="429" 
d="M47 0v703h120v-95h15q45 0 81.5 -11t63 -32.5t41 -54t14.5 -74.5v-181q0 -42 -14.5 -74t-41 -54t-63 -33t-81.5 -11h-15v-83h-120zM167 505v-313h15q36 0 58 17.5t22 64.5v148q0 48 -22 65.5t-58 17.5h-15z" />
    <glyph glyph-name="cid768" unicode="&#xdf;" horiz-adv-x="419" 
d="M151 598v-201h42q30 0 47 21t17 64v42q0 74 -55 74h-51zM183 39h12q35 0 53.5 15t18.5 57v91q0 45 -16 65.5t-52 20.5h-48v-285h-120v704h181q86 0 125 -42.5t39 -124.5v-51q0 -57 -17 -89.5t-51 -50.5q44 -17 61.5 -51.5t17.5 -90.5v-113q0 -90 -46 -127t-137 -37h-21
v109z" />
    <glyph glyph-name="cid18379" unicode="&#xe0;" horiz-adv-x="1124" 
d="M990 419q27 -5 47.5 -19t29.5 -32t5.5 -39t-23.5 -40q33 -62 -36 -129l-14 -12t-40.5 -30t-65.5 -39t-88.5 -38.5t-110 -29.5t-129.5 -12q-50 0 -105 10t-108.5 29.5t-102 47t-85.5 63.5q-20 19 -42 42.5t-39 49.5t-26.5 55t-4.5 60q7 44 32.5 73t54.5 40q20 8 54.5 6
t87.5 -22q25 -9 64.5 -12.5t87 -2.5t98.5 4.5t98.5 8.5t87.5 10.5t65 9.5q30 5 64.5 6t63.5 -15h1q8 4 22.5 4.5t34.5 -18.5q11 -11 22 -29zM1004 167q22 22 31.5 41t11.5 34t-1 25t-7 15q-5 0 -7 2q-1 1 -12.5 13.5t-36 23t-62 13.5t-89.5 -15q-20 -5 -38.5 -9.5
t-49.5 -10.5q-29 -5 -55.5 -8t-47.5 -5q-11 -1 -28.5 -2t-37 -1.5t-40 0t-37.5 1.5q-26 2 -40 5t-24 5q-23 6 -48.5 13.5t-53 12t-56 4t-55.5 -12.5q-24 -10 -39.5 -32t-18.5 -42q-2 -11 1 -36.5t29 -59.5q1 -2 1 -5q38 -31 80.5 -52t83.5 -35.5t78.5 -22.5t66 -11.5
t45.5 -4.5l17 -1q69 1 128 13t107.5 29.5t86.5 37.5t63.5 37.5t39 29t14.5 11.5zM959 440q-13 11 -23 13t-15 1q0 -5 -6 -5q-17 -8 -19 -21t0 -15q7 -8 9 -17.5t0.5 -18t-5 -15t-7.5 -8.5q-11 -5 -21 -1.5t-18.5 11t-15.5 17t-11 16.5q-8 13 -18.5 19t-20.5 8t-17 1.5
l-7 -0.5q-26 -4 -38 -21q-5 -8 -6 -17.5t0 -17.5q1 -10 4 -18q2 -9 0.5 -14t-4.5 -10q-6 -6 -15 -8q-4 -1 -8 -1h-3q-11 0 -21 7.5t-18 16.5t-13 17t-6 10q-11 16 -32 24t-46 9q-14 1 -22.5 -1t-14.5 -7q-11 -9 -12.5 -20.5t-1.5 -13.5q0 -12 -7 -21t-17 -13q-8 -3 -19 -0.5
t-18 8.5q-15 15 -25 34.5t-30 36.5q-18 16 -40 13t-28 -18q-3 -7 -1.5 -22t10.5 -34q3 -5 -2 -10q9 -3 18.5 -4t17.5 -3q1 2 2 8t-1 13q-2 5 -4 8.5t-4 8.5q-5 8 -8 13.5t2 10.5q3 5 8 3q1 -2 2 -5t-1 -5q2 -2 3.5 -5.5t3.5 -6.5l3 -6q5 -1 15 -6t16 -17q7 -11 16.5 -21.5
t12.5 -12.5q16 -4 32.5 -6.5t32.5 -3.5h11t10 1q4 2 7.5 8.5t5.5 11.5l2 4q0 1 -0.5 7t-4.5 14q-3 7 -1 13q3 8 9 12t7 5q2 0 4.5 -0.5t3.5 -3.5q4 -2 1.5 -4t-4.5 -4l-6 -4t-4 -5q-2 0 0 -2q0 -2 0.5 -3.5t0.5 -2.5q9 6 28 10t43 -11q0 9 -6 11q-2 2 -2.5 4t1.5 6
q1 2 3 2.5t4 -1.5q6 -5 8 -9.5t3 -10.5v-1h2v-9v-9.5t2 -9.5q5 -12 9.5 -15t6.5 -3q28 3 53 6.5t48 7.5q9 8 10 14.5t1 7.5v1l1 1q0 2 -2.5 9t-7.5 13l-1 1q-5 11 0.5 20.5t10.5 12.5q9 2 10 -3q3 -7 -1 -9l-6 -6q6 4 12.5 6t17.5 2q-3 5 -1 7q2 7 7 4q9 -2 14 -7.5t8 -11.5
q2 -2 2 -4q3 -4 4 -8.5t2 -9.5q1 -10 9 -13.5t10 -3.5q22 6 45.5 9t47.5 0q2 3 2.5 13t-2.5 19v26q2 5 3.5 8.5t4.5 5.5q9 4 17.5 -1t10.5 -6q3 -3 0 -9q-4 -2 -7 0q-2 2 -7 4.5t-9 0.5q7 -2 12.5 -9.5t7.5 -11.5q11 -29 23 -27q5 1 6.5 4t1.5 6q3 10 -6 22.5t-14 17.5
q-2 1 -2 3.5t2 3.5q-5 7 -9.5 14t-10.5 12zM783 458q-32 -5 -81.5 -11t-106 -11t-115 -7.5t-107.5 0.5q6 -2 13 -6t13 -9q8 -6 13 -12.5t10 -12.5q4 -2 13.5 -3.5t20.5 -3.5t21.5 -4t18.5 -3q3 15 18 28q9 8 25.5 10t35 -1t35.5 -10.5t28 -17.5q16 1 38 2.5t31 1.5
q1 6 3 11.5t5 11.5q8 12 24 22v1q-2 4 4 8q30 9 55 11t44 0.5t31.5 -4.5t18.5 -5q2 4 10 10q-28 10 -56.5 10t-62.5 -6zM143 419q-34 -17 -45.5 -43.5t-3.5 -52.5q8 -28 23 -43.5t35 -31.5q10 32 31 52.5t41 25.5q-2 3 -4 17q-1 6 -2 11t-3 13q-7 17 -15.5 24t-11.5 8
q-9 -2 -18 0q-11 2 -18 8t-9 12zM65 349q-5 -24 2.5 -48t21.5 -47.5t34 -46t41 -43.5q-14 24 -15.5 42t-0.5 29q-22 16 -34.5 30t-19.5 26.5t-9.5 23.5t-3.5 22q-2 22 5.5 39t18 29t21.5 19t15 10q6 13 16.5 18.5t23.5 5.5t26.5 -5t25.5 -14q16 -8 39.5 -15.5t42.5 -10.5
q14 14 33 17q-22 2 -40 5t-30 8q-39 16 -74 20t-58 -5q-32 -11 -53.5 -41.5t-27.5 -67.5zM1037 297q21 13 24.5 30t-4.5 33.5t-25 29.5t-38 17q8 -7 13.5 -18t4.5 -22q0 -8 -7 -16.5t-16 -6.5q-18 3 -33 35q-2 5 -4 8.5t-5 6.5q1 -4 1 -7.5v-6.5q0 -5 0.5 -17t-1.5 -20
q39 -7 61 -22.5t29 -23.5zM235 329q8 3 14.5 4t12.5 2q-6 12 -9.5 26.5t-4.5 22.5q-1 10 -4 18t-6 13q-4 6 -9 10q-11 9 -28 17.5t-37 -1.5q-13 -6 -10 -18q4 -7 19 -12h21t26 -6q5 -3 2 -8q-4 -6 -7 -3q0 -2 5.5 -11.5t7.5 -13.5q1 -8 2 -13.5t3 -10.5q1 -5 1.5 -8.5
t0.5 -7.5zM278 336q9 2 17.5 1t19.5 -2q2 0 3.5 2t0.5 4q-3 8 -8.5 26.5t-0.5 32.5q-12 3 -28.5 8.5l-31.5 10.5q3 -6 5.5 -14.5t4.5 -19.5q2 -15 7.5 -30t10.5 -19zM540 312q-2 -4 -4 -9t-5 -9q24 -1 46 0t46 3q-4 2 -7 11q-5 13 -5 19q-12 10 -23 13t-20 2t-15.5 -4
t-9.5 -5q2 -13 -1 -17q-1 -1 -1 -2q-1 -1 -1 -2zM884 414q-4 9 3 21q-11 3 -39.5 7t-70.5 -4q12 -1 28.5 -7.5t30.5 -26.5q5 0 18.5 2.5t29.5 7.5zM598 158q9 -5 12.5 -15t-1.5 -21q-2 -5 -7 -9t-15 -4q-7 0 -14 3.5t-11.5 9t-5.5 12.5t4 15q4 6 9 9.5t14 3.5q5 0 15 -4z
M700 163q9 -5 12.5 -15t-1.5 -21q-2 -5 -7 -8.5t-15 -4.5q-6 0 -13 3t-11.5 8.5t-6 13t3.5 15.5q4 6 9 9.5t14 3.5q7 0 15 -4zM759 358q4 -5 6.5 -12.5t0.5 -12.5q0 -3 -0.5 -7t-4.5 -9q23 4 39 7t24 5q-5 4 -8.5 8.5t-4.5 13.5q0 9 -4 14q-24 8 -34.5 3t-13.5 -10zM707 374
q-8 0 -26.5 -0.5t-31.5 -0.5q8 -15 21.5 -30.5t25.5 -13.5q1 0 6 0.5t8 5.5q2 3 2 10q0 2 -2.5 10t-2.5 19zM111 345q-2 -2 -11 0q-3 7 0 10q2 2 6.5 3t7.5 1q-9 13 -5 20q2 2 4.5 2.5t4.5 -0.5q6 -2 2 -8v-3q2 5 4.5 8.5t4.5 5.5q5 5 9 -2q2 -5 -1 -7l-5 -6q6 6 17 4
q2 0 4 -2.5t0 -5.5q-1 -3 -3 -4.5t-4 0.5q-5 0 -7 -2l4 -2q3 -1 5 -3t2 -5t-2 -5q-5 -3 -9 0q-3 2 -5 6l1 -11q0 -6 -5 -6q-4 0 -6 5l-1 5q-1 -2 -2 -3t-1 -2q0 -4 -5 -4q-8 0 -8 6zM494 364q-8 1 -27 4t-33 5q3 -6 7.5 -14t10.5 -14q12 -12 27 -9q5 1 9 6.5t6 15.5v6z
M888 402q-8 -2 -20.5 -5t-22.5 -3q5 -11 17 -22.5t25 -6.5q5 2 8 14t-7 23zM589 117q14 2 15 13.5t-10 20.5q0 -12 -12 -15q-5 -1 -9.5 1.5t-5.5 8.5q-6 -11 1.5 -21t20.5 -8zM691 123q14 2 15 13t-9 20q0 -5 -3 -10t-10 -5q-5 0 -9 2.5t-6 7.5q-6 -11 2.5 -21t19.5 -7z
M649 97q3 2 5 -2l7 -22q2 -4 -2 -6t-6 3l-3 12l-29 -5v-9q0 -5 -3.5 -5t-3.5 5v24q0 4 4 4q3 0 3 -4v-7l26 4l-1 4q0 3 3 4zM406 316q-4 5 -7 9.5t-5 9.5l-15 13q2 -8 1 -14t-3 -10l28 -8h1zM625 124q-4 0 -4 4t5 4l22 -2l-9 -22q-2 -3 -5 -3q-5 0 -3 6l4 12z" />
    <glyph glyph-name="cid18380" unicode="&#xe1;" horiz-adv-x="983" 
d="M915 72q3 -7 6.5 -13.5t-1.5 -14.5l-4 -6l-4 -6q-3 -6 -2.5 -10.5t2.5 -9.5q0 -14 -10 -23q-5 -2 -6.5 -5.5t-3.5 -8.5q-1 -4 -2 -7.5t-4 -6.5q-5 -6 -12 -8t-14 -3v-1q-8 -5 -13.5 -13t-9 -18t-6 -20.5t-3.5 -18.5q-3 -15 -5 -30.5t-6 -30.5q0 -4 -5 -4.5t-4 3.5
q4 20 7 41.5t9 42.5q3 11 6.5 22.5t10.5 20.5q-13 -5 -27.5 -5t-25.5 5q-4 1 -6.5 3t-6.5 4q-4 -11 -11 -20.5t-13 -20.5q-2 -3 -4.5 -1.5t-0.5 5.5q6 11 13 20t11 21q0 1 0.5 1t0.5 1l-3 3q-8 -26 -28 -47t-39 -41q-2 -2 -6 -0.5t0 5.5q19 19 40 41.5t26 51.5l2 2
q-4 7 -4 19q-8 -17 -20 -32t-26 -26h-1l-2 -1q0 -1 -1 -1q0 -1 -2 -1q-17 -9 -28.5 -23.5t-24.5 -28.5q-1 -2 -3.5 -1t-0.5 3q13 14 25 29.5t29 24.5q-1 7 -5.5 11.5l-9.5 9.5q-1 -2 -3 -1.5t-2 2.5q4 16 3 31.5t-4 30.5t-6.5 30.5t-3.5 30.5q0 1 1 2v2q12 23 2 46
q-4 10 -11 18t-15 14q-20 12 -43 19.5t-46 12.5h-2q-28 5 -51.5 18.5t-45.5 30.5l3 -6q3 -7 6 -14.5t4 -15.5q2 1 4 1h4q3 2 3.5 1t-2.5 -3q-11 -3 -22 -5t-20 -7q-2 -1 -4 -1t1 1q7 5 14 7t15 5q-1 8 -3.5 15t-5.5 15l-4 10t-3 11q-12 -20 -21 -40t-12 -43q0 -1 -2.5 -1.5
t-2.5 0.5q2 19 8.5 36t15 33t18.5 31.5t19 31.5q-3 -1 -6.5 -3.5t-6.5 -4.5l-17 -10q-10 -6 -18.5 -11t-16.5 -11q-2 -2 -4.5 -1t0.5 3q8 8 18 13.5t21 11.5l21 13q1 0 1 1q-5 1 -10 3.5t-13 0.5q-12 -2 -27.5 2.5t-23.5 13.5l-8 10t-8 9l-9 9q8 -2 15 -8.5t13 -13.5t13 -12
t13 -5q5 0 14.5 1t19.5 -1q5 -1 7 -3t4.5 -3t6.5 1t13 9q8 7 17 19.5t16 25.5q8 15 16 31q3 7 3 23q2 8 7.5 18.5t10.5 24.5q4 11 6 27q1 7 1 15q1 1 1 2q0 8 -2 16t-2 16t1.5 15t2.5 13q0 2 0.5 2t0.5 1q0 3 -1 7t-3 6q-2 4 -4.5 5t-6.5 3q-9 3 -17.5 5.5t-16.5 10.5
q2 -11 -5 -19q-4 -5 -11 -6t-12.5 1t-8.5 6.5t0 12.5q1 3 2 2t1 -2q0 -4 4 -5.5t6 -0.5q8 2 8 10q-2 9 -11 13h-3l-1 -1q-17 -8 -36 -8.5t-36 1.5l-18 3q-2 0 -5.5 1t-5.5 -2q-2 -2 -2.5 -6t-0.5 -7q0 -5 -2 -13q0 -2 -1 -2l1 -2q0 -1 1 -2l-2 -5v-4q0 -6 -4 -11v-2
q-2 -5 -6 -9v-12h1q-1 0 -1 -1v-2q1 0 1 -1v-3h-1v-1l-1 -1l-4 -4q-3 -1 -4 -4l-7.5 -7.5t-4.5 -8.5q-2 -7 1 -16l2 -4l1 -2v-1q1 0 1 -1v-1q0 -1 -4 -1l-6 12v2q-2 2 -2 4.5t-1 5.5v1q-1 3 -1.5 6.5t-2.5 6.5l-3.5 7t-4.5 7h-1v2q-2 3 -4 5.5t-4 5.5v1q-2 -1 -4.5 -5
t-5.5 -18q-5 -24 -5 -38.5t11 -22.5t12 -11t0 -4q0 -4 1 -8q0 -4 0.5 -8.5t-0.5 -9.5q-1 -12 5 -25.5t14 -21.5q-2 1 -6 4q-3 2 -6.5 5t-5.5 8q2 -20 3 -40.5t5 -39.5q4 -23 12.5 -45.5t18.5 -44.5q-2 -1 -4 -1q-3 -2 -3 0q-9 21 -17.5 43t-12.5 45q-5 24 -5.5 48.5
t-4.5 48.5q0 2 2 2q-2 7 -2 13v12l-10 -18t-9 -19q-5 -10 -10 -20.5t-11 -19.5l-2 -1q-5 -7 -11.5 -13.5t-13.5 -12.5q-9 -8 -18 -15t-15 -18q-1 -1 -2 -1l-1 -2q-20 -10 -40 -18.5t-40 -16.5q-11 -4 -21.5 -7.5t-21.5 -6.5q-9 -1 -17 -2t-16 1q-3 0 -2 2t3 2q8 -2 16.5 -1
t17.5 3q22 6 42 13q20 8 38.5 16t38.5 19v1q7 10 14 16.5t17 14.5q8 8 17.5 16.5t14.5 19.5q4 11 7 22t7 22q-8 -6 -20.5 -6.5t-21.5 2.5q-2 2 -0.5 3.5t2.5 1.5q9 -1 16.5 2t12.5 12q-4 0 -7 0.5t-7 1.5q-8 5 -9 14.5t3 18.5q1 2 3 2t1 -3q-4 -10 14 -11q7 -1 10 13.5
t3 33.5t-1.5 35.5t-1.5 20.5q0 5 -0.5 10.5t-0.5 10.5q-1 11 -3.5 22.5t-3.5 22.5q0 11 2 20.5t9 17.5q5 5 13 14t13 17v2q5 15 17 26.5t26 19.5q8 3 15.5 5t16.5 3q11 2 21 2.5t19 4.5q2 1 2 0.5t2 -0.5q20 9 41.5 16.5t38.5 21.5q1 1 3.5 1t1.5 -2q-4 -10 -4 -14
q15 7 20 18q1 2 3.5 2t2.5 -2q0 -9 1 -13q1 0 1 1q1 2 3.5 2.5t2.5 -2.5q0 -5 2.5 -8t4.5 -8q5 -5 10 -15q5 -8 10 -15t8 -15q4 -16 3 -32q5 -14 10 -31.5t-1 -31.5q2 -14 0.5 -27.5t-6.5 -25.5q-8 -29 -25 -50h-1v-7q1 -5 1.5 -12.5t-2.5 -20.5q-5 -19 -10 -28t-10 -17
q-3 -5 -4.5 -17.5t-2.5 -18.5h-1v-1q-12 -26 -27.5 -49t-27.5 -31q-13 -25 -29 -47h1q0 -4 2 -12q23 -18 48 -34t54 -19q1 -1 1 -2h3q24 -5 49 -13t44 -23q9 -6 16 -14.5t9 -19.5q4 -11 2.5 -23t-5.5 -23v-1q0 -15 3 -30l6 -30t4.5 -30t-1.5 -30q6 -5 12 -11.5t6 -11.5h1
q22 19 36 39l13 26v7q0 6 4 13v4q0 2 3 2l2 1q-3 0 -3 2q-4 8 -5 16.5t-2 16.5q-2 9 -2 18v18t1 18t3 17l11 32l1 2q1 9 1 18v18v21v6.5t1 6.5q3 12 14 17t19 0q13 -10 16 -22q2 -9 0.5 -17.5t-2.5 -16.5q-2 -5 -0.5 -10.5t1.5 -12.5q2 -5 1.5 -9.5t0.5 -9.5q2 -6 4.5 -11.5
t4.5 -10.5q9 -5 19 -6t18 -4q6 1 11.5 1.5t10.5 -1.5q8 -2 12.5 -7.5t8.5 -13.5q2 -4 2.5 -7t0.5 -8q-1 -4 -2 -8.5t1 -9.5zM567 562q0 -8 -1 -15t0 -12t1 -8.5v-8.5q15 21 22 44q7 21 7 47q-2 -1 -3 0t1 3q0 1 2 3v1q-1 0 0 1q3 8 2.5 16t-2.5 15l-6 19l-2 -12t-3 -11
q-1 -2 -3.5 -1.5t-1.5 2.5q5 15 7 35l-1 1q0 1 1 2q0 8 -1.5 17t-5.5 17l-3 3q5 -23 -3.5 -46t-22.5 -37q-1 -2 -3.5 -1t-0.5 3q8 9 14.5 21.5t10 26t2 26.5t-8.5 24q0 -12 -6 -25.5t-14 -21.5q-13 -16 -31.5 -25t-37.5 -15q-2 -1 -2.5 1.5t1.5 3.5q16 5 33 12.5t29 20.5
q15 15 20 32q3 9 3.5 18.5t-6.5 18.5l-5 9q0 -1 -1 -1t-1 -1q-4 0 -5.5 3.5t-2.5 8.5q-4 -6 -9 -9.5t-12 -6.5q-3 0 -3 3q-2 3 0 11q-17 -11 -35.5 -18t-37.5 -15q-9 -5 -18.5 -8.5t-18.5 -7.5q-10 -4 -19 -9.5t-15 -14.5q-2 -2 -4 -1t0 3q9 13 23.5 20t28.5 12
q-12 -2 -25 -3t-24 -6q-14 -7 -27.5 -18t-18.5 -27q-2 -9 -12 -18.5t-15 -14.5q-9 -11 -9.5 -24t1.5 -26q3 -15 4.5 -31t2.5 -31q1 -17 2 -33.5t-1 -33.5q0 -4 -1 -11.5t-5 -12.5q5 4 7 12.5t0 13.5q-3 5 4 5q-5 18 2 46q1 5 3 9q3 8 11 13q-2 4 -3.5 8t-2.5 7q-2 8 -4 14
l-4 12q-1 2 2 2.5t4 -1.5l7 -24q1 -4 2 -7.5t3 -8.5v-1h1q6 -3 10 -11l7 -14l4 -14h1q1 5 6 10q3 4 8 8t6 10q1 2 1 7v1h-2v3l-1 1q1 3 1 6t2 5l1 1q1 4 5 8q2 2 3.5 6.5t2.5 8.5q-1 0 -1 1v2l2 15q0 9 3 13q3 5 9 4.5t11 -1.5q11 -2 21 -3t21 0q8 2 17 2.5t18 2.5q-1 2 2 4
q13 5 26.5 12.5t21.5 20.5q-2 0 -1.5 1t2.5 1q1 0 1 1q1 2 2.5 0.5t0.5 -2.5q-6 -12 -17.5 -21t-24.5 -14h6q17 -1 33 1t30 12q2 2 2.5 -0.5t-1.5 -4.5q-11 -9 -24.5 -11t-27.5 -2q0 -1 1 -1q-1 0 2 -3q0 2 2 0q5 -5 11 -8.5t13 -5.5q5 -2 10 -3t9 -3q7 -5 8.5 -12t2.5 -15
q1 -1 -2 -2zM909 43q5 6 2.5 12.5t-4.5 14.5q-4 7 -1 13.5t1 12.5q-3 8 -8.5 15t-11.5 10q-6 2 -12.5 1.5t-12.5 -1.5h-1l-24 -6q-7 -1 -14 -4t-10 -11q-2 -6 -1 -12.5t6 -10.5t10 -5t10 -1q2 -1 2.5 -2t-1.5 -1q-2 -3 -7 -3q-3 1 -7 1.5t-9 2.5q-5 -3 -7 -12.5t3 -13.5
q1 0 1 -1q3 -3 7 -4t9 -2q2 0 2 -1.5t-1 -2.5q-2 -3 -7 -3l-10 3q-2 -4 -2 -6q-2 -8 -1 -16.5t9 -11.5v-1q9 -3 19 -3q5 -2 10.5 -3t11.5 -2q4 0 1 -3q-4 -2 -7 -2l-24 5q-3 0 -6 0.5t-7 1.5q1 -24 24 -27q3 -1 -1 -3.5t-6 -2.5q-28 5 -26 34q0 1 1 2h-1q-7 5 -8 14t1 18v9
t-2 9q-2 8 1.5 16t8.5 13l-1 1q-5 5 -6 12t3 14q8 15 23 18t29 6q-5 2 -10.5 2.5t-11.5 2.5q-2 -2 -4.5 -2.5t-3.5 2.5q0 2 -3 4v2q-2 5 -5 9.5t-4 9.5l-2 18q-3 9 -3 18q-1 9 2.5 18t1.5 19q-3 16 -17 23q0 1 -0.5 1t-0.5 1q-6 1 -8.5 -2.5t-4 -9t-1.5 -12v-10.5
q1 -13 1 -25t-2 -26v-1q-5 -17 -10 -32.5t-5 -33.5v-17.5t2 -17.5q1 -8 2 -15t4 -14q7 7 15 9q5 1 5.5 -1.5t-3.5 -3.5q-8 -2 -15 -12t-7 -18q0 -1 -1 -2q0 -17 3.5 -32t18.5 -25q13 -8 28 -7.5t29 5.5l6 5q4 1 7 0q5 1 9.5 1.5t7.5 5.5q2 4 3 7t3 7q2 6 5 9.5t8 7.5
q8 6 6.5 13t-1.5 15q0 7 3 11.5t5 11.5zM543 -186q4 -2 3.5 -5t-5.5 -2q-26 6 -50 16.5t-49 20.5q-19 8 -37 16t-34 22q-20 -12 -40.5 -19t-43.5 -11q-4 -1 -4.5 2t3.5 5q41 4 80 28q0 2 4 2q2 2 3 2t2 2h4q6 11 9.5 22t1.5 23q-1 12 -4.5 24.5t-3.5 23.5q-22 11 -45 15.5
t-47 6.5q-2 0 -1.5 2.5t2.5 1.5q24 -1 46.5 -5t45.5 -15v2q2 8 2 16v17v17t-1 18q-2 14 -6.5 26.5t-8.5 26.5q-1 2 2 2.5t4 -1.5q3 -15 8.5 -28.5t6.5 -28.5q1 -16 1 -32t-2 -31q17 8 34.5 13.5t36.5 5.5q2 0 2 -2.5t-2 -2.5q-19 0 -36.5 -6.5t-34.5 -14.5v-2q-1 -8 0.5 -15
t3.5 -15q4 -15 3 -27q0 -14 -4.5 -25t-12.5 -22q17 -13 35.5 -20t38.5 -15q22 -9 43.5 -19t46.5 -15zM617 71q10 -26 15 -52.5t7 -52.5q2 -23 0.5 -48.5t-13.5 -45.5q-2 -2 -7 -2q-5 -5 -11 -9.5t-11 -9.5t-10 -10.5t-5 -12.5q0 -4 0.5 -8t-0.5 -8q0 -3 -4 -4.5t-4 1.5
q1 11 1 19t6 16q8 11 17 17t17 15q1 1 3 1q12 22 12.5 49t-2.5 50q-3 24 -7 46.5t-12 45.5q-2 3 3 4.5t5 -1.5zM507 460q-8 15 -8 24.5t-1 11.5q0 2 4 8q2 3 4 5q-1 0 -2 1t-1 2v7t2 8q2 1 5 5t3 2v-5v-1q17 -2 22.5 2t10.5 3t11 -3.5t4 -7.5q-1 -5 -6 -5.5t-10 1.5
q-6 2 -7 3q-2 1 -2 2q-3 -4 -11 -6q-4 -1 -8 -1l-8 -15q2 2 6 4q7 3 15 1q9 -3 13 -9q2 -3 3 -5q-1 -2 -4 -4q-2 -2 -5.5 -3t-9.5 0q-12 1 -17 3q-3 1 -4 2q-3 -9 -1 -20zM471 399q2 -2 9 -2h7h1l3 -3q0 -2 1.5 -2.5t3.5 -2.5t5 -3l4 1q0 -1 -1 -3q-2 -4 -6 -5
q-4 0 -10.5 -1.5t-10.5 -2.5q5 2 5 5q1 1 -5 3t-14.5 4.5t-17.5 4t-13 3.5q-8 3 2 -1.5t23 -7.5q-2 -2 -6 -2q-3 0 -7.5 0.5t-9.5 3.5q-11 4 -17 8.5t-9 6.5q-3 0 -3 4q0 2 1 4q-1 1 0 1h1q1 0 2 -0.5t3 -0.5q6 -2 17.5 -2.5t19.5 -1.5q8 0 13.5 -3t8.5 -5zM495 692
q-3 0 -4 -1q-14 -12 -31 -15q-1 0 -2 1t1 2q7 4 13.5 6.5t14.5 6.5q5 5 6 7q2 3 6 7t4 8q-1 5 -6 1.5t-7 -4.5q-1 -2 -3 -1t0 3q6 9 7 18q1 11 -11 9q-2 0 -2 2q-2 -1 -3.5 1t1.5 3q6 2 14.5 2t16 -2.5t11 -8.5t0.5 -16q-3 -9 -10.5 -16.5t-15.5 -12.5zM354 192
q-12 1 -24.5 4t-25.5 6l-59 20q-8 2 -15.5 4t-15.5 4q-13 5 -28 7q-17 2 -32 -1.5t-31 -3.5q-3 0 -2.5 2t2.5 2q16 1 31 4.5t32 1.5q29 -5 58 -14l62 -21q13 -4 25.5 -6t23.5 -4q3 -1 2 -3t-3 -2zM635 314q-5 20 -10 30t-23 10q14 3 21 12t12 26q2 -16 7 -25t22 -11
q-3 -1 -7.5 -3t-9 -6.5t-8.5 -12t-4 -20.5zM462 541q5 -6 10 -6h4q-1 -2 -3 -4q-3 -3 -7 -3q-5 0 -7.5 4t-13.5 6t-24 0t-22 -4q-1 2 2 6q2 2 6.5 5t14.5 5q13 3 23.5 -0.5t16.5 -8.5zM311 457q-6 2 -8 10q0 -8 -4 -18t-14 -12q-5 -1 -11.5 0t-10.5 6q0 -13 7 -16
q8 -5 17.5 -4t14.5 7l1 1v1q7 12 8 24v1zM447 505q-13 -2 -20 -1t-11 3t-6 5q-1 2 1 4q4 4 20 4q8 0 14 -2.5t10 -5.5l7 -7q0 -1 1 -2v-1h-1q-3 -6 -9 -2q-3 2 -6 5zM573 169q1 2 3 0.5t0 -3.5t-9 -2q-9 -3 -18 -3q-24 0 -46 3h-21.5t-22.5 2q-8 0 -16.5 -1.5t-16.5 -6.5
q-2 -2 -5.5 -2.5t-1.5 4.5q0 1 4 1q1 0 1 1q2 2 7 2q2 2 5.5 3.5t7.5 1.5q11 3 23 0q9 0 18.5 -1t17.5 -2q11 -1 21.5 -1.5t21.5 -0.5h9t9 2q7 0 9 3zM496 719q4 2 8 1q4 -2 3.5 -5.5t-2.5 -6.5l-2 -2q3 2 5.5 5t4.5 6q4 7 4 13.5t-8 10.5q-9 5 -19 3q9 0 9 -10q1 -5 -3 -15
zM332 492q-5 0 -4 1.5t-2 -9.5q-2 -6 -1 -8.5t3 -4.5t5 -2q-5 -5 -8.5 1t-5.5 18q-3 9 4 9q3 0 8 -1v3q0 2 -6 14q-4 7 -6 8t-4 0q4 10 8.5 6.5t7 -11.5t3.5 -16t-2 -8zM322 436v6q-1 1 -2 3q-2 4 -4 6q-1 -5 -3 -10l-4 -10l-9 -25l-9 -24q2 3 3.5 6l2.5 5q5 11 10.5 21
t12.5 21zM510 591q6 9 1.5 15t-13.5 9q10 -10 5 -21q-6 -7 -14 -6q-2 1 -3.5 2t-3.5 2q0 -9 11.5 -9t16.5 8zM864 32h14t14 -2q2 -1 -2 -3t-6 -1q-6 2 -11.5 1.5t-11.5 0.5q-5 0 -11.5 1t-11.5 0q0 -1 -2.5 -1t-2.5 1t2 2t3 1q10 4 26 0zM844 66q-1 0 -2.5 0.5t-0.5 2.5
q2 3 6 3h19t18 1q5 1 3.5 -2t-5.5 -4q-10 -2 -19 -1.5t-19 0.5zM266 402q7 -2 14.5 0t12.5 7l2 1h1q1 7 6 15q-4 -3 -7 -4l-6 -2q-8 -14 -23 -17zM458 347q-4 -2 -14 -0.5t-12 10.5q7 -2 14 -3q6 -1 11.5 -1.5t9.5 1.5q-1 -2 -2 -3q-3 -3 -7 -4zM470 445q7 -3 9 -7
q1 -2 0 -4q0 -6 -7 1q-2 2 -4 3l-4 2q-3 1 -4 2q0 2 1 3t9 0zM486 426q2 5 10 9q4 1 7 2q0 -2 -1.5 -5.5t-6.5 -3.5q-2 0 -4 -0.5t-3 -0.5zM390 405q0 6 4 11q2 3 4.5 3.5t4.5 0.5l4 -2q-3 0 -6 -2q-2 -2 -5 -4t-4 -6l-2 -6v-2v2v5z" />
    <glyph glyph-name="cid18381" unicode="&#xe2;" horiz-adv-x="935" 
d="M644 291q3 -4 6 -7.5t7 -7.5h-2l2 -1q0 2 1 3h3v3q-6 8 -10 16q-2 5 -4 9.5t-6 9.5l-19 39q6 -9 11 -19t10 -19q2 -4 3.5 -8t3.5 -7l-9 21q-5 11 -10.5 22t-10.5 22q8 -11 12.5 -21.5t9.5 -21.5l11 -23l9 -20q2 2 4.5 5t5.5 5q4 2 9.5 2h13.5q4 -7 4.5 -17.5t-3.5 -18.5
q-2 -4 -4.5 -6.5t-2.5 -4.5q0 -3 1.5 -5.5t2.5 -4.5q7 -2 13 -2t10 -3q3 -2 3.5 -5t2.5 -7l2 -4t1 -5q-2 -11 -14 -16q-5 -2 -9.5 -3t-5.5 -5q0 -4 1.5 -6.5t3.5 -5.5q1 -2 1 -5q0 -5 -0.5 -9t-2.5 -8l-4 -7q-3 -5 -1.5 -10t0.5 -10q-2 -11 -8 -16q-5 -4 -9.5 -6t-9.5 -7
q-10 -9 -19 -17t-25 -10q-3 -1 -6 -0.5t-5 -0.5q-5 -1 -9 -5t-9 -6q-4 -35 -2.5 -71.5t1.5 -74.5q0 -8 0.5 -16t0.5 -19v-5.5t-2 -3.5q-4 0 -3.5 3.5t-0.5 5.5l-2 8q-2 11 -1.5 22.5t0.5 25.5v48q0 2 -0.5 6t-0.5 6l1 58q-11 -8 -20.5 -17.5t-21.5 -17.5q-11 -8 -20 -20
t-19 -20q-7 -5 -13.5 -13.5t-12.5 -13.5q-7 -6 -14.5 -12.5t-13.5 -14.5q-5 -7 -13 -12.5t-16 -10.5q-15 -10 -30 -20.5t-32 -18.5l-37 -18q-7 -4 -13 -7.5t-14 -5.5l-10 -2q-3 -1 -6.5 -2.5t-7.5 -2.5h-3q-2 0 -3.5 -1t-2.5 -1q-12 -2 -26 0q-7 1 -13 2t-11 3q-2 1 -4 2.5
t-5 3.5l-6 3q-10 7 -17.5 15t-15.5 15q1 -7 3.5 -14.5t2.5 -16.5q0 -2 -0.5 -5t-2.5 -2t-2 7q0 8 -2.5 13.5t-3.5 11.5v6.5t-1 5.5q0 2 -3 3.5t-5 3.5q-11 14 -23.5 28t-21.5 31q-2 5 -5 8.5t-6 8.5q-6 9 -11.5 18t-10.5 20l-9 19l-4 12q-1 5 -1.5 7t-1.5 17q0 5 -1.5 9.5
t-1.5 8.5l-2 19q-2 14 -5 26.5t-8 24.5l-12 34l-10 33l-3 16q-1 11 -1 22.5t5 19.5l5 10q2 5 3.5 9t4.5 7l22 18q4 3 8 4.5t9 3.5t9.5 2.5t9.5 2.5q3 2 5 4l4 4q7 5 14 9.5t18 9.5q12 6 24 9.5t23 9.5l3 12l3 10q2 2 4.5 3t4.5 3q6 4 8 4q3 4 5 6.5t6 4.5q-4 2 -6 4t-5 6
q-2 2 -3.5 3t-2.5 3l-6 10q-8 13 -16 25.5t-19 25.5q-3 4 -7 9.5t-6 10.5q-1 2 -1 8l-1 -2q-1 -1 -2.5 -1.5t-0.5 1.5l4 8q-1 1 -1 4q-1 5 -1.5 10t-2.5 9q0 3 -2 5.5t-4 5.5q-3 5 -6 8t-1 11q-14 10 -23 25t-9 39q-2 -2 -4 -6t-7 -5q0 3 1 4q0 1 1 1q5 10 7 23t7 21
q7 18 20 29q2 2 5.5 4t7.5 5q3 5 7 8.5t8 7.5q2 1 3 2.5t3 1.5q4 2 8.5 3.5t9.5 3.5l8 3l12.5 2.5t15.5 -0.5l9 -4q4 -1 7.5 -3t7.5 0q4 1 7.5 2.5t8.5 3.5t10.5 4t10.5 2q4 0 8 -1.5t8 -2.5q12 -3 23.5 -7.5t19.5 -10.5q8 -2 13 -8l10 -12q3 4 10.5 4.5t14.5 1.5t13.5 2
t14.5 0q7 -1 14 -1h14q14 9 34 9q6 0 13 1t14 -1q10 -2 18 -3.5t15 -6.5q3 -2 5 -3.5t5 -3.5l11 -3l33 -6q11 -2 23 -1.5t23 -1.5q3 -1 5.5 -1.5t5.5 -0.5q5 0 8.5 -0.5t7.5 -1.5l7.5 -1.5t7.5 -0.5h12.5t10.5 -1l12 -3l17 -3q10 -2 21 -3.5t22 -3.5q8 -2 15.5 -4.5
t16.5 -4.5q10 -3 24 -5q7 -1 12.5 -2t10.5 -3l24 -7q6 -2 12.5 -4.5t12.5 -5.5l16 -9l6 -4l7.5 -5t6.5 -5q0 -6 1 -8l4 -8q1 -1 0.5 -3t0.5 -4q3 -5 2 -12q-1 -4 -2.5 -7.5t-3.5 -6.5q0 -5 -1 -6q-1 -2 -2.5 -4.5t-3.5 -4.5q0 -1 -0.5 -2t-0.5 -2l-9 -13q-4 -9 -11 -17
l-4 -4l-4 -4q-6 -7 -12 -12.5t-12 -11.5q-4 -5 -8 -8.5t-9 -8.5q-4 -4 -7.5 -8.5t-7.5 -7.5l-35 -31q-8 -8 -20 -13t-23 -11l-8 -4l-28 -12l-18 -8t-20 -8l-19 -8q-5 -2 -9 -6l-4 4q1 0 2.5 1.5t9.5 5.5q11 5 23 9t23 10q15 7 28.5 12t27.5 13q8 5 16.5 9t15.5 9
q7 6 13.5 11.5t12.5 11.5l9 9l11 12q9 11 18 20t18 19q12 14 24 27.5t21 32.5q2 3 3.5 7t1.5 8q0 7 -2.5 12l-4.5 9q-1 2 -0.5 4.5t-1.5 4.5t-5.5 5t-7.5 4q-14 7 -28 14.5t-29 11.5l-12 3q-5 2 -11 1.5t-11 1.5l-12 4q-6 2 -12.5 3.5t-12.5 3.5q-9 2 -18.5 4.5t-20.5 3.5
q-16 2 -30 5t-30 5q-2 0 -4 1t-4 1q-7 1 -12.5 0.5t-10.5 0.5h-9t-9 1q-8 2 -18 2t-21 1q-1 0 -2 1.5t-3 1.5q-17 2 -32 4t-29 8q-1 -1 -1.5 -2t-2.5 -1q-2 2 -3.5 5t-3.5 5q-3 2 -8 2.5t-10 1.5q-7 2 -17.5 3t-18.5 -1q-11 -2 -20.5 -3t-14.5 -6q-18 2 -37 1.5t-37 -2.5
q5 -6 16 -8q4 -1 6 -0.5t4 1.5q9 0 16 -1.5t14 -3.5q1 3 1 6.5t2 2.5t1 -4.5t-1 -5.5q3 1 5.5 4t5.5 3q-9 -11 -9.5 -28.5t-6.5 -31.5q0 -4 -0.5 -9.5t0.5 -10.5q0 -2 1 -4.5t1 -5.5l20 3q4 5 10 9l6.5 6.5t6.5 0.5q2 -2 -2 -4.5t-7 -4.5q-3 -3 -9 -7q0 -4 -3 -4.5t-6 -0.5
q-8 -2 -17.5 -3.5t-16.5 -2.5q-4 2 -10.5 1.5t-11.5 -2.5q3 -8 0 -15q6 1 11.5 0t10.5 -3l12 -3q2 -1 3.5 -2.5t3.5 -1.5q1 -1 3.5 0t4.5 2l7 3q3 1 6.5 2.5t7.5 1.5q6 2 12.5 3t11.5 3q5 9 13.5 13.5t16.5 9.5q6 4 12.5 8.5t12.5 10.5q0 4 -1 9.5t1 8.5q2 -2 2.5 -5t0.5 -6
v-7.5t4 -4.5q0 2 -0.5 5.5t1.5 4.5q2 -1 1.5 -5t0.5 -6q8 -5 16.5 -6.5t17.5 -3.5q2 0 4.5 -1t6.5 -2q3 -1 6.5 -1.5t7.5 -2.5q5 -2 9.5 -3.5t9.5 -1.5h2q5 0 10.5 -2.5t7.5 -3.5q5 -2 9 -4t9 -4q20 -7 38 -14.5t34 -20.5q19 11 47 14q4 1 6.5 0.5t5.5 0.5q4 0 8 1.5t9 3.5
q5 0 9 1t9 2q6 2 13.5 4t12.5 2q2 1 5 1.5t2 -3.5l-32 -7q-4 -2 -7.5 -3t-8.5 -2q-9 -3 -17 -6t-17 -4q-4 -1 -6.5 -1.5t-5.5 -0.5q-9 -2 -18.5 -3t-17.5 -5l-26 -13t-25 -14q-6 -5 -12 -8t-12 -7t-11.5 -8.5t-11.5 -6.5q-1 2 2 3t1 2q-6 -1 -13 1t-14 2q-5 1 -10.5 1.5
t-11.5 0.5q-9 0 -15.5 -4t-15.5 -6q-6 -2 -12.5 -3.5t-13.5 -3.5q-14 -4 -25 -9q-5 -2 -12 -4t-12 -6q-4 -2 -7.5 -5.5t-8.5 -4.5q11 -2 17.5 -9.5t13.5 -17.5q11 -17 19.5 -38t16.5 -42q2 -4 3.5 -9t1.5 -10q0 -3 1 -6t3 -7q1 -4 1 -8t2 -8q3 -24 8 -47.5t10 -46.5
q1 8 2 15.5t6 9.5q0 -9 -3 -19t-2 -18q0 -2 0.5 -3.5t0.5 -3.5q2 -6 2 -11.5t2 -11.5q1 3 3 6t2 6q2 9 0 19t2 16q3 5 9 6t11 3t9.5 5t12.5 4q6 -2 8 -2q-2 19 3 38q4 -2 6 -1v-4q-2 -5 -3 -8.5t-1 -8.5q0 -4 1 -7.5t1 -7.5q5 8 11 18.5t20 13.5q4 8 11 8q2 1 4 6l-12 11
l-14 12q-8 5 -14 10.5t-12 11.5q8 -5 14 -10.5t13 -11.5l13 -10l6 -6l-6 9l-8 7zM541 135q-8 -5 -15 -9t-15 -9q-7 -4 -12.5 -8.5t-13.5 -8.5q-5 -2 -9 -4.5t-10 -5.5l-12 -5q-10 -4 -19.5 -8t-18.5 -9l-19 -8q-14 -6 -29 -13t-31 -12q-5 -1 -10 -3l-10 -4q-10 -5 -15.5 -10
t-12.5 -10q-8 -7 -13 -13q-7 -11 -15 -19l-5 -6q-3 -4 -9 -7q-2 -1 -4 -3.5t-4 -1.5q-2 3 -1 2.5t2 1.5q0 1 -1 5q9 5 14 13t10 17q-5 23 -9.5 43t-12.5 40q-2 7 -5 12.5t-6 11.5q-4 6 -6 12.5t-6 11.5q-18 27 -40 49q-5 5 -10 9t-8 10l14 -7q2 -1 2 -2t2 -1q1 15 -0.5 29
t-3.5 26q2 1 1 3.5t1 3.5q4 -6 4 -13t2 -15q2 -11 4.5 -20.5t0.5 -22.5q10 -8 17.5 -18t15.5 -21q0 3 -2 6.5t0 7.5q-2 5 -3.5 10.5t-1.5 8.5q-2 14 -6.5 29.5t-7.5 29.5l-4 16t-4 14q-5 13 -7.5 27t-4.5 27q-6 0 -12 -1t-11 -3q-2 0 -4 -1.5t-3 1.5q1 2 4 2t5 2
q-6 0 -10.5 1.5t-9.5 1.5q-2 1 -4.5 0.5t-3.5 1.5q2 2 4 1.5t4 -0.5q7 -1 14 -3t14 -2q3 2 6.5 2t6.5 1q-1 8 -1.5 18t-0.5 18q-20 -9 -41 -15.5t-35 -20.5l-7 -8q-5 -3 -9.5 -4t-9.5 -2q-4 -1 -8.5 -2t-9.5 -3q-6 -3 -12 -9q-5 -5 -7 -8t-7 -10q-6 -10 -8 -19
q-3 -19 -2 -36q2 -20 7.5 -36.5t10.5 -30.5l9 -27v18q0 4 -1 10t4 7q4 -14 4 -28t1 -29q1 -5 3 -9.5t3 -10.5q1 -10 1 -20.5v-20.5q0 -9 2 -17q2 -5 4 -8.5t4 -8.5q5 -9 8 -17t7 -14l28 -43q9 -14 19.5 -24.5l21.5 -21.5q6 -5 11.5 -11t11.5 -12q8 -8 16.5 -15t19.5 -12
q5 -2 7.5 -3.5t7.5 -2.5h6q2 0 2 -1t2 -2q6 -2 11.5 0t10.5 2q7 0 15 3q4 1 7.5 2t5.5 2q6 2 12 4.5t10 4.5l40 19l22 11t19 12q11 8 23.5 16t23.5 16q8 13 19.5 21.5t20.5 19.5q6 7 13 13q12 9 19.5 20.5t18.5 22.5q4 4 7.5 7t7.5 6l16 12l6 5l5 4l6 7q2 3 5.5 4t8.5 4
q3 2 7 5.5t8 4.5q1 0 2.5 -0.5t3.5 -0.5q6 0 12 0.5t11 2.5q3 2 7 5t6 5q8 6 14.5 13t15.5 12q7 4 6.5 12.5t0.5 17.5q1 4 4.5 11.5t2.5 13.5q0 5 -3 8q-1 2 -2.5 3t-1.5 3q0 6 3 9q2 2 6.5 4t9.5 4l6 3q7 2 7 9q-1 1 -1 2q-1 1 -1 5q0 5 -2 7q-4 2 -10 2.5t-11 1.5
q0 -4 -3 -6t-6.5 -1.5t-7 2.5t-3.5 5q0 10 7.5 17.5t10.5 15.5q2 5 1.5 12.5t-2.5 13.5q-7 2 -15 1t-9 -7q4 0 5 -1q1 -2 -2 -8.5t-4 -8.5q-2 -5 -6.5 -10t-8.5 -9q-7 -6 -14 -10t-15 -9q-5 -3 -9 -6t-8 -8q-2 1 -3.5 0.5t-2.5 2.5q0 2 1 3t0 3q-3 0 -9 2q-7 -5 -16.5 -8
t-12.5 -6q-5 -5 -5 -11v-12v-9t-2 -7q-3 -9 -8 -17.5t-7 -16.5zM152 531q0 2 2 1.5t2 -2.5l-9 -20q-1 -2 -2 -2t-1 1q0 -6 1 -8q3 -7 8.5 -13t9.5 -13q2 -3 3.5 -6t3.5 -8l18 -25l8 -13q2 -3 5.5 -6t6.5 -4q9 -5 17.5 -2.5t15.5 5.5q4 1 7 4q8 4 16.5 8t16.5 9q3 3 5.5 6
t6.5 3q2 -2 0 -3.5t-3 -1.5q-5 -5 -10 -9t-10 -6q-4 -10 -9.5 -20t-10.5 -19q-2 -2 -4.5 -5.5t-5.5 -3.5q2 3 3.5 5t3.5 5q2 2 3 4.5t3 5.5l-7 -8q-2 -2 -3.5 -4t-3.5 -2q-2 2 0 2.5t0 1.5q-2 -3 -4 -5t-2 -6q-1 -4 1 -9t0 -10q-1 2 -1 3t-2 0q0 -3 3 -5t3 -6l-10 5
q2 -6 4.5 -12.5t5.5 -13.5q5 1 12 3t14 0q1 0 2 -1.5t3 -2.5q3 0 5 -1q3 -3 4 -3q5 -3 10.5 -5t7.5 -7q-3 -3 -7 -1t-7 4q-10 4 -15 8q-2 1 -3.5 2t-2.5 1q-6 2 -11 0.5t-11 -1.5q5 -13 11.5 -26t12.5 -27q7 -15 16.5 -27.5t18.5 -26.5q1 -2 4 -6.5t3 -6.5t-2 -4l-3 -3
q-3 -2 -6.5 -3t-5.5 -3t-3 -4t-3 -4q0 -8 -3.5 -10.5t-7.5 -6.5q-5 -5 -12 -10t-13 -11q-5 -5 -8.5 -10t-12.5 -6q22 -41 39 -87l14 2t12 3l5 2.5t3 -0.5t-6 -5q-12 -6 -25 -9q1 -8 3 -15.5t2 -15.5q4 1 11 8q4 3 9 6.5t9 7.5l6 4q6 4 11.5 6t10.5 4q3 2 6 2t6 2q6 2 12 4.5
t13 6.5q5 2 11 4.5t11 4.5l12 4t13 5q9 4 18.5 9t19.5 10l22 8q5 2 10.5 4.5t10.5 5.5q13 8 27 20l7 6q-15 -4 -30 -6.5t-28 -6.5q-7 -2 -11.5 -5.5t-11.5 -2.5q-1 5 -2 9t-1 10q-5 -2 -9.5 -3.5t-7.5 0.5q-2 2 -3.5 6.5l-2.5 7.5q-1 4 0 7.5t1 7.5q0 7 -0.5 13.5t-1.5 14.5
q-3 39 -5 82.5t-10 76.5q-10 -5 -19 -10t-20 -10q-3 -3 -4.5 -6.5t-7.5 -4.5q0 2 0.5 3.5l1.5 4.5q4 5 6.5 7t8.5 5q8 5 17 8.5t15 8.5q-5 16 -9.5 31.5t-7.5 33.5q-2 0 -2 2q-2 8 -7.5 15t-10.5 14l-7 19l-7 17q-3 11 -7 20.5t-6 18.5q-3 -11 -6 -23t-13 -17q5 14 10 29.5
t3 35.5q1 0 1 0.5t1 0.5q3 -2 7 0.5t6 4.5q3 5 6.5 12t1.5 14q1 0 0.5 0.5t0.5 0.5q3 17 -1 30q-3 3 -7 5.5t-11 0.5q-6 0 -10.5 -6t-5.5 -11v-7q-1 -2 -2.5 -4t-2.5 -4q0 -2 1 -2.5t-1 -2.5q-8 5 -7 13q-9 9 -16.5 19t-19.5 18q0 3 -1 2l-4 2q0 1 0.5 1t0.5 1q-17 9 -32 25
v3l-9 8q1 2 -1 4l-3 3q-1 -1 -1 -3q-2 2 -5 1v-1v-1q-3 0 -5 -0.5t-5 1.5q-2 0 -1 -1t0 -1l-4 2q-2 0 0 -1t1 -2q-2 -1 -4 0.5t-4 2.5q-4 -2 -6.5 -5.5t-5.5 -6.5q-2 -4 -2.5 -6.5t-0.5 -8.5q0 -10 3.5 -15.5t6.5 -13.5q2 0 2.5 -1.5t2.5 -3.5q2 -1 3.5 -1.5t2.5 -2.5
q-6 1 -10.5 0.5t-9.5 -0.5q-15 1 -23.5 9.5t-14.5 20.5q0 -9 2.5 -16.5t7.5 -11.5q5 -2 6 -3q-11 -1 -20 2l-4 2q0 -5 2 -8.5t4 -6.5q-5 1 -8.5 3t-7.5 4q0 -3 0.5 -6t2.5 -7q0 -4 1 -7.5t0 -5.5q-3 0 -5 3t-4 2l4 -10t1 -11q3 1 12.5 1.5t8.5 -5.5q-2 -3 -10 -3t-10 -2
q2 -5 5.5 -8t4.5 -7q0 -1 0.5 -1.5t0.5 -1.5q0 2 1 3l-2 2q3 4 8 3t11 -1v-1q1 -1 -0.5 -1t-2.5 -1t-5.5 -4t-6.5 -3q-1 0 -1 1.5t-2 0.5q3 -6 3 -14l2 3h1q1 0 1 -1l-2 -6v-1q0 -2 0.5 -3.5t0.5 -3.5zM383 575q-11 4 -21 5q-1 -5 -1.5 -9t-2.5 -8q-1 -2 -1.5 -2.5
t-1.5 -2.5q-2 -4 0 -9t0 -10q-1 0 -1.5 2t-0.5 1q-3 -12 -3 -27q-2 0 -3 3t-3 2q7 -22 18 -46q1 1 8 1q8 -1 14 -3t13 -5q6 -3 12.5 -5.5t13.5 -4.5q2 0 4.5 -0.5t4.5 -0.5q8 1 13 5t10 9l17 7q4 1 6.5 2t5.5 2q11 5 24 8.5t27 6.5q6 2 12 5t11 4q10 2 18.5 -0.5t17.5 -3.5
q14 -1 23 1.5t17 7.5q1 1 1 4q17 10 33.5 19.5t35.5 16.5q-14 11 -31.5 17.5t-34.5 14.5l-9 4q-3 1 -5.5 1t-4.5 2q-4 2 -9.5 5t-10.5 3h-6q-4 0 -6 1l-4 2l-18 5l-9 3q-7 2 -12.5 3t-11.5 3l-11 5q-1 0 -1.5 -0.5t-1.5 -0.5q-2 1 -4 2.5t-6 0.5l-32 -21q-3 -2 -6.5 -3.5
t-5.5 -3.5t-2.5 -4t-2.5 -4q-5 -4 -12.5 -4.5t-15.5 -2.5q-2 0 -4 -1t-4 -1q-7 -2 -11 -5l-5 -2.5t-5 -0.5q-2 0 -3 1.5t-3 2.5zM412 454q-8 2 -14 5.5t-13 5.5q-6 2 -12 3.5t-11 3.5l3 -5q8 0 12.5 -5t10.5 -8q2 -3 4.5 -5.5t4.5 -5.5q14 -17 23.5 -40.5t16.5 -46.5l2 -4
t-2 -3q-12 28 -23 56.5t-34 45.5q4 -8 6.5 -16.5t4.5 -17.5q5 -23 12 -44.5t12 -44.5l2 -19q2 -5 2.5 -9t1.5 -8q2 -5 2 -18q3 -17 4.5 -35t3.5 -38q0 -9 1 -19.5t-1 -19.5q0 -4 -1.5 -8.5t-1.5 -9.5q11 -3 19 1.5t17 6.5q15 5 35.5 6.5t36.5 -1.5q-4 8 -4 17.5t-2 19.5
l-2 6t-1 8l-9 48q-4 29 -12 62q-2 7 -4.5 13.5t-4.5 14.5l-9 29q-2 11 -6.5 21.5t-9.5 18.5q-6 10 -11 18t-14 13q-2 0 -2 0.5t-2 1.5zM189 379q-4 -5 -5 -11l-2 -12q0 -5 1 -10.5t1 -11.5l4 -22q1 -8 3 -15t3 -14l2 -11q2 -8 4 -15.5t3 -17.5q2 -12 5 -24t7 -23
q2 -6 3 -12.5t3 -12.5l7 -24q4 5 8.5 9t10.5 9q5 5 10 8t9 7q5 5 5 8q-6 -1 -7 1.5t-3 5.5q-3 9 -8.5 19.5t-9.5 21.5l-6 24q-2 2 -2.5 5t-1.5 5q-1 3 -2 6.5t1 6.5q2 -3 2.5 -6t2.5 -5q2 -8 5 -16.5t6 -17.5q5 -11 9.5 -21.5t8.5 -21.5q7 3 14 7t15 7q-8 14 -16.5 27.5
t-16.5 27.5q-14 21 -23 46l-8 20q-1 0 -1 3q-3 11 -7.5 20t-6.5 19q-1 8 0.5 14.5t1.5 13.5q-5 8 -9 2t-6 -11q-2 -7 -1 -16t0 -16q-2 -1 -2.5 1t-0.5 4q-1 5 -1 13v15q-3 -2 -5 -3.5t-4 -5.5zM233 689q2 -1 -1 -1q2 -2 4.5 -4t0.5 -4q-1 0 -3 1q2 -2 1 -2.5t-1 -1.5
q2 0 3.5 -1.5l3.5 -3.5t6.5 -4t4.5 -3q-4 0 -2 -1q4 0 5 -2h-3q3 -2 4 -3q-2 0 -1 -0.5t-1 -2.5h2q1 -4 5.5 -5t4.5 -4q2 0 2.5 -0.5t1.5 -0.5t1 1t2 0q6 -2 9.5 -5t12.5 -1q2 -2 4.5 -3.5t4.5 -3.5q-1 -2 2 -4t1 -6q-2 0 -3.5 2t-3.5 0q4 0 2 -4l-8 3l6 -3q3 -1 6 -1.5
t5 -2.5q0 -2 -1.5 -1t-1.5 0l2 -6q4 0 4 -1q-2 -2 -3.5 -1t-3.5 2q-1 0 -1 -1v-1l-4 2q2 -3 5 -6t4 -8h5q2 4 2.5 8.5t2.5 8.5q2 2 3 2t2 2q2 3 1 6.5t-1 7.5q2 2 4 1q0 3 -1.5 6t0.5 5q3 -3 3.5 -8.5t2.5 -11.5q2 2 6.5 1.5t6.5 0.5q-1 1 -1 3t-1 4q2 1 1 3.5t1 2.5
q4 -1 4.5 -4t2.5 -5q-1 2 0 2v7q2 -2 5 -3q-2 5 -2.5 9.5t-2.5 7.5q-2 15 -8 28q-4 7 -6.5 14t-6.5 12q-2 2 -4 4.5t-5 4.5q-6 5 -13 8t-15 6q-7 2 -14.5 4.5t-14.5 3.5q-4 1 -6.5 -0.5t-6.5 -2.5h-7t-6 -2h8q1 -2 2.5 -1t3.5 -1q-3 0 -7 -0.5t-6 -2.5q4 0 8 1t8 -1h-3
q-3 -2 -9.5 -1.5t-7.5 -4.5q7 5 16.5 2t12.5 -8q-6 5 -14.5 5t-16.5 -4q14 0 22.5 -4.5t16.5 -9.5q-8 2 -19.5 8t-20.5 0q2 0 2 -1q-4 0 -5 -1q8 -2 9 -4q-1 -1 -2 -1q17 -2 28 -9.5t21 -15.5q-9 7 -18 12.5t-18 7.5q5 -5 11.5 -10t10.5 -11q0 -1 1 -2t-1 -2q-5 4 -12 8.5
t-13 2.5q3 -3 3 -2q-4 -3 -8 1t-8 2q0 2 -1.5 3t-2.5 0zM118 597q2 -2 4 -5t3 -2q-2 5 -3.5 9.5t-1.5 9.5t0.5 11.5t2.5 9.5q0 -9 4 -15t9 -9l-3.5 7t-1.5 8q-5 2 -5 8t-1 10q-2 4 -3 6.5t1 5.5q3 -2 4 -6.5t4 -6.5q2 -2 2.5 -4t2.5 -4q3 -4 6.5 -8t6.5 -6q-6 8 -8 20.5
t1 24.5q4 5 7.5 12t10.5 9q-5 -5 -9 -10t-4 -13q0 -17 11 -28q6 -11 16 -15q5 -2 11 -1t12 1q-13 5 -18 20t0 32q-2 -4 -3 -8t-3 -9q1 15 7 24t17 15q1 1 0 1t1 1q2 0 3.5 0.5t3.5 0.5h2q-12 1 -23 -2q-2 -1 -3 -2t-3 -1q0 2 1.5 2t1.5 2q-8 -2 -13.5 -8.5t-11.5 -10.5
q2 3 3.5 6t5.5 5q12 12 31 18q-2 0 -3 -0.5t-2 -0.5q-5 -1 -9 -0.5t-9 -0.5q2 2 5.5 2t5.5 2l-16 -2t-15 -5q-2 -3 -4 -5.5t-4 -5.5l-9 -11q-5 -3 -7.5 -8.5t-5.5 -10.5q0 6 2 10.5t5 9.5q8 17 19 26q7 5 14.5 7.5t15.5 5.5h-2q-1 0 -1 -1v2l-9 -4q2 2 5.5 3.5t6.5 3.5
q-11 -5 -19 -6q5 5 12.5 5.5t15.5 2.5q-3 1 -6.5 0.5t-5.5 -0.5q2 4 13 4q-6 3 -11 2t-10 -3l-33 -15q-2 -2 -4 -2q-1 -4 -6 -4q-15 -9 -23 -25l2 2q-2 -4 -4 -7t-3 -7q5 10 11 15q-4 -6 -8.5 -12.5t-5.5 -17.5q-3 -19 0 -38t14 -29q0 1 -1 1t0 2l4 7q-2 2 1 4q-2 3 -1 4
q0 2 1 1t1 0l-3 11q1 0 1 1t2 0q2 -3 2.5 -8.5t2.5 -9.5zM526 143q7 0 11 4q-21 5 -45.5 3t-41.5 -10q1 -4 1.5 -6.5t0.5 -7.5q5 1 9 2.5t8 3.5q5 0 8 1q5 2 15 4q9 2 17.5 3t16.5 3zM404 680q-4 -2 -12 -4q-8 3 -18.5 1t-18.5 -1q2 -5 3 -9t3 -8q8 0 13.5 -2t10.5 -4
q4 4 12 6q1 2 0.5 6.5t1.5 6.5q2 -2 1 -6.5t1 -6.5q2 4 2 10t2 11h-1zM192 580q-5 -3 -9.5 -5t-6.5 5q5 5 12.5 9.5l12.5 7.5t9 5t13 2q11 0 23 -5q-1 -2 -3 -2t-4 2q-13 -2 -24.5 -6.5t-22.5 -12.5zM401 656q-3 -3 -4 -3q0 -3 -0.5 -6t-2.5 -4q-2 1 -0.5 4t0.5 5
q-3 0 -5 -2t-5 -2q-5 0 -10.5 2.5t-10.5 1.5l5 -20q3 0 7 -1t8 -1l4 3q2 2 5 2t5 2zM344 360q-2 16 -1 33.5t1 34.5q-3 26 0 49q0 -1 2 -1q2 -14 2.5 -28.5t-0.5 -30.5q0 -14 0.5 -29.5t-4.5 -27.5zM365 143q-6 11 -7.5 23.5t-4.5 24.5l-13 48v2q1 0 1 -1h1q8 -23 15 -46.5
t11 -49.5q-1 0 -1 -0.5t-2 -0.5zM362 690q-4 0 -9 2.5l-7 3.5q3 -4 4.5 -8t3.5 -8q1 0 7 -2q11 6 27 4q2 0 3 -0.5t3 -0.5q5 0 8 3q-1 3 -3 3.5t-4 0.5q-5 1 -11 2t-14 0q-2 0 -4 -0.5t-4 0.5zM167 500q5 -4 9.5 -5.5t2.5 -8.5q-2 2 -3 4t-5 2q1 0 1 -3q-2 0 -3 2l-2 4
l-7 3.5t-6 4.5q-2 5 1.5 11.5t3.5 13.5q0 2 -0.5 3.5t-0.5 3.5q-2 8 0 15t-4 12h1l1 1q8 -4 6.5 -11.5t-0.5 -15.5v-6q1 -6 -0.5 -10t-1.5 -8q-1 -2 -0.5 -3t0.5 -2l3.5 -3.5zM397 611q2 2 1 4t-1 6q-4 -1 -6 -3t-6 -2q-3 -1 -6.5 0t-8.5 0l1 -1q0 -1 -1 -1q-2 1 -2.5 2.5
t-4.5 0.5v-15q4 3 10.5 2.5t11.5 0.5q2 0 4.5 1.5t4.5 1.5q0 2 -1 3.5t1 2.5q2 0 2 -1.5t1 -1.5zM237 575q0 -2 -1.5 -2t-2.5 -2q-10 -3 -17.5 -9t-19.5 -6q-1 2 0 4.5t0 4.5q17 10 41 10zM338 597q-3 -1 -6.5 2t-4.5 7q4 2 7 7t11 3q10 -2 10 -15q0 -3 -1 -6t-1 -8
q-2 -8 -2 -11t-5 -8q-2 -1 -3.5 -2t-2.5 -1q-2 5 2 6.5t6 4.5l2 13q0 8 1 14.5t-7 7.5q-5 2 -7.5 -1t-4.5 -5q1 -2 3.5 -4t2.5 -4zM584 316q11 -5 19.5 -10.5t16.5 -10.5q4 -3 8.5 -5.5t8.5 -4.5q-4 3 -8 5.5t-7 4.5q-9 5 -17.5 11t-17.5 12q11 -5 19 -10.5t16 -11.5
q4 -3 8.5 -5.5t8.5 -5.5q8 -4 16 -12q-1 0 -3 2l1 -2l-16 10q-4 3 -8.5 5.5t-9.5 5.5q-8 5 -17.5 9.5t-18.5 11.5q0 1 1 1zM479 676q2 1 4.5 2.5t4.5 1.5q3 -1 4 -3q-5 -3 -10.5 -3.5t-9.5 -3.5q-7 -3 -12.5 -11t-9.5 -15q-1 -2 -1.5 -4.5t-3.5 -4.5q-2 3 -0.5 6.5t3.5 6.5
t3.5 6.5t3.5 6.5q9 10 24 15zM650 416q2 -2 -0.5 -3t-3.5 -3l-7 -5q-4 -4 -8.5 -5.5t-8.5 -5.5q-3 -2 -5.5 -4t-6.5 -4q0 2 -2 4q9 8 19.5 14.5t21.5 11.5h1zM237 487q1 0 1 -3q-5 -5 -9 -8.5t-13 -3.5q-3 0 -6 -1t-6 -1q-2 -1 -3 -0.5t-3 0.5q-2 -1 -3.5 -3.5t-5.5 0.5
q-1 -3 -4 -5t-5 0l3 5q3 1 4.5 2.5t5.5 0.5q1 0 1 1t2 1q11 2 23.5 4t17.5 11zM345 587q2 -7 -3 -12t-11 -7q-3 5 0 11q0 1 1 1.5t1 1.5q0 4 -1.5 5.5t-2.5 5.5l1 1q4 -3 6 -11q0 -2 -1.5 -4.5t-1.5 -5.5q2 2 4.5 4t2.5 5q2 2 2 3.5t3 1.5zM661 278q-6 6 -10 12.5t-8 11.5
q-4 8 -8 14t-9 12l-36 52q11 -13 19.5 -25t16.5 -26l18 -26zM369 626q0 -1 0.5 -1.5t0.5 -2.5q5 2 9 0.5t6 -1.5q4 0 6 2.5t6 2.5v6q-5 0 -8.5 -3t-6.5 -4t-6.5 0t-6.5 1zM172 729q4 2 5 2q4 0 8 -1.5t8 -1.5q-2 1 -2 3v2q-5 0 -8 1.5t-6 0.5q-3 -2 -8 -3.5t-9 -3.5v-1z
M624 318l-7 8q-11 13 -21.5 24.5t-19.5 25.5v1q11 -13 21.5 -25t20.5 -26zM235 -145q3 -1 6.5 -1t2.5 -2q-2 -5 -8.5 -2.5t-9.5 4.5v2h-1l4 3q3 -1 6 -4zM585 298q8 -2 15 -4t15 -6q5 -2 10 -3.5t10 -3.5l18 -10q-5 2 -9.5 3.5t-9.5 4.5q-8 5 -19 8zM639 302l10 -12t9 -12
q-5 5 -10 10.5t-10 12.5l-10 13zM601 333q14 -13 29 -29q-9 7 -16 14t-13 14v1zM884 575q2 3 3.5 6t0.5 8l1 1q3 -2 3 -8t-4 -7h-4zM661 265q-5 1 -9 0.5t-6 -4.5h6.5t5.5 -1q3 2 3 5zM575 327l7 -5v-1h-1l-7 5l-6 4q-9 3 -15 11q4 -2 7.5 -4.5t7.5 -5.5zM556 332
q2 -2 10 -6q5 -1 9 -5q-3 0 -5.5 1.5t-4.5 3.5q-3 2 -5 2.5t-4 2.5q-9 4 -19 12v1q5 -2 9.5 -5.5t9.5 -6.5zM229 539q-1 -1 -2 -1t0 2l8 19q1 2 2.5 1.5t-0.5 -2.5zM203 527q-1 -2 -2 -1.5t0 2.5l9 19q1 2 2 1.5t0 -2.5zM179 507q3 1 8 1t4 -5q-3 -2 -6.5 -0.5t-5.5 1.5v3z
M224 554q1 2 2 1t0 -2l-8 -19q-1 -2 -2 -1.5t0 2.5zM193 524q0 -1 -1 -1t-1 1l8 20q0 1 1 1t1 -1zM195 459l5 2.5t5 0.5q-2 -3 -6 -4t-8 -1q0 2 4 2zM194 568q0 -2 -0.5 -5t-2.5 -5q-2 3 -0.5 6.5t3.5 3.5zM244 702q5 -2 8 -6t8 -6q-3 3 -6.5 5t-3.5 6h-4q-1 0 -2 1z
M150 552q1 1 3.5 0.5t2.5 -2.5q-2 -1 -3.5 -0.5t-2.5 0.5v2zM665 278q-2 -3 -2 -5.5t-2 -4.5q2 1 3.5 4.5t0.5 5.5zM300 613q0 1 -1 2q-1 0 -2 1q2 -1 2 -1.5t1 -1.5zM578 301l2 -1zM185 692q-1 0 -1 -1q0 1 1 1zM580 300q2 0 3 -1z" />
    <glyph glyph-name="cid18382" unicode="&#xe3;" horiz-adv-x="810" 
d="M505 328q9 -8 19 -15t18 -16q-2 -8 -3.5 -14.5t-3.5 -12.5q-4 -15 -7 -30t-8 -30q-5 -20 -9.5 -39.5t-9.5 -39.5l-3 -14l-4 -14q-2 -7 -3.5 -14t-3.5 -15q-2 -14 -6.5 -27.5t-6.5 -27.5q-1 -8 -3 -14.5t-4 -14.5q-4 -14 -6 -28.5t-4 -29.5q-2 -14 -4 -26.5t1 -26.5
q2 -16 5 -29.5t4 -30.5q-2 2 -2 5t-1 6q-2 6 -3.5 12t-3.5 12l-2 6t-1 5q-2 3 -2 6t-1 5q-4 14 -4 29.5t-2 32.5q0 6 -1 12.5t-1 12.5q0 12 1 24.5t3 24.5l5 51q1 11 1.5 23.5t2.5 25.5q1 13 2.5 25t1.5 25q0 20 0.5 39.5t0.5 39.5q0 7 -1 12.5t-1 12.5q-1 12 -2.5 23.5
t-2.5 22.5v11q-2 12 -1 24t-4 21q-4 4 -6 5q-5 -3 -10 -7.5t-10 -8.5q-2 -2 -4.5 -5t-5.5 -5q-5 -2 -8 -6l-8 -8t-6 -9q-1 -2 -1 -9q-2 -8 -3 -14t-3 -13q-1 -1 -2.5 -0.5t-1.5 -0.5q-1 -8 0.5 -17.5t2.5 -17.5q1 -11 1.5 -19.5t0.5 -19.5q1 -9 3 -17l4 -16q2 -10 2.5 -19
t2.5 -19q2 -19 5 -37.5t5 -38.5q3 -21 3 -41q2 -19 4.5 -38t5.5 -38l4 -18l2 -21l4 -17q2 -5 2 -9.5t1 -9.5q0 -2 0.5 -3.5t0.5 -3.5t-1.5 -3t-2.5 -3q-8 -13 -15 -27t-15 -25q-8 7 -13.5 15.5t-12.5 16.5q-2 4 -5.5 8t-7.5 9q-2 2 -6.5 7t-4.5 9q-1 3 -0.5 6.5t0.5 6.5
q0 4 -0.5 7.5t-0.5 6.5q0 15 0.5 28t1.5 26q3 34 2 63.5t-1 64.5q0 26 -0.5 51t-0.5 52v25q-1 14 -1.5 26.5t-2.5 25.5q-1 7 -1.5 13t-0.5 13q0 1 -1.5 1t-2.5 2q-1 8 -4 15t-3 17q-12 12 -21 27t-20 28q-4 1 -6.5 3.5t-4.5 3.5q-2 -2 -1.5 -5.5t-0.5 -7.5q0 -3 0.5 -6.5
t0.5 -6.5q0 -4 -0.5 -7t-0.5 -6q2 -8 2 -14t2 -12q0 -2 0.5 -3t0.5 -3v-4l-1 -1h-2q-1 2 -2.5 4.5t-3.5 2.5q3 -9 3.5 -17.5t2.5 -16.5q3 -12 7 -24.5t6 -26.5q2 -16 5.5 -30.5t5.5 -28.5l10 -37l13 -81q2 -10 3 -20.5t3 -20.5q3 -21 3 -43q1 -11 0.5 -21.5t0.5 -17.5
q0 -2 0.5 -4.5t0.5 -4.5q0 -1 -0.5 -2t-0.5 -3q-1 -8 0 -15.5t1 -15.5t0.5 -15.5t-0.5 -13.5q-1 -8 -2.5 -14t-2.5 -13q-3 -13 -7 -24q-2 7 -0.5 11.5t2.5 9.5l4 24q2 8 1.5 14.5t-0.5 14.5v12.5t-1 13.5q0 7 0.5 13.5t-0.5 12.5q-1 8 -2 15t-3 13q-2 7 -4.5 13t-5.5 11
l-4 12t-4 11q-2 3 -2.5 6t-2.5 6q-1 3 -2 4.5t-2 5.5q-2 3 -3 6t-3 7q-4 6 -5 12q-2 5 -3.5 11t-3.5 11q0 2 -1 2.5t-1 2.5q-3 7 -5 13t-5 14l-6 17q-4 6 -4 8q-5 9 -8.5 19t-7.5 20t-9 19.5t-8 19.5q-2 6 -3.5 11t-3.5 10t-3.5 10.5t-3.5 10.5q-4 10 -8 19.5t-8 20.5
q5 8 11.5 15.5t11.5 15.5q-7 2 -11.5 6.5t-11.5 7.5q-3 -1 -4 -0.5l-3 1.5q5 16 10.5 32t8.5 34q-7 -5 -14 -8.5l-13 -6.5q-8 -4 -14.5 -7.5t-14.5 -6.5q-5 -2 -8 -2.5t-5 -2.5l-7 -4q-2 -1 -3 -0.5t-2 -0.5l-7 -3q-10 -4 -20.5 -7.5t-21.5 -8.5q2 0 2 -1t1 -2l2 -18
q2 -11 5 -23t2 -26q-11 34 -15 69q-2 -2 -2.5 -5.5t-2.5 -7.5q-4 -13 -7 -29t-8 -31q-3 -8 -4.5 -15t-3.5 -15q-1 -4 -2.5 -7t-2.5 -6q-3 -17 -2.5 -35.5t0.5 -38.5q0 -8 0.5 -15t-0.5 -15q0 -5 -1 -9t-1 -9q0 -9 -2 -19l-3 -32q0 -5 -1 -10t-1 -10q-2 -29 -5.5 -56.5
t-3.5 -56.5l4 -5q8 0 17 2.5t16 -2.5q-8 -3 -18 -3.5t-15 -5.5q-2 -8 -0.5 -13.5t3.5 -12.5q2 -10 4.5 -18t6.5 -16q2 -3 4 -7t2 -8q-2 0 -3 1t-3 1l-12 30q-2 8 -5.5 16.5t-3.5 16.5v4q0 4 -1.5 7.5t-1.5 8.5q-1 15 1 31t4 33l4 31q1 8 1 16v16q2 16 2.5 29.5t1.5 29.5
l2 31q1 12 -0.5 23.5t-0.5 24.5q2 14 3 27t4 25q2 7 3.5 13t3.5 12l6 22q6 18 9.5 35.5t11.5 33.5q29 10 56.5 21.5t54.5 22.5q7 3 13 6.5t12 7.5q1 3 1.5 5t0.5 4q7 3 12.5 5.5t10.5 6.5q6 5 11 9.5t11 9.5q2 5 3 10.5t8 4.5q7 10 5 24q-1 17 -5 34t-9 30q-5 12 -9 24.5
t-8 26.5q-1 0 -1.5 -1.5t-2.5 0.5t-1 7t0 7v-2q-1 1 -1 2.5t-1 3.5v12q0 1 -1 2.5t-1 2.5q-1 3 0 5.5t-1 4.5q0 -1 -1 -3t-1 -1q-2 11 -0.5 20t2.5 17q3 10 3 19q1 19 12 31q4 5 7.5 10.5t8.5 7.5q2 2 5 2t5 1l6 3h9t9 1q4 0 6.5 -0.5t5.5 0.5l10 6l8 9q4 3 10.5 5t12.5 0
q4 5 11 4l14 -2t15 -0.5t15 -0.5q4 -1 7.5 -2t6.5 -1q8 0 15 1.5t13 -0.5q2 -1 4.5 -2.5t4.5 -1.5q7 -4 13 -6t11 -6q7 -20 19 -38q-2 0 -4 1.5t-4 0.5q3 -15 -5 -24q-6 -4 -7 -7q-1 -1 0 -1.5t1 -2.5q1 -5 1 -9.5t2 -8.5q2 -2 4.5 -5.5t2.5 -7.5q1 -3 0 -7l-2 -8l-4 -16
q-1 -8 1.5 -15.5t3.5 -16.5l1 -1q2 -8 0.5 -14t-3.5 -13q-2 -9 -4.5 -17t-4.5 -18q0 -4 -1 -8.5t-1 -9.5q0 -7 -2 -10q-4 -9 -8 -14t-15 -3q-2 -2 -4.5 -3.5t-3.5 -4.5q0 -5 -0.5 -10t-0.5 -10q11 -6 14 -17q2 -2 3.5 -4t3.5 -5q4 -3 9 -5.5t10 -4.5q10 -5 20.5 -10
t20.5 -10q2 0 3.5 -1t3.5 -2q0 -2 -0.5 -3t-0.5 -3q-5 2 -8.5 3.5t-7.5 3.5q2 -4 3.5 -7.5t3.5 -8.5q-1 0 -2 0.5t-2 0.5q-3 5 -5 9.5t-4 9.5q-14 5 -27 12t-24 15q-2 -17 1 -32.5t2 -32.5q8 -3 13.5 -10t13.5 -12q4 -4 9 -7t10 -7q4 2 6.5 4.5t5.5 4.5q1 0 1.5 -1t1.5 -1
q-3 -3 -6.5 -5.5t-5.5 -5.5zM402 375q4 3 8 10.5t6 12.5l8 17q5 5 9 15v6q1 7 2 15.5t0 16.5q-4 0 -5 1.5t-3 3.5q2 2 4 0.5t4 -2.5q-1 2 -3.5 3t-3.5 3q1 1 1.5 0t1.5 -1q-1 2 -2.5 2t-2.5 2q2 1 4.5 -0.5t4.5 -1.5l-12 6h3l-3 1q0 1 -1 1t-1 2q-7 2 -14.5 3.5t-13.5 3.5
q-9 2 -12 6q11 1 21 -3.5t21 -5.5q9 -1 16.5 -0.5t13.5 3.5q9 2 12 11.5t5 20.5q2 10 3.5 20.5t4.5 21.5q2 4 4 9.5t1 10.5q0 3 -1 6l-2 6q-3 13 -3 26q-3 -2 -10 -1.5t-9 4.5q0 -2 1 -2q2 -2 2 -4.5t1 -4.5q2 -5 6 -8t5 -8q2 -8 -4 -15.5t-8 -13.5q-4 3 -2 7q1 5 5 9t5 9
q1 6 -4 9.5t-7 8.5q-1 2 -0.5 3.5t-0.5 3.5t-2 3.5t-2 3.5q-3 5 -4 10.5t1 9.5q1 1 2 1q0 -1 0.5 -1t0.5 -1q-3 -6 -1 -9.5t5 -8.5v2q5 2 11 0.5t8 -5.5q2 8 4 13.5t4 11.5q-8 4 -16 3q-2 -1 -4.5 -2.5t-4.5 -0.5q-4 0 -4 5q1 3 7 3.5t10 1.5q2 0 5 1t5 -1q-4 5 -6.5 10
t-2.5 13q-1 3 -0.5 5.5t-0.5 6.5q-2 2 -4.5 6t-4.5 6q-4 9 -15 17q0 -1 -3 -1q-2 2 -2 3q-1 -1 -2 0q-1 2 -1 4t-1 3q-2 0 -1 -1.5t0 -2.5q-2 0 -1.5 1.5t-1.5 1.5t-1.5 -1t-0.5 -1q-2 1 -1.5 2.5t-0.5 2.5q-2 0 -2 1q-1 -1 0 -2t0 -2q-2 2 -1.5 4t-1.5 3h-2q0 -1 1 -2.5
t-1 -2.5q-1 1 -0.5 2t-0.5 3h-2q0 -2 1 -3t-1 -2v5q-2 -1 -2 -2.5t-1 -2.5q-2 0 -1 2q-2 -1 -2.5 0t-1.5 -1q-3 2 -4 3l-3 -3q0 1 -1 1t-1 1q-2 -2 -5 -2v2h-2q-2 0 -1 2q-1 0 -1 -0.5t-1 -0.5q-1 1 0 1t1 2q-4 -4 -7 -4q-1 0 -0.5 1t1.5 1q-2 0 -6 -1t-6 -3v1l1 1
q-2 0 -4 -2t-4 0q0 -1 -2 -2t-4 1q-3 0 -10 -3q-2 1 0 2t0 1q0 -1 -1 -1t-1 -1q-1 0 -1 1q-3 -2 -5 -1t-5 -1q-2 2 -4.5 -0.5t-4.5 -0.5q-1 0 -1 -1h-2q-1 1 0.5 2t-0.5 1q-5 -4 -6 -11.5t-3 -13.5q1 -1 1 -3q-4 -10 -5 -19t-6 -20h1l-10 -29v-8v-8h1q-1 -3 -1 -10h-3l-3 7
q-1 1 -1 0v-2q-2 0 -2 3v5q-7 3 -11.5 7.5t-12.5 3.5q-5 -1 -8 -4.5t-5 -8.5q-2 -10 -0.5 -23t6.5 -22q3 -4 6 -7.5t7 -7.5q3 -4 7 -7t11 -1q0 2 1 2t2 1q5 -4 8.5 -10.5t8.5 -11.5t11.5 -8.5t12.5 -8.5q13 -8 24 -13v-1q-8 1 -15 5l-14 8q-5 4 -10.5 7t-9.5 6q-5 5 -8 10.5
t-7 10.5q-2 0 -3.5 -1t-3.5 -1q-5 -2 -8.5 1t-6.5 5q-1 -2 -2 -5t-3 -5q2 -5 1.5 -9.5t0.5 -8.5q-2 -17 2 -31t1 -32q0 -1 -0.5 -1.5t-0.5 -1.5q-1 -3 0.5 -6.5t-0.5 -6.5q4 -10 10 -18t11 -17q3 -4 6 -7.5t7 -7.5q4 -9 11 -17l7 -8l11 -10q12 -9 20 -22q9 13 31 23q3 1 5 2
t5 3q2 2 3 2t2 1zM792 93q0 -7 1.5 -13t0.5 -11q-3 -14 -9 -20q-1 -1 -3 -2t-3 -3q0 -4 1.5 -7t1.5 -7q-1 -3 -3 -6t-4 -7q-2 -3 -2.5 -6.5t-2.5 -7.5q-2 -6 -5.5 -13.5t-3.5 -14.5v-8q0 -5 -2.5 -7.5l-4.5 -4.5q-2 -4 -3 -8t-3 -9l-15 -27q-2 -3 -5.5 -8t-7.5 -7
q-9 -3 -24.5 -3t-23.5 4q-5 3 -12.5 8.5t-10.5 9.5l-3 8q-8 11 -16.5 21.5t-19.5 19.5q-1 -14 1 -24t6 -21q4 -14 6 -27q3 -14 8 -26.5t3 -27.5q-4 2 -4 5.5t-1 5.5q-2 11 -4.5 20.5t-4.5 19.5l-10 41q-1 3 -1 6.5t-2 6.5q0 2 -1 3t-2 3v19q0 17 2.5 28.5t3.5 25.5l4 36
q1 10 1.5 19t0.5 18l5 36q2 19 3.5 36.5t2.5 35.5q2 20 1 38.5t1 36.5q0 7 0.5 13.5t1.5 12.5h3q0 -16 -1.5 -31t-0.5 -30q1 -10 0 -20t-1 -20q0 -20 -2.5 -39t-4.5 -38q0 -10 -1 -19l-2 -18q0 -20 -3 -39q-2 -10 -2 -19t-2 -19q0 -8 -1.5 -14t-2.5 -14v-4t2 -4q2 5 4.5 11
t4.5 11q2 2 2 3.5t1 1.5q-1 -8 -4 -15t-5 -15q6 -6 12 -14t11 -16l8 -10q1 -1 1 -2t1 -3q2 -4 5.5 -7t6.5 -6q3 -4 6.5 -7t5.5 -4q8 -3 23 -3t22 3q5 2 8 6t5 8q4 6 6.5 12t4.5 13q3 7 6.5 12t7.5 13q2 5 2 10t2 10q3 11 6 19.5t8 16.5l4 6q0 3 -2 6t0 6q-6 -5 -11.5 -11.5
t-10.5 -12.5q-2 -2 -4 -5t-4 -1t0 5t4 5l8 8q7 11 15 17q6 2 9 5q9 8 8 24q-1 14 -1 28.5t-3 23.5q0 -2 -0.5 -2.5t0.5 -2.5q-6 -11 -11.5 -23t-12.5 -23q-3 -1 -9 -0.5t-11 -0.5q-5 0 -9.5 -1t-8.5 1q-4 1 -5 2.5t-3 6.5t-6.5 9.5t-8.5 9.5q-2 2 -4 5l-4 6l-4.5 4.5
t-2.5 4.5q-1 3 1 5.5t0 5.5q-3 -2 -3 -9q-2 -4 -2 -9q-2 -10 -4 -19.5t-5 -18.5q-2 -5 -3.5 -9t-1.5 -8q-2 -5 -0.5 -11.5t1.5 -11.5q1 -7 1 -12v-10q1 -11 3 -22t3 -22q-5 5 -6 15.5t-4 18.5q-2 -6 -2 -13.5t-2 -14.5v-4t-2 -3q-3 -1 -2 3.5t1 5.5q0 7 0.5 13t1.5 11l3 12
q0 4 -1 7.5t-1 7.5v27q-3 -4 -6 -9t-6 -9q-2 -2 -2.5 -4t-1.5 -1q4 18 18 33q1 2 1.5 0.5t1.5 -0.5l12 48q1 5 1.5 12t5.5 9q0 5 2 15q-4 0 -6.5 1t-5.5 2q-5 -11 -9.5 -22t-9.5 -20q4 10 7 21t8 22q-10 1 -16.5 5t-11.5 9l3 19q1 5 2.5 10t1.5 10q0 2 -0.5 3.5t-0.5 3.5
q0 6 6 10q-2 2 -2 5q-3 11 3 17t7 15q-5 9 -7.5 18.5t-5.5 19.5l7 2l4 -21q5 4 7.5 9t9.5 7q1 2 3 3t4 3q4 1 7 4l6 11q2 2 3 1.5t2 1.5q0 1 1 1.5t2 2.5q1 1 1.5 2t2.5 2l9 3q3 2 6 3.5t5 1.5q4 0 9 -3.5t10 -5.5q9 -5 17 -7.5t13 -9.5q4 -8 0 -15t-4 -15q-2 -15 0 -31
t2 -30q0 -5 -1 -10.5t-1 -11.5q1 -5 1.5 -11t0.5 -11q1 -9 2 -16.5t3 -13.5q-1 -5 0.5 -7.5t2.5 -7.5q7 -5 7 -16.5v-23.5zM281 253q-2 11 -4.5 22t-4.5 22l-8 33l-3 11q-2 7 -2.5 14.5t-2.5 16.5h-1q-2 -3 -4.5 -8t-5.5 -10q-2 -4 -5 -7t-6 -8q-7 -11 -15.5 -23t-17.5 -22
q10 -25 17.5 -50.5t19.5 -48.5q5 -8 7.5 -16t6.5 -16t6.5 -16t6.5 -16q1 -5 2.5 -9t3.5 -7q2 -9 5 -17l6 -16q5 -8 6 -13q2 -8 4.5 -15t6.5 -13q2 -6 2 -9l4 -5q4 -6 7 -14l6 -16l8 -23q2 -4 3.5 -8.5t0.5 -9.5q2 7 0 12.5t-2 10.5t0.5 9t0.5 9q-1 10 -3 20.5t-3 21.5
q-1 10 -3 20.5t-4 20.5l-11 62l-4 21q-5 22 -10.5 44.5t-9.5 45.5zM524 244q4 14 6.5 27t6.5 26q-5 3 -9.5 6t-9.5 7q-7 6 -12 14l-15 10q-3 4 -6.5 6.5t-7.5 5.5l-7 5q-4 3 -6.5 5.5t-7.5 3.5q0 -7 -0.5 -12.5t-0.5 -12.5q-1 -8 0.5 -16t2.5 -16t1.5 -16.5t0.5 -16.5
q2 -17 2.5 -33.5t-0.5 -33.5v-34v-16.5t-2 -16.5q-4 -30 -6 -65l-4 -30v-17t-2 -16q-1 -8 -1.5 -16t-0.5 -16q0 -17 1 -34t1 -34q2 5 1.5 11t0.5 12l4 14q2 10 3 21.5t3 22.5l4 13l18 70q2 8 2.5 15.5t2.5 13.5l5 10q2 8 4 24q4 17 8 33l8 32q2 6 3.5 11t3.5 11q1 6 2 11
t3 11zM680 205q5 -2 11 -5.5t8 -10.5q-2 0 -3.5 3t-3.5 4q5 -28 22 -50q-1 0 -2 1q-1 -2 1 -2.5t2 -2.5q-7 3 -15 11q-4 6 -6 7q0 -10 3.5 -16t7.5 -11q8 -11 19 -17t20 -16q4 2 6.5 5.5t6.5 5.5l13 20q2 3 3.5 5.5t1.5 6.5q2 10 0 20t-3 21q-1 8 -0.5 16.5t1.5 16.5
q1 7 0 13t-2 14q-1 10 -1.5 20.5t0.5 18.5q0 3 1 6l2 6q4 8 4 10q0 5 -3 8t-6 5q-2 1 -7 1q-3 2 -6.5 3.5t-6.5 2.5q-6 2 -11 4t-9 5q-3 0 -5 -1.5t-4 -2.5q-2 -2 -5 -2.5t-5 -2.5q1 -2 10 -5t11 1q5 -2 7 -5t6 -6q7 -2 7 -5q0 -2 -2 -6t-3 -7q-2 -3 -3.5 -7t-0.5 -7
q0 -2 1.5 -2.5t1.5 -3.5q-5 2 -6.5 4.5t-5.5 6.5q-2 2 -5.5 5t-5.5 6q-13 1 -27.5 1.5t-24.5 -4.5q-2 -3 -4 -5t-1 -7q1 -1 2 -1.5t2 -2.5q5 1 9.5 1h10.5q3 0 6.5 0.5t6.5 0.5q2 -1 3 -3.5t3 -4.5q5 -5 9 -10t9 -9q-8 -2 -16.5 0.5t-16.5 4.5q-3 1 -6.5 2t-6.5 1
q-4 0 -7 -1.5t-7 -2.5q-5 -4 -7.5 -10.5t0.5 -13.5l14 7q8 -2 15 -4t14 -3q5 -2 9.5 -2t7.5 -3q-2 -2 -5 -3.5t-5 -1.5q-4 0 -9 1.5t-9 3.5t-8.5 4.5t-7.5 2.5q-5 0 -11 -4t-10 -6q0 -2 -1 -5t1 -5q6 -2 12 -3t11 -3q2 0 2 -0.5t2 -0.5zM253 632q0 1 1 1h1q3 5 7.5 9t11.5 2
q5 -1 8.5 -4.5t8.5 -5.5q2 2 2 5t2 6h-1q2 5 5.5 9t5.5 10l-2 -2q0 1 -0.5 2t-0.5 2q0 2 2.5 4.5t2.5 5.5q1 3 2.5 7t2.5 6t0.5 5t1.5 6q-2 -2 -2.5 -4t-2.5 -4q0 3 1.5 5.5t2.5 4.5q2 3 -0.5 0t-3.5 -5q0 3 1 5.5t2 4.5h-1l4 16q-1 0 -1 -1v2q-2 -2 -4 -5.5t-4 -5.5
q1 4 3.5 8t4.5 9q-2 0 -3.5 -2.5t-3.5 -4.5q-4 -5 -7 -11t-8 -11q8 19 20 31q-4 -2 -7.5 -6t-5.5 -7q1 6 6 9q-2 0 -3 1q2 2 3.5 3t3.5 3q-10 1 -16 -6t-12 -13q2 5 5.5 9.5t8.5 7.5q-1 0 -2 -1t-3 -1q2 5 6 6t9 3q-7 0 -11.5 -3.5t-10.5 -6.5q3 7 8 8q-4 2 -6.5 -1t-5.5 -4
q5 9 19 12v-2h4v3h3q-4 2 -8.5 0.5t-9.5 -1.5v1q-2 1 -3.5 -0.5t-3.5 0.5q2 2 6 2t6 2q-3 -1 -7 -0.5t-7 -0.5l1 1q-1 0 0 1q-5 -1 -9.5 -5t-10.5 -6q2 3 8 7q-7 -1 -10.5 -7t-7.5 -9q-10 -13 -13 -31t-5 -38q1 1 1 2.5t1 2.5q-1 -8 0.5 -16.5t0.5 -18.5q1 1 1 -2q1 1 0.5 2
t0.5 2q1 -4 0.5 -8.5t1.5 -8.5q2 5 5.5 6t5.5 6q1 0 1 -4q3 3 3 7zM173 -35q2 -8 2 -10q2 -14 1 -29t-3 -29v-43q-1 -6 -1.5 -11t1.5 -9q-2 -1 -1 -3t-1 -2q-7 0 -5 9q-3 7 -5.5 15t-5.5 16q-2 8 -4 17.5t-7 14.5q-5 7 -17 9.5t-26 0.5q1 -2 4 -3.5t2 -6.5q-2 0 -4 2t-3 4
q-4 4 -2 9q10 1 19.5 0t15.5 -5v1q-14 7 -28 13.5t-26 14.5q9 -2 16.5 -5t15.5 -6q10 -5 19.5 -9t15.5 -12q2 4 2 6q-5 3 -9.5 5.5t-9.5 4.5q-2 1 -4.5 1t-2.5 3q3 2 5.5 1t5.5 -2q5 -2 9 -4.5t8 -4.5q3 7 2.5 14.5t-0.5 17.5v18t1 17q1 4 2 7.5t0 5.5q0 3 -2 9
q-4 14 -8.5 27.5t-6.5 27.5l-12 14t-11 14q-2 2 -5 4t-2 6q4 -1 5 -3t3 -3l18 -22q-2 9 -3 18t-4 19l-10 33q-3 14 -5.5 28t-6.5 28q-1 5 -2.5 9t-0.5 9q4 -9 7.5 -18.5t5.5 -18.5q2 -6 2.5 -12t2.5 -13q4 -11 8 -23t7 -23q3 -12 5 -24.5t6 -25.5l10 -35q2 -3 2 -6t2 -7
q0 -1 1 -2t1 -3q1 -2 1.5 -6t2.5 -8q2 -8 3.5 -13t3.5 -13zM195 346q7 -5 13 -9t14 -7l30 44l4 2q-2 17 -2 34t-1 34q-8 -8 -17 -15.5t-22 -11.5q-5 -18 -8 -37t-11 -34zM280 394q2 4 5 6t7 6q7 -2 10 -6t7 -9q-3 6 -8.5 11.5t-9.5 12.5q-2 2 -3.5 4.5t-3.5 6.5
q-5 8 -10.5 16.5t-8.5 18.5q-5 -6 -6 -15.5t-1 -19.5q-1 -9 0 -18.5t2 -17.5q1 -4 0.5 -8t-0.5 -8q2 -13 6 -25t4 -24q2 -1 3 -2t3 -2l-4 43q0 5 -1 9.5t1 8.5q1 3 3.5 6.5t4.5 5.5zM782 125q0 4 -1 7.5t-2 7.5q-2 -6 -5 -11.5t-5 -10.5l-25 -24q-2 0 -2.5 1.5t-2.5 3.5
t-5 4.5t-6 4.5q-4 2 -7.5 4.5t-5.5 4.5q-8 5 -13.5 13.5t-9.5 17.5q-1 -6 -1 -11.5t-2 -10.5q8 -11 17 -22t17 -23q10 0 18.5 0.5t19.5 0.5q2 8 6 16.5t9 16.5q2 2 3.5 5zM482 736q-2 0 -1 -1t1 -2q-4 9 -9.5 16t-16.5 7q-3 2 -7 2.5t-9 1.5q-2 0 -5 0.5t-6 0.5t-6 -1t-8 -3
l-21 -9h1q1 0 1 -2q2 0 2.5 1.5t2.5 1.5q2 -1 3.5 -2t3.5 -1q0 -3 -2 -3q1 0 4 3q2 -1 5 1q1 0 2 -1l3 4q7 -1 14 -1.5t14 -0.5q7 -1 11 -4.5t7 -5.5q-3 1 -5.5 2t-6.5 3h-4q-5 -2 -8.5 -1t-7.5 1q2 -3 5 -2.5t7 -0.5q5 -1 9.5 -2.5t6.5 -4.5q1 -2 2.5 -4t3.5 -5q-3 -2 0 -5
q1 0 1 3q2 -4 0.5 -7.5t0.5 -6.5q2 2 3 7l2 10q2 -5 0.5 -11t-5.5 -8l4 -5q2 3 6 4.5t5 5.5q1 6 0 13t-3 12zM168 -99q0 12 1.5 25t0.5 26q-2 10 -5 20t-5 20q-2 -5 -2 -14.5v-17.5t1 -16.5t-1 -14.5q0 -8 -3.5 -14.5t-5.5 -13.5q8 -11 11 -24t6 -27q1 12 0.5 25t1.5 26z
M447 376q2 -3 2.5 -7t1.5 -6q0 12 -1.5 27.5t-0.5 31.5q0 4 0.5 8t0.5 7q-1 2 -1.5 2t-1.5 1q-1 3 -1.5 7t-4.5 5q0 -10 -3 -17.5t-8 -15.5q-4 -8 -7 -14.5t-7 -12.5q2 0 4 2t6 1q2 -1 5.5 -4t5.5 -5l5 -5zM425 773q-11 0 -21 -3t-17 -7q-2 -3 -4.5 -5t-4.5 -5q1 -1 1.5 0.5
t1.5 1.5q0 -4 -5 -7q2 0 3.5 2t3.5 3v-3l20 10l5 3q9 4 18 2q9 -1 17 -3t17 -4q13 -3 19 -16q1 3 -1.5 5t-4.5 4q1 1 4 -2q0 2 -1 5t0 5l-17 8l-10 4t-10 2q-3 1 -7 0.5t-7 -0.5zM347 331q2 -2 5.5 -1t5.5 0q-5 17 -15.5 27t-23.5 18q-12 11 -19 22q-1 -1 -1 -2
q4 -4 5.5 -10.5t5.5 -12.5l6 -5q4 -4 5 -7q2 -3 4.5 -7t4.5 -6t4.5 -4t4.5 -4t4 -4.5t4 -3.5zM338 768q-5 -3 -8.5 -5.5t-6.5 -6.5q2 0 3.5 2.5t3.5 2.5t2 2.5t2 0.5v-1v-1h1q-1 -2 -2.5 -2.5t-2.5 -2.5q2 1 3 2.5t3 2.5l-5 -7q1 0 2 1t3 2l6 3l-8 -8q3 1 6.5 3.5t7.5 4.5
q2 0 10 2q1 -2 3.5 -1t4.5 0l-7 -3v-1q7 0 12 3q-1 -3 -4.5 -5.5t-6.5 -5.5q2 0 3 1.5t3 0.5q1 1 5.5 6t4.5 4q0 -2 -3 -5q1 -1 1.5 0.5t2.5 1.5q5 7 12.5 10t16.5 6q-2 0 -8.5 1t-11.5 1q-8 -2 -14.5 -5.5t-14.5 -5.5q2 2 6 4t7 4q-10 4 -20 1l-1 -1q-2 -1 -4 -3.5t-7 -2.5
zM372 669q-2 0 -4.5 -1.5t-5.5 -0.5q6 2 12 5.5t14 5.5q2 1 5.5 1.5t5.5 -0.5q9 -2 18.5 -5t16.5 -8q-1 -3 -5 -5q-11 4 -19 5q-11 3 -20 3h-18zM403 370q-12 -7 -24 -13t-21 -16l3 -9q2 3 3 7t5 5q3 2 5.5 -0.5t5.5 -4.5q6 7 11.5 14.5t11.5 14.5v2zM416 638
q-2 -3 -8.5 -2.5t-11.5 1.5q-6 2 -13.5 2.5t-11.5 3.5q1 2 4.5 2.5t6.5 0.5q8 2 16.5 2t14.5 -2q0 -3 1.5 -4t1.5 -4zM645 362q-11 8 -22.5 16t-23.5 19q13 -8 24.5 -17t22.5 -17q5 -5 11 -9.5t12 -7.5l23 -19l-6 3l6 -4v-1q-7 5 -13 9t-11 8q-12 7 -24 17q-12 7 -24 14.5
t-23 18.5q13 -8 24.5 -16.5t23.5 -16.5q5 -5 11 -8.5t12 -6.5zM721 304q3 -2 7 -6.5t6 -9.5q2 -6 4 -7q0 7 1.5 12.5t2.5 11.5q-4 1 -10 9q-3 0 -5 -0.5t-4 0.5q-2 -8 -2 -10zM263 596q0 -10 7.5 -12.5t9.5 -9.5q-4 2 -8 4.5t-7 6.5q-4 4 -4.5 9t-0.5 11q0 7 2 13t4 11
q10 3 16 -4q5 -6 -0.5 -10t-8.5 -8q-1 5 2 8t5 7q-1 1 -1 4q-2 -1 -4 1t-5 1q-2 -2 -3 -6l-2 -8l-2 -10t0 -8zM641 327l-47 11q-24 5 -47 9.5t-46 11.5q23 -5 46.5 -9.5t46.5 -10.5q11 -3 22.5 -5.5t24.5 -4.5l46 -11zM688 320q-13 3 -24.5 6.5t-22.5 7.5q-13 4 -24.5 8
t-22.5 7l-93 30q23 -7 46.5 -14t46.5 -15q11 -3 23 -7t24 -7q11 -5 23 -8.5t24 -7.5zM470 -82q4 0 4 4.5t2 7.5q4 -5 1.5 -12t-7.5 -7q-4 0 -6 3.5t-3 8t0 9.5t3 8q7 0 6 -3q0 -1 -1.5 -0.5t-2.5 -0.5q-3 -3 -2 -10.5t6 -7.5zM285 611q0 -11 7 -17q1 -4 2.5 -7t1.5 -8
q-10 -1 -19.5 5t-2.5 15q-2 -9 3.5 -11.5t13.5 -4.5q-2 2 -2 4.5t-1 5.5q-1 2 -3 3t-3 3q-2 2 0.5 4.5t1.5 7.5h1zM415 555q5 0 9.5 -0.5t9.5 -0.5q3 1 5.5 1.5t5.5 0.5q2 0 4 -1t4 -1h4q2 0 2.5 -1t2.5 -3q1 -1 2.5 -1t0.5 -2q-2 -2 -4 0.5t-4 3.5q-2 0 -3.5 -1t-3.5 0
q-4 2 -6 2q-4 1 -6 0t-4 -1q-4 -1 -8.5 0t-9.5 1q-10 -2 -12 3h11zM703 320q-2 -3 -3.5 -5.5t-3.5 -4.5l10 -2t10 -1l1 -2q1 2 0.5 5t-0.5 5q-4 1 -6 3.5t-8 1.5zM311 507q1 -4 2 -7t3 -7q9 -20 18.5 -38t20.5 -36q-8 12 -15.5 23.5t-13.5 24.5q-5 14 -11.5 27t-9.5 28
q3 -3 3.5 -7t2.5 -8zM680 316q2 -1 6 -1v-1l-39 3q-5 0 -13 2h13q2 0 3 -0.5t3 -0.5l-1 1l-33 5h1q8 -1 16.5 -2t16.5 -1l34 -5h-7zM416 455q2 2 2.5 4t2.5 4q-3 -18 -15 -32q-6 -8 -9.5 -16t-6.5 -18q3 20 13 34q5 6 8 11.5t5 12.5zM608 322q6 -2 7 -2q-5 0 -7 1
q-40 2 -77 6l38 -2t39 -3zM552 331q17 -1 33 -3t33 -4q-17 0 -33 2t-33 5zM537 444q13 -6 26 -18q3 -4 6 -6t7 -4q3 -1 12 -10q-4 2 -7 4.5t-6 4.5l-13 9zM577 370q14 -5 27 -11.5l25 -12.5q-26 9 -52 23v1zM615 413l21 -21t18 -21l3 -4l-3 3q-9 10 -18.5 20t-20.5 23z
M451 593q-4 -1 -7.5 -2.5t-6.5 -1.5q-2 3 0 6q2 1 8.5 2t5.5 -4zM373 331q2 1 4 5l-3.5 3.5t-3.5 0.5q-2 0 -3 -3t-1 -5q2 0 3.5 -0.5t3.5 -0.5zM690 324q-6 2 -12 4.5t-11 5.5q-5 4 -11 7.5t-11 5.5l23 -10q5 -4 11 -7t11 -6zM600 370q22 -8 45 -23q-12 5 -23 11zM568 411
q-5 3 -9.5 6t-9.5 7q5 -2 10 -5.5t10 -6.5q2 -2 4.5 -3.5t4.5 -3.5q3 -1 10 -8q-8 4 -11 7zM689 322q-8 2 -15 5t-13 6q-8 3 -14 6l-14 7zM667 356l7 -6q12 -10 20 -21l-21 20zM439 542q3 2 8 1t8 -2q-3 -2 -8.5 -2t-7.5 3zM341 749q4 2 8 5.5t9 5.5q-7 0 -10 -4t-7 -7z
M457 638q4 6 9 4q-2 -1 -4.5 -2.5t-4.5 -1.5zM416 647q2 -1 3.5 -3.5t-1.5 -3.5q0 2 -1 3.5t-1 3.5zM327 750q3 0 6 5q-2 -2 -3.5 -2.5t-2.5 -2.5zM311 750q1 -1 4 -1q0 1 0.5 2t0.5 2l-1 -1q-1 -1 -1 -2h-3zM352 751q-2 0 -4 -2.5t-4 -3.5q2 0 4 2zM657 367q2 -2 3 -2.5
t2 -2.5zM433 741v2h1q-2 -2 -1 -2z" />
    <glyph glyph-name="cid18383" unicode="&#xe4;" horiz-adv-x="1446" 
d="M1366 -4q10 -8 20 -20t17.5 -26.5t11 -31t-0.5 -34.5q-4 23 -9 40t-14 33q-20 30 -49.5 48.5t-60.5 36.5q-8 3 -14.5 8.5t-14.5 11.5l-26 21q-11 9 -21 20.5t-21 21.5q-11 9 -22 19.5t-16 26.5q-2 -11 -2 -22t-1 -22q-3 10 -2.5 21.5t1.5 22.5q-5 2 -3 7t-3 7
q0 2 1.5 0.5t1.5 0.5l8 46q-1 2 -2 -2.5t-2 -2.5q-2 8 2 16t2 17t-11 18t-8 18q5 -6 10.5 -14t10.5 -16q2 6 3 13.5t-1 15.5q-3 3 -6.5 7t-5.5 9q-9 2 -16 9t-15 14.5t-17.5 12.5t-23.5 4q-2 0 -5.5 -1.5t-7.5 -1.5q-5 -1 -12 -0.5t-11 -1.5q-8 -4 -7 -13.5t5 -16.5
q13 -1 25 3.5t23 2.5t19 -7.5t15 -12.5q-11 0 -18 6.5t-15 8.5q-13 2 -26 -2.5t-28 -2.5q-11 -6 -7 -16.5t11 -16.5q6 4 17 6t22.5 1.5t21.5 -3t15 -7.5q-11 1 -27.5 4t-32.5 1q-6 -1 -13.5 -3.5t-9.5 -4.5q-4 -3 -3.5 -8.5t0.5 -10.5q14 -2 34 0t37 -1q2 0 3.5 -1t3.5 -2
q3 0 5.5 1t4.5 -1q10 -2 11 -14t-3 -22q-2 8 -1.5 19t-7.5 16q-20 -2 -45 -1.5t-45 -0.5q-2 -5 -3 -13.5t4 -11.5h14t15.5 -1.5t12.5 -4.5t6 -10q-5 -2 -7.5 2.5t-7.5 5.5q2 -4 5 -6.5t5 -4.5q0 -3 -5 -3q-2 -15 -6.5 -28.5t-2.5 -28.5q1 -5 3.5 -10t4.5 -10
q5 -16 8.5 -32.5t12.5 -27.5q4 -7 11 -9t13 -7l2 -5q6 -10 15 -19.5t15 -20.5q8 -11 17.5 -22t17.5 -23q15 -25 36 -43.5t38 -40.5q-7 2 -13.5 6.5t-11.5 9.5q-17 17 -31.5 33.5t-28.5 36.5q-8 13 -18 24.5t-19 24.5q-8 10 -14 19t-16 16q-4 2 -6.5 3.5t-5.5 3.5
q-11 8 -15 23t-9 29q-2 5 -4.5 13.5t-4.5 15.5q-2 -17 -7 -34.5t-5 -31.5q0 -5 2 -8.5t-3 -7.5q-16 1 -25 9q5 20 5.5 43t8.5 40q-5 5 -6 13.5t0 18t2.5 19t2.5 16.5q-3 2 -6.5 2.5t-3.5 5.5q-15 -1 -24.5 -9.5t-19.5 -16.5q-10 -7 -18 -11t-17 -11q11 12 26.5 22.5
t26.5 21.5q-16 -2 -28 3t-28 7q-12 1 -24.5 0.5t-24 -0.5t-21 2t-15.5 10q-3 -21 -5 -41.5t-5 -41.5q-1 2 -0.5 5.5t0.5 6.5q-2 -4 -2 -9t-1 -10l-5 65q-1 -5 -1 -13t-2 -14q-2 11 0 21t2 21q-4 -4 -3 -9t-1 -10q-3 -6 -9.5 -10t-13.5 -7q4 8 11 12t9 13q-2 -2 -4.5 -5
t-4.5 -5q-4 -2 -7 -5t-8 -4q2 7 9.5 11t9.5 14q-6 -2 -8 -8t-10 -7v3q-1 -2 -2.5 -2t-2.5 -1q2 11 10.5 18.5t10.5 20.5q-11 -3 -18 -10t-13.5 -16t-12.5 -18t-14 -16q2 10 9 16t13 13q10 14 17.5 30.5t17.5 30.5q0 2 -2 3t0 3q14 -3 19 4.5t11 13.5q-2 8 2 12.5t5 10.5
q0 6 -0.5 12.5t-2.5 10.5q-2 6 -5 9.5t-3 8.5q5 0 6.5 -3.5t3.5 -6.5q5 2 6.5 8t0 12t-4.5 11t-7 5q-8 2 -18 -5t-12 -14q-3 -4 -6 -10t-1 -10q2 13 10 19t16 14q5 -2 11 -4t8 -8q-5 1 -9.5 4.5t-8.5 1.5q2 -3 7.5 -4.5t3.5 -6.5q-12 8 -23.5 1t-7.5 -24q-2 0 -3 2t-3 0
q-1 -2 0.5 -4.5t0.5 -6.5q-2 2 -4.5 3t-4.5 5q1 -3 0.5 -5.5t1.5 -4.5q-7 2 -10 11q0 -1 -0.5 -3t0.5 -3q1 -4 3 -7t3 -5q-4 2 -6.5 7.5t-1.5 10.5h1q-4 5 -5 11q2 5 5 0q-3 5 -7 9.5t0 9.5q-8 8 -11.5 16t-8.5 16q2 1 3.5 -2t3.5 -4q1 3 -3 5t-3 7q-2 1 -5.5 3t-1.5 4
q-3 3 -6.5 7t-4.5 9q2 -1 4.5 -2.5t4.5 -2.5q2 2 -2.5 4.5t-0.5 3.5l-6 8q1 2 2.5 -0.5t3.5 -1.5q1 2 -0.5 2t-2.5 1q0 2 3 2q1 2 -2.5 4t-5.5 4q-1 2 3 2q-1 2 -4 4t-8 1q0 4 3.5 3.5t5.5 -1.5q-2 4 -7 5t-7 6q4 2 12 0q-3 5 -11 9.5t-11 12.5q7 -2 11.5 -6.5l9.5 -9.5
q4 2 5.5 0.5l3.5 -3.5q1 7 6 22t4 23q0 1 -0.5 1.5t-0.5 1.5q3 0 3 8h-4q-2 8 -7 12.5t-9 12.5q-2 0 -3 -0.5t-3 -0.5q-5 4 -11 8.5t-10 4.5q13 -10 26 -19t18 -26q-2 5 -7.5 10.5t-7.5 8.5q-9 8 -21 16t-22 13q0 4 3 1q-2 2 -8 2t-11 -1q0 2 2 5t7 2q-2 3 -1 4t2.5 2
t2.5 1.5t-1 2.5q5 -1 7.5 0t6.5 3q-2 2 -5 0t-4 2q3 2 3 3.5t2 4.5q-4 0 -6.5 1t-6.5 3q-2 -1 -1 -4t-1 -4q-6 -4 -11 -4q4 -8 1.5 -16.5t-9.5 -10.5t-12.5 1.5t-11 8.5t-10 9.5t-9.5 6.5q2 -8 8 -11.5t9 -9.5q-2 2 -3 2q3 -5 6 -13t-2 -13q3 -2 6 -2.5t7 -1.5
q-5 -3 -8.5 -1.5t-8.5 1.5q-3 0 -5 -0.5t-5 -0.5q-6 0 -8 1l3 -3q-8 0 -13 1.5t-13 1.5q5 -2 12 -2.5t12 -3.5q-1 -3 -3.5 -2t-4.5 1q2 -2 4 -2t2 -2q-6 -2 -13 -1.5t-14 0.5q3 -6 0.5 -10.5t-7.5 -7t-10.5 -1.5t-8.5 7q-4 0 -5.5 -1t-3.5 -2q-8 -12 -18.5 -22t-17.5 -24
q6 4 11 13t12 14q-5 -13 -14 -21t-15 -21q8 7 14 18t15 16q-2 -4 -4 -6.5t-4 -5.5h4q-1 -2 -2.5 -3t-2.5 -4v-5q-7 -4 -9.5 -11t-4.5 -15q1 -2 2 0.5t2 4.5q-2 -8 -5.5 -19.5t-1.5 -21.5q3 3 2.5 9t4.5 8q2 -4 -1 -8.5t-2 -11.5q2 1 1.5 3.5t2.5 2.5q-6 -14 1.5 -25t8.5 -20
q3 -16 1 -30t-1 -27q2 -13 8.5 -26.5t11.5 -24.5q3 -8 8.5 -16t10.5 -15q5 -9 8.5 -17t8.5 -15q1 -16 14 -25t25 -17q23 -2 42 2.5t35 7.5q-2 -5 -7.5 -5.5t-9.5 -3.5q5 -12 8 -25q-5 4 -6 12.5t-8 10.5q-2 -4 3 -9.5t5 -11.5q-4 1 -5.5 4.5l-3 7t-3.5 6t-6 2.5
q0 -5 4.5 -10.5t6.5 -12.5q-8 3 -10.5 10.5t-8.5 11.5q0 -7 4.5 -12t6.5 -13q-6 4 -9 10.5t-8 13.5q-4 0 -6 -1t-6 0q-1 -1 1.5 -2.5t0.5 -2.5q-2 -2 -3.5 0.5t-3.5 4.5q-5 -1 -7.5 0t-7.5 1q3 -2 7.5 -3t6.5 -5q0 -2 -1.5 -3t-0.5 -3q10 -16 19.5 -31.5t21.5 -29.5
q2 -11 6.5 -20t9.5 -16q2 -12 -3.5 -17.5t-13.5 -8.5q-1 4 4.5 6.5t7.5 7.5q2 6 0 10.5t-5 9t-5 9t-1 9.5l-42 67q-5 5 -9.5 8t-4.5 11q-17 4 -22.5 16t-13.5 23h-9t-6 4q0 -4 3.5 -7.5t2.5 -9.5q-5 1 -7.5 4t-5.5 7q-8 8 -22 18.5t-28 12.5q-12 2 -23.5 -0.5t-22.5 -4.5
q-14 -1 -26.5 -2t-25.5 -3q14 -20 23 -50.5t8 -68.5q-11 39 -19.5 73.5t-35.5 57.5q-16 14 -35 23t-45 14q0 1 3 1q-6 2 -13.5 1.5t-12.5 2.5q-5 -8 -7 -17t-5 -19q-8 -17 -23.5 -25.5t-30.5 -19.5q8 11 22 19t22 19q6 9 7 21.5t8 22.5q0 2 -1 3t0 3q0 3 1.5 1.5t2.5 0.5
q11 31 19.5 64.5t21.5 61.5q-1 2 -2.5 -3t-2.5 -2q21 33 39.5 71t43.5 65q-6 1 -10 -3t-10 -6q2 10 13 11t18 8q24 -2 40 5.5t30 16.5q-2 2 -5 0.5t-6 -0.5q8 3 14.5 6t15.5 2q5 -1 11 -5.5t14 -7.5q10 -4 17.5 -4.5t12.5 -5.5q2 -2 4 -6l4 -8t4.5 -7t6.5 -2q3 1 4 7
t0.5 12.5t-2 13t-2.5 8.5q-2 5 -9 7t-13 6q-8 6 -13 6q-2 6 -9 9.5t-9 11.5q-11 2 -19 -0.5t-16 -4.5q6 8 18 10.5t20 -4.5q6 2 16 2.5t18 -0.5q8 -11 20 -16.5t23 -12.5q3 -3 6 -8.5t6.5 -10t7.5 -6.5t10 3q-1 19 -13 36q-2 3 -5.5 5.5t-6.5 6.5q-1 2 -1 3.5t-1 2.5
q-4 5 -16.5 14t-19.5 11q-10 2 -22 1t-23 1q-4 1 -7.5 2t-7.5 1q-10 2 -19.5 0t-18.5 -3q7 3 13 5.5t14 3.5q10 0 18 -3t15 -4q11 -1 25.5 1t25.5 -3t16.5 -14t15.5 -17q6 -5 12.5 -8.5t11.5 -5.5q3 -5 7.5 -11t13.5 -4q6 2 6 10t-6 10q-2 13 -9 20.5t-13 16.5
q-8 7 -15.5 17.5t-18.5 13.5q-10 4 -24 1t-28 -1l-13 4q-8 1 -15 -1.5t-15 1.5q10 1 20 4t19 -2q11 5 27 8.5t31 6.5q7 3 10 11t0.5 13t-7.5 3q-8 -3 -14.5 -10.5t-14.5 -10.5l-11 -5.5t-11 -4.5q-11 -3 -20.5 1t-20.5 2q-7 -2 -15 -8t-16 -11q-6 -5 -14 -9t-14 -9
q-16 -8 -31 -16.5t-33 -13.5q-8 -2 -15.5 -3t-12.5 -4q-6 -2 -10 -6.5t-9 -9.5q-2 -2 -5 -3.5t-5 -3.5q-11 -12 -18.5 -20.5t-21.5 -19.5q-7 -5 -11 -11t-9 -11l-59 -74q-8 -12 -17.5 -20.5t-20.5 -16.5l-22 -14t-21 -17q-5 -4 -8.5 -10.5t-8.5 -11.5q-13 -17 -22 -36.5
t-18 -41.5q-6 -14 -10.5 -27.5t-12.5 -27.5q-5 -11 -13.5 -25.5t-10.5 -28.5q-2 -8 4 -16t10 -13q15 -24 49 -32q17 -5 34.5 -10.5t28.5 -15.5q3 1 1 2.5t0 1.5q4 1 6.5 -2t5.5 -6q7 -8 15 -15.5t17 -13.5q5 -5 11.5 -7.5t13.5 -6.5q5 -4 11 -9t13 -8q26 -14 53 -25t55 -25
q3 0 0.5 -1t-1.5 -3q2 -3 6 -3t7 -2q7 -3 13 -9t13 -11q2 -2 4 -2t4 -2q4 -3 5.5 -6.5t4.5 -5.5l-10 46q8 -10 10 -25t8 -28q4 -9 11 -15t10 -14q-5 36 -8 75t-1 81q2 -22 3 -46.5t3 -48.5q1 -12 4.5 -22.5t1.5 -20.5q5 17 10 37t11 39q2 -25 -4 -45.5t-8 -44.5
q-1 -11 0 -21.5t-4 -21.5q-5 21 -17 38t-25 31q-8 7 -15.5 14.5t-16.5 13.5q-5 2 -9.5 4t-9.5 5q-23 17 -51.5 30.5t-55.5 26.5q-11 5 -21.5 12t-21.5 14q-15 8 -26.5 18.5t-22.5 24.5q-11 2 -21 6.5t-22 8.5q-11 5 -22.5 7t-22.5 6q-5 2 -9.5 5t-9.5 5q-4 2 -8 5.5t-5 8.5
q2 1 4 -1t4 -3q-4 8 -13.5 16t-10.5 17q0 8 3.5 17t7.5 17q5 8 8 15t5 13q8 17 13.5 32.5t11.5 29.5l30 57q9 14 17.5 26.5t20.5 21.5q13 11 26 19.5t24 16.5q13 9 21 21.5t18 25.5q17 25 38.5 49.5t48.5 44.5q3 7 10.5 13t15.5 12q4 4 8 10t12 8q3 2 6.5 1t7.5 0
q7 1 15 4.5t16 6.5q15 6 26.5 13.5t25.5 15.5q12 6 20.5 11.5t20.5 13.5q6 5 16 7q9 1 18.5 -2t17.5 -1q4 0 6.5 2t6.5 4q10 4 21 12q5 4 11 9.5t14 3.5q13 -2 6 -21q-1 -7 -8 -10q8 -5 14.5 -14t15.5 -14q2 -2 6 -3.5t6 -3.5q5 -5 7 -10.5t6 -10.5q17 -1 29 -6.5t21 -13.5
q13 2 28.5 -1.5t21.5 -11.5q4 5 5 12.5t3 12.5q15 3 25 -2t18.5 -12.5t16.5 -16t19 -12.5q40 -9 84 -12.5t91 -7.5q30 -2 59 -0.5t56 -0.5q37 -3 68.5 -24t36.5 -58q5 -32 -5.5 -53t-25.5 -35q-10 -8 -22 -13t-24 -9.5t-23.5 -11t-19.5 -16.5q-5 -8 -4.5 -11.5t9.5 -6.5
q5 -5 8.5 -11.5t10.5 -10.5q0 -17 -1 -34t-5 -32q-1 -2 0.5 -1t1.5 -2q-2 -8 -2.5 -16t-3.5 -14q26 -11 41.5 -32t26.5 -48l5 -12q2 -4 4 -6.5t4 -7.5q13 -8 25 -20t27 -23q10 -7 22 -11.5t23 -12.5q11 -7 21 -13.5t20 -14.5zM518 370q-1 3 -3 7.5t-4 8.5q-8 26 -18 44
q-2 4 -2 10t0.5 13t2 13t1.5 11q1 4 0 9.5t0 10.5q1 3 3.5 6t4.5 8q8 21 18 35q1 1 3 2t0 3q-9 2 -15 5.5t-14 1.5q-5 -2 -8 -5.5t-7 -5.5q-5 -3 -9 -6t-8 -5q-13 -5 -25 -4.5t-22 -4.5q-5 -2 -10 -6.5t-9 -9.5q-10 -12 -16.5 -27.5t-14.5 -29.5q-9 -16 -18 -28.5t-18 -25.5
q0 -2 2 -2.5t0 -2.5q-11 -31 -19.5 -63.5t-19.5 -64.5q8 -3 18 -3.5t18 -3.5l20 -8q11 -3 19 -7t16 -9q7 -4 12.5 -8.5t11.5 -6.5q2 -1 4.5 -0.5t5.5 -0.5q2 -1 4.5 -2.5t4.5 -1.5q5 0 10.5 3t11.5 4q15 2 33 4t35 0q14 -2 27 -11t21 -18q4 2 7 1t8 -1q-6 9 -12 20.5
t-12 22.5q-5 11 -12 22t-11 22q-2 3 -3.5 7.5l-2.5 7.5q0 3 0.5 6.5t-0.5 5.5q0 5 -2 8t-4 7q-3 11 -2 21.5t-1 21.5zM1064 356q-6 8 -1 19q2 5 4.5 5t4.5 3q-2 46 -35 59q-42 9 -83 20t-84 19q-5 -1 -13.5 -2t-13.5 -3q3 -2 3 -4v-5q3 -20 4 -42t-1 -43q2 -15 5.5 -32.5
t-0.5 -36.5q-1 -6 -7.5 -13t-8.5 -16q-2 -11 1 -20.5t1 -21.5q6 -3 11 -8t11 -7q14 -2 29.5 0.5t30.5 0.5q13 -1 24.5 -4.5t20.5 -4.5q12 -2 21 0.5t19 2.5q-2 8 0 17t6 12q-2 3 -1 5t1 5q-2 5 -5.5 8t-4.5 8q-1 2 0.5 6.5t1.5 7.5q2 8 1 16t1 13t6 7t6 6q1 16 15.5 18.5
t29.5 4.5zM1126 332q8 14 19.5 22t28.5 12q-23 -2 -32.5 12.5t-11.5 31.5q-2 26 8 49t22 34q-8 -11 -14.5 -24.5t-9.5 -30.5q3 10 8 21t13 20t18.5 15.5t24.5 6.5q20 0 32.5 -10.5t8.5 -31.5q-2 -14 -8 -31t-16 -30.5t-23.5 -21t-31.5 -2.5q-7 2 -11 6.5t-8 6.5
q3 -10 13 -12.5t21 -5.5q0 -2 -1 -1.5t-2 -1.5q28 9 48.5 26t22.5 48q-2 -9 -6.5 -17t-10.5 -11q5 7 9.5 18.5t6.5 23.5t0 23.5t-10 20.5q2 1 3.5 -1t1.5 0q-4 7 -12 10.5t-10 13.5q5 -2 8.5 -8t8.5 -7q-21 28 -59.5 38t-86.5 6q-12 -1 -26 0q6 -3 6 -13.5t3 -15.5
q2 -5 5 -6.5t5 -4.5q4 -6 5 -10q3 -15 -2 -21.5t-12 -11.5q-8 -6 -13.5 -10t-7.5 -15q15 -8 20.5 -25.5t5.5 -37.5q0 -3 2 -3.5t2 -3.5q0 -12 -3 -15q11 -2 19 -6.5t14 -9.5q0 1 2 0.5t4 -0.5zM888 564q-8 -4 -12 -13.5t-5 -20.5t0.5 -22.5t5.5 -19.5q43 -11 84.5 -21.5
t85.5 -19.5q1 10 7.5 14.5l13 9t11 11t2.5 19.5q-2 6 -7.5 9t-7.5 11q-4 8 -4 17t-9 12q-5 2 -13 1t-14 0q-32 2 -70.5 5t-67.5 8zM750 478q2 -1 0.5 -2.5t0.5 -2.5q4 13 7.5 25.5t11.5 22.5q2 -3 -0.5 -6.5t-2.5 -7.5h6q1 5 2 9t5 5q-2 -8 -1.5 -11.5t2.5 -8.5q2 4 2 10
t3 9q3 -6 0.5 -13t-2.5 -14q2 13 6 17q2 2 1.5 6t4.5 3q0 -5 -1 -9.5t3 -5.5q2 5 1 12.5t6 9.5q0 -5 -1.5 -12.5t1.5 -9.5q1 5 0.5 10.5t2.5 6.5q2 -7 0.5 -14.5t-0.5 -13.5q3 6 2 17t5 14q0 -2 -0.5 -5t1.5 -1v4t3 0q1 -5 1.5 -9t2.5 -7q4 3 2 10.5t4 7.5v-11q3 0 2 4.5
t3 3.5q1 -7 2 -14.5t0 -13.5q2 3 10.5 4t10.5 -4q-2 -2 -4.5 -1.5t-2.5 -1.5h8q0 8 -1 19.5t4 16.5q1 -4 0.5 -10t0 -11t1.5 -9.5t5 -5.5q-2 8 -3 19t0 22t4.5 20.5t10.5 14.5q-7 0 -11 3q-15 0 -24.5 7t-18 15.5t-18.5 16t-25 7.5q-10 -34 -19 -67.5t-14 -69.5zM1172 486
q-9 -5 -17 -18.5t-12 -29t-1.5 -30.5t13.5 -24q14 -10 29.5 -4t23.5 14q6 7 14 22t11 27q2 7 4 15t0 15q-2 13 -15 18.5t-25 3.5q-18 -3 -25 -9zM1075 -70q11 -9 25 -15.5t27.5 -13t26 -14.5t20.5 -19q-17 8 -31.5 17t-31.5 16q-2 -2 -4 -4.5t-1 -7.5q-7 -5 -10.5 -13
t-10.5 -13q3 25 21 40q-14 8 -28.5 14.5t-26.5 16.5q-5 0 -7.5 -4.5t-4 -10.5t-2 -12.5t-2.5 -11.5q0 -5 -1.5 -9.5t-5.5 -5.5q-3 9 0.5 21.5t5.5 23.5q-5 0 -7.5 -4.5t-4.5 -8.5q-6 8 1.5 14t9.5 12q0 -2 -1 -4t-1 -4q3 0 6.5 3t8.5 3q-3 3 -8 4t-10 1t-10 0.5t-8 3.5
q3 2 11.5 3t15.5 0q12 -2 19.5 -9.5t18.5 -8.5zM1024 217q-3 -14 -5 -32t0 -35q3 -4 8.5 -6t11.5 -4q-2 18 3 33.5t8 30.5q-4 3 -6 6.5t-6 6.5h-14zM645 439q4 -5 10.5 0t15.5 6q18 2 33.5 -2.5t20.5 -15.5q-4 1 -6 2t-4 3q-22 1 -36.5 -5t-31.5 -9q-6 -8 -10 -4t-1 11
q-1 -1 -2 -1q2 6 4.5 8t6.5 7zM755 59q21 6 40.5 8t34.5 13q14 10 27.5 19t29.5 17q-8 -8 -16 -13t-17 -12q-8 -5 -16.5 -12.5t-18.5 -11.5q-9 -4 -23 -6.5t-26 -4.5q-10 -2 -24 -5.5t-19 -8.5q-7 -9 -7.5 -20t-10.5 -16q-2 5 1 9t5 9t3 10.5t3 8.5q5 7 13 9t16 5
q4 12 9.5 21.5t10.5 19.5q0 -11 -5.5 -20t-9.5 -19zM668 601q9 0 10.5 3t-1 7t-6.5 8.5t-6 8.5q-3 5 -5.5 9.5t-5.5 7.5q-4 4 -7 5t-7 3q-9 6 -14 13t-12 12q-15 0 -28 -4t-30 -5q-1 0 -1.5 -0.5t1.5 -0.5q14 -1 26 0.5t22 -0.5q14 -1 22.5 -12t16.5 -20q8 -10 15.5 -16.5
t9.5 -18.5zM1146 180q12 -23 30 -39.5t35 -31.5q-12 25 -25.5 47t-39.5 33v-9zM665 547q-7 -1 -13 1.5t-11 2.5q4 2 10.5 2.5t13.5 0.5q-3 2 -7 2.5t-8 2.5q4 2 9 1.5t7 3.5q11 2 18 -3.5t15 -12.5q9 -7 16.5 -13t14.5 -14q3 0 7 -2q-1 -2 -2 -1.5t-3 0.5q-12 2 -24.5 7.5
t-18.5 13.5q6 -2 10 -5.5t11 -5.5q-5 3 -12 10t-15 5q-6 11 -29 8q2 -2 5.5 -2t5.5 -2zM587 555h16t13 -2q-4 2 -6 9t-7 10q-4 5 -10 7t-13 5q-5 3 -10.5 7t-9.5 4q-4 -1 -5.5 -4t-5.5 -3q5 -4 9 0t9 2q-2 -2 -6 -3t-6 -4q3 -4 8.5 -6t11 -4.5t9 -6.5t3.5 -11zM710 399
q2 -3 4 -5t3 -6q-8 1 -15 -1t-14 -4.5t-14 -3t-16 2.5q1 7 8.5 14t11.5 6l-1 -1q7 3 17 2.5t16 -4.5zM594 393q-2 3 -8 5.5t-13.5 4t-15.5 1.5t-12 -2q-6 -2 -7 -8t-4 -8q-2 0 -2 -1q-2 7 -0.5 15t6.5 11q6 4 20.5 6.5t19.5 1.5q7 -1 10.5 -9.5t5.5 -16.5zM634 45
q11 -6 17.5 -18t15.5 -23q-15 4 -19 14.5t-14 19.5q-14 11 -33 15t-31 18q-5 5 -9 12t-9 12q-8 10 -13.5 17t-5.5 22q3 -12 9.5 -21t14.5 -18q7 -7 12 -15t11 -13q11 -9 26 -11.5t28 -10.5zM1025 71q2 17 6 32t4 32q-5 1 -13 5l-3 -13q5 2 7 -2q-2 -1 -5 0t-3 -2
q1 -2 3 -2.5t4 -2.5q-2 -2 -4 -1l-4 2q0 -2 -1 -3.5t0 -3.5q7 0 8 -1q-1 -2 -4 -1.5t-5 0.5q1 -3 0 -4.5t-1 -3.5q4 1 7 -0.5t2 -3.5q-2 1 -4 1.5t-5 0.5q0 -6 -1 -6q5 0 8.5 -1t2.5 -3q-2 0 -4.5 0.5t-6.5 0.5v-5q8 -2 10 -5q-6 0 -10 2v-7q2 -2 6 -2.5t6 -2.5zM506 470
q10 16 21.5 36t29.5 27q-3 9 -12 12q-14 -12 -25.5 -29.5t-16.5 -37.5q4 10 8.5 19.5t11.5 14.5q-5 -9 -9.5 -18.5t-7.5 -19.5q-1 -2 -2 -5.5t2 1.5zM552 362q-1 2 1 3t3 3l-4 -2t-5 -1q3 4 5.5 8t10.5 4q8 8 18.5 4t14.5 -10q-5 -8 -18 -9.5t-26 0.5zM664 257
q-11 1 -16.5 -1t-13.5 -4t-14 -3t-11 -6q-3 -2 -5 -6t-7 -2q1 7 7 11.5t13.5 7.5t15.5 5t14 4q11 -2 23 -2.5t22 -3.5q-6 -4 -13.5 -2t-14.5 2zM845 483v6q0 -1 -1 0q-8 -3 -14 -10t-16 -12q-5 -2 -12 -4.5t-14 -3.5q-11 -2 -19 2t-18 4q1 -8 8 -9t12 -2q5 0 11.5 -0.5
t14.5 1.5q9 2 18.5 10t17.5 13zM959 57q5 -3 6 -12.5t3 -17.5q6 -20 12 -42.5t7 -46.5q-8 30 -15 59.5t-13 59.5zM603 376q2 -9 -3 -19t-8 -17q-1 6 1 12.5t3.5 12.5t1.5 11.5t-5 10.5q-6 1 -12.5 1.5t-11.5 -1.5q5 8 15 6.5t16 -5.5q-1 -3 1 -5.5t2 -6.5zM703 -98
q3 11 5 22.5t9 19.5q1 0 2 -1q-8 -17 -11.5 -37.5t-11.5 -36.5q-1 8 2 15.5t5 17.5zM1009 -75q6 -13 10 -29.5t3 -33.5q-5 14 -7.5 31t-7.5 32h2zM752 592q-8 2 -16.5 4t-16.5 -2q15 -1 27 -5.5t23 -6.5q-2 5 -7 6.5t-10 3.5zM673 570q31 -3 42 -23q-11 6 -20.5 12.5
t-26.5 6.5q1 2 2.5 2t2.5 2zM807 346q5 2 9 -3t5 -11.5t-1 -12.5t-8 -7q4 8 3 19t-8 15zM1229 501q-22 2 -53 0q9 6 26.5 6t26.5 -6zM528 328q2 8 1.5 22t-7.5 17q2 -8 1.5 -19.5t4.5 -19.5zM1013 300q0 7 3 10.5t8 5.5q-1 6 -5 11q-7 -1 -7.5 -11.5t1.5 -15.5zM705 506
q4 1 9 -1t10.5 -6t10 -8.5l7.5 -7.5q-11 2 -19 10.5t-18 12.5zM619 305q2 10 12 10.5t15 -4.5q-8 -1 -13.5 -3t-13.5 -3zM1022 277q-2 5 -5.5 8.5t-5.5 7.5q-2 -7 -2 -13t4 -9q3 1 5 2.5t4 3.5zM482 25q-1 17 1.5 37t2.5 37q0 1 1 1q0 -17 -1 -38t-4 -37zM197 159
q-5 -1 -8.5 -4.5t-9.5 -1.5q5 3 10.5 6t11.5 1q1 -5 5 -8.5t2 -8.5q-6 2 -7.5 6.5t-3.5 9.5zM738 570q0 3 -2.5 3.5t-2.5 3.5q2 1 3.5 -0.5t2.5 0.5q-8 2 -16.5 6t-17.5 3q7 -4 16 -7.5t17 -8.5zM700 524q8 -1 17.5 -4.5t14.5 -7.5q-8 -2 -17 3t-16 7q0 2 1 2zM771 592
q-8 4 -21 9t-24 1q23 -3 37 -9q2 -1 4.5 -3t3.5 2zM1040 73q1 -8 1.5 -17.5t0.5 -17.5q-6 5 -5.5 16t3.5 19zM745 583q2 -4 8 -7t11 -6l2 4t1 5q-5 -2 -11 2t-11 2zM797 184q8 -2 10 3.5t7 6.5q-2 -11 -11 -13.5t-18 -7.5q2 5 5.5 7t6.5 4zM719 511q3 -2 7.5 -4t5.5 -7
q-8 5 -16.5 8.5t-15.5 10.5h2q8 -3 17 -8zM626 237q2 6 12 8.5t13 -0.5q-3 -5 -10 -5.5t-15 -2.5zM700 614q4 -2 6.5 -4t7.5 -4q-5 7 -17 11.5t-23 4.5q5 -5 12 -5.5t14 -2.5zM802 281q3 5 8.5 9t12.5 0q-5 -3 -10.5 -6t-10.5 -3zM519 485q6 8 13 14.5t11 14.5
q-7 -5 -14 -12.5t-10 -16.5zM1013 65q7 -2 12 -6q-1 3 0 6t-1 5q-2 -2 -5.5 -0.5t-5.5 3.5v-8zM727 568q-5 4 -11 8t-14 2q6 -2 11.5 -6t13.5 -4zM535 548q-2 0 -2.5 0.5t-2.5 0.5q-6 -5 -12 -15t-8 -15q5 8 11.5 15.5t13.5 13.5zM755 548q-6 2 -8.5 7t-8.5 7q5 -5 9.5 -11
t8.5 -11q0 4 2 7t0 6q-1 -1 -0.5 -3.5t-2.5 -1.5zM541 547q-9 -6 -17 -15.5t-11 -19.5q5 11 13 19t15 16zM542 597q-1 -2 1.5 -3.5t3.5 -3.5q3 2 5 3t4 4q-4 -1 -8 0t-6 0zM818 180q-1 -6 -6 -7.5t-10 -1.5q3 4 7 5.5t9 3.5zM807 145q0 -4 -6 -4t-10 1q3 2 8.5 3t7.5 0z
M613 302q-3 -4 -8 -0.5t-7 4.5q3 3 7.5 0.5t7.5 -4.5zM588 551q4 -2 12 -1t14 -1q-6 2 -12.5 3.5t-13.5 -1.5zM786 164q4 6 12 9q0 -5 -3.5 -7t-8.5 -2zM811 302q2 2 6 4.5t5 -1.5q-1 -3 -4.5 -4t-6.5 1zM803 163q-2 -6 -15 -6q4 4 15 6zM685 610q5 1 9 -1t6 -1q-4 2 -8 4.5
t-9 1.5q2 -2 2 -4zM503 432q-2 14 3 24t7 18q-5 -8 -9 -19.5t-1 -22.5zM684 10q0 -5 -6 -5t-8 1l7.5 2.5t6.5 1.5zM748 571q4 -2 6.5 -6t6.5 -6q-1 2 -0.5 2.5t0.5 2.5q-5 0 -7 4t-6 3zM815 165q-1 0 -1 -3q-5 -3 -10 -3q2 4 11 6zM801 152q-1 -2 -5 -2t-7 -1q1 2 5.5 3.5
t6.5 -0.5zM560 529q-16 -7 -24 -15q10 10 24 12v3zM1011 62q2 -4 6 -4.5t9 -1.5q-2 2 -7 3t-8 3zM446 214q3 -1 7 -0.5t6 2.5q-10 0 -13 -2zM663 126l-3.5 3.5t-1.5 5.5q3 -2 3.5 -4.5t1.5 -4.5zM811 219h3q-1 2 -0.5 4.5t-1.5 3.5q0 -2 -1 -3t0 -5zM812 155q0 -3 -2 -3.5
t-4 0.5q1 3 6 3zM781 360q1 2 -1.5 3.5t-4.5 1.5q0 -4 6 -5zM1068 364q0 1 1 5.5t-1 4.5q1 -4 -0.5 -6.5t0.5 -3.5zM519 460q-2 -2 -5.5 -4.5t-1.5 -6.5q1 3 4.5 7t2.5 4zM1073 359q2 0 2.5 4t-0.5 3q1 -2 -2 -4t0 -3zM499 489q0 2 2 6t0 3q-2 -2 -3 -7t1 -2zM513 438
q-1 -3 -3 -5t0 -5q0 3 2.5 6.5t0.5 3.5zM507 446q-2 -5 -1 -8t1 5q0 1 1 1t-1 2zM776 479q-1 2 0.5 4t-0.5 4q1 -2 -0.5 -5.5t0.5 -2.5zM592 546q-3 0 -4 -2q1 0 1.5 -0.5t2.5 0.5v2zM1017 114q0 2 1.5 2t2.5 -1q0 -2 -1.5 -2t-2.5 1zM639 430q-1 1 -3 -4z" />
    <glyph glyph-name="cid18384" unicode="&#xe5;" horiz-adv-x="1211" 
d="M1184 369q1 -2 2 0.5t3 0.5q2 -12 1.5 -22t-1.5 -21q-2 -33 -15.5 -53t-31.5 -39q3 -1 6 0.5t3 -1.5q-11 0 -15 -7.5t-13 -9.5q-8 -14 -15.5 -26.5t-14.5 -25.5q0 -3 1 -4t0 -3q-9 -51 -16.5 -102t-21.5 -96q-2 -6 -4.5 -13t-4.5 -13q-1 -6 0.5 -13.5t1.5 -15.5
q1 -8 0 -15.5t0 -13.5q2 -11 5 -21.5t1 -21.5q-5 2 -5.5 7.5t-1.5 9.5q-12 74 -33 141t-36 138q5 -3 6 -9.5t3 -12.5q11 -47 25.5 -90.5t24.5 -90.5q8 21 2 46t-8 47q-2 10 0 19.5t0 21.5q6 -4 5 -12t-1 -15q0 -20 6.5 -41.5t3.5 -44.5q17 43 23.5 96.5t17.5 104.5
q-5 -12 -13 -22l-16 -20q-2 -2 -4 -6t-7 -4q2 9 7.5 13.5t10.5 10.5q16 20 24.5 45.5t25.5 44.5q-7 -3 -12.5 -12.5t-11 -20t-12 -21t-13.5 -16.5q-5 -5 -21 -5q-21 15 -34 33q5 -2 11 -7.5t13 -11t14 -8t14 2.5q14 10 21.5 30t17.5 33q5 6 12.5 9.5t13.5 8.5q18 17 34 42
q12 16 16 30.5t6 40.5q0 5 0.5 13t-0.5 15q-4 -14 -8.5 -27.5t-13.5 -18.5q4 8 8 17t6 20l10 36t-4 38q-4 8 -11 13.5t-13 11.5q-7 8 -13 15.5t-15 13.5q-22 16 -49.5 31.5t-54.5 26.5q-8 12 -16.5 23.5t-18.5 21.5q-8 0 -14 -0.5t-12 -1.5q-1 0 0.5 -3.5t0.5 -6.5l-20 -6
q-2 -17 -2 -37t4 -34q-9 10 -9 31t2 38q-8 -5 -10.5 -14.5t-3 -22t-0.5 -25.5t-1 -24q-2 3 -5 3h-7h-7.5t-5.5 2q4 2 14 2q-2 5 -4 11t0 11q3 -5 4.5 -10.5t3.5 -10.5q1 25 3 47.5t16 34.5q-22 8 -38 18q13 0 23.5 -6t19.5 -11q9 4 18 6q-15 12 -32.5 22t-32.5 24l-6 -4
t-7 2q-24 -10 -34 -31.5t-11 -53.5q3 -8 11 -9.5t16 -5.5t16.5 -8.5t16.5 -9.5q3 -2 7.5 -4.5t3.5 -7.5q-5 -2 -8.5 1.5t-6.5 5.5q-8 5 -16 9t-16 9q-8 4 -16.5 6.5t-13.5 9.5q0 32 9.5 53t27.5 35q-18 20 -36 40.5t-41 37.5q-7 1 -14 4.5t-14 7.5l-14 8t-13 5
q-11 2 -22 -2.5t-22 -6.5q14 -5 32.5 -7t34.5 -7q-7 -5 -17 -2.5t-20 4.5q-13 2 -24.5 4.5t-23.5 2.5q-5 1 -10 2.5t-9 0.5q-6 -1 -11 -6t-11 -7q-8 -3 -16 -3.5t-16 -4.5q-5 -8 -11 -15t-11 -16q1 -5 10 -5q1 1 0 4t0 5q5 6 11 14.5t17 13.5q9 4 22.5 3.5t27.5 0.5
q11 0 23 1.5t21 -0.5q11 -2 19 -9.5t12 -12.5q-8 -1 -15 5t-18 8q-6 2 -14.5 1t-16.5 0q-17 2 -33 2.5t-26 -3.5q-9 -4 -15 -11.5t-9 -15.5q3 -2 10.5 -1t12.5 3q3 2 5 4.5t5 3.5q13 5 25 2.5t23 -7t22 -9.5t23 -5q11 -10 20 -24.5t16 -29.5q2 -5 4 -9.5t6 -7.5
q8 -11 22 -16.5t31 -10.5q-1 -5 2 -6t7 -3q-14 3 -28 7.5t-24 12.5q8 -10 5 -26t1 -30q2 -7 5.5 -12t2.5 -12q0 -2 -1 -5.5t-2 -5.5q2 -8 3 -18t0 -20.5t-3.5 -19.5t-7.5 -15q10 -8 15 -16l2 3q3 -9 10.5 -16.5l15.5 -15.5q13 1 22 5.5t20 6.5q2 -2 1 -2.5t-2 -2.5
q10 4 18 9.5t17 8.5q3 2 7 1.5t6 4.5q5 -3 11.5 -1.5t12.5 1.5l9 60q-4 9 -11 17.5t-6 19.5q7 -4 9.5 -11.5t7.5 -14.5l16 -26q8 -12 19 -24t16 -26q4 -8 5.5 -15.5t6.5 -14.5t12 -11.5t15 -7.5q8 -4 16 -5.5t16 -7.5q-17 1 -36.5 8.5t-28.5 19.5q-6 10 -8 21t-9 20
q4 -17 5 -33.5t10 -27.5q17 -23 42.5 -36t54.5 -24q-13 -2 -24.5 3t-20.5 10q-10 5 -20.5 10t-18.5 12q-4 4 -7.5 9t-7.5 10q-7 7 -9.5 16t-3.5 19t-2.5 20.5t-5.5 22.5q-5 12 -15 22t-14 21q-2 -13 -0.5 -26.5t4 -28.5t4 -30t-1.5 -31q0 -5 -4 -6q-2 20 -2 43.5t-5 40.5
q-3 -19 -3.5 -40t-1.5 -41q-1 -6 -2 -13.5t1 -13.5q2 -10 10.5 -20.5t15.5 -17.5q9 -10 17.5 -17t14.5 -15q-11 2 -20 10.5t-17 18.5q-7 7 -16 18t-11 20q-3 16 0.5 32t2.5 33q-8 -17 -8 -39t-1 -43q-1 -5 -1.5 -9.5t0.5 -9.5q1 -15 7.5 -28.5t14 -25t15 -22.5t12.5 -22
q-9 6 -17 17.5t-16 23.5q-7 13 -14 26.5t-9 29.5q-1 14 -0.5 29t1.5 29q2 17 6.5 31.5t8.5 28.5q-14 8 -27 3t-27 -12q-13 -8 -22.5 -13.5t-17.5 -13.5q-1 9 8 13t15 9q-9 1 -17 -4t-19 -5q10 -14 8.5 -34.5t0.5 -41.5q2 -10 4.5 -20.5t-0.5 -20.5q-2 9 -5 19.5t-4 21.5
q-2 21 -1 42t-9 33q-11 10 -21 23t-21 24q-4 -14 -4 -30.5t1 -34t2 -35.5t-2 -35q-2 -12 -8 -24.5t-10 -23.5q-4 -14 -7.5 -25.5t-9.5 -21.5q6 4 14 8t19 2q7 -1 15 -6.5t15 -10.5q8 -5 14.5 -11.5t13.5 -9.5q0 20 1.5 38t3.5 36q4 -17 2.5 -39.5t-3.5 -41.5q-11 1 -19 9
t-17 13q-3 -3 -6 -8t-6 -9q-3 -19 -1.5 -42t-3.5 -40q12 -56 23 -114t17 -118q-20 -5 -44 -4.5t-41 -6.5q-2 2 -1.5 6.5t-1.5 6.5q3 29 3.5 60.5t1 63.5t1.5 63t6 58q-9 18 -12 42q-7 5 -13.5 10t-15.5 8q-4 -10 -3 -25t-2 -26q-12 6 -21 15.5t-17 20.5q9 -7 17.5 -13
t16.5 -14q0 15 1.5 28.5t5.5 24.5t12.5 18t22.5 8q6 18 11.5 37t12.5 37q2 6 4.5 12.5t3.5 13.5q2 20 -0.5 43t-0.5 45q1 4 -0.5 7t-0.5 5q0 2 1 3.5t1 2.5q2 5 0.5 9.5t-0.5 9.5q-1 1 -6.5 0.5t-7.5 1.5q-1 4 -1.5 5t-2.5 6q-5 0 -12 -1t-9 3q11 4 21.5 0.5t15.5 -10.5
q14 5 17 26t0 40q-1 2 -2 -1t-3 -2q-5 11 -12 13q-5 -5 -8 -11t-8 -9q1 9 6.5 13.5t8.5 9.5q8 1 11 -2.5t6 -7.5q-2 9 -6.5 15t-13.5 4q-5 -1 -8.5 -5.5t-6 -10t-4.5 -10.5t-5 -8q2 -1 4 3.5t4 7.5q3 -4 0.5 -8t-3.5 -7q4 0 1.5 -7t-4.5 -9q-2 -1 -1 2.5t2 4.5q-1 2 -2.5 0
t-3.5 0q1 2 1 3t1 2q-1 2 -1.5 1t-2.5 0q-2 8 -5.5 13t-7.5 12q4 5 -0.5 7.5t-4.5 7.5q5 2 6.5 -1.5t4.5 -4.5l-16 18q-1 3 0.5 3t1.5 2q-4 6 -7 13.5t-6 15.5q6 -2 9 -6t10 -6q0 5 -6.5 8.5t-9.5 8.5q-8 5 -15.5 8.5t-11.5 12.5q8 -1 12 -6.5t12 -3.5q-5 8 -18 13t-18 16
q7 1 12.5 -3t13.5 -6q-4 3 -9 5t-10 5q-2 1 -3 2.5t-3 2.5q-5 2 -10 1t-9 3q4 3 12 2t13 0q-5 2 -12 2.5t-13 2.5q8 5 18.5 1.5t19.5 -3.5q-6 4 -13 4q0 3 2.5 3h4.5q-2 2 -6 1t-7 0q0 2 1.5 1.5t1.5 1.5q-14 -1 -24.5 -4t-21.5 -7q2 4 6.5 5.5t8.5 3.5q-8 0 -15.5 -3.5
t-15.5 -5.5q0 5 4 5t6 3q-11 -3 -19.5 -5t-14.5 -7q-7 2 -12 -4t-15 -6q1 5 5.5 6t5.5 5q-5 0 -9.5 -4t-5.5 -10q-2 -2 -3.5 -0.5t-0.5 3.5q-5 -8 -11 -13q-4 2 -1.5 4.5t2.5 4.5q-4 -5 -8.5 -1t-8.5 6q0 -11 10 -11q-1 -3 -2 -4.5t1 -3.5q-3 -2 -7 -3.5t-6 -1.5
q-4 0 -6.5 1t-6.5 2q1 0 -1.5 -1t-1.5 -1q-8 -1 -13.5 3.5t-10.5 11.5q1 -13 11.5 -15t21.5 -6q-5 -3 -13 -3.5t-14 2.5q1 -5 8.5 -3.5t12.5 0.5q-3 -3 -9 -3.5t-11 0.5v-6q5 -5 4.5 -13t-1.5 -16q2 2 2 6.5t1 8.5q5 -5 3 -13.5t-1 -16.5t3.5 -13t5.5 -9q2 -8 4.5 -16.5
t8.5 -13.5q4 -19 7.5 -37t11.5 -34q4 -11 10 -19t11 -16t8.5 -15t12.5 -10q5 -16 13.5 -29.5t26.5 -16.5q14 -2 26.5 1t23.5 8.5t20 12.5t17 12q3 -1 -1 -3t-4 -4q2 1 3 2.5t4 0.5q-7 -13 -17.5 -23t-15.5 -26l-6 -2q0 -2 1.5 -1t3.5 0q-6 -4 -16 -5t-17 1q1 -7 9.5 -4
t15.5 1q-3 -4 -10 -3.5t-12 -1.5q1 -4 4 -4.5t7 0.5t8.5 2.5t8.5 1.5q-5 -5 -12 -5.5t-14 -2.5l3 -6q4 0 8.5 3.5t12.5 1.5q-6 -4 -9.5 -4.5t-7.5 -2.5q5 -8 14.5 -16t16.5 -16q24 -8 54 -9q-2 -5 -6.5 -4.5t-7.5 0.5q-9 1 -18.5 3.5t-15.5 4.5q-2 0 -1 -1t-1 -2
q-18 11 -34 28q-2 3 -6 7t-5 6q-4 11 -8.5 22t-11.5 22q-3 -1 -4.5 0t-4.5 1q-1 -23 1.5 -44.5t7.5 -38.5q6 -18 16.5 -32t16.5 -31q-25 23 -37.5 59t-8.5 87q-9 2 -14 7.5t-9 12t-7 14t-8 12.5q-21 0 -41.5 6.5t-41.5 3.5q-15 -2 -24 -12.5t-21 -16.5q-7 4 -14 1.5
t-10 -6.5q-7 -19 -13 -38.5t-12 -37.5q-1 20 6 38t13 35q-7 6 -13 14t-16 10q-11 2 -21 -0.5t-21 -1.5q-7 0 -12 3.5t-11 0.5q-2 0 -2 -2.5t-4 -1.5q-4 5 -7.5 10t-9.5 9q0 -4 -0.5 -7.5t-0.5 -8.5q-2 -4 -4 -5q0 -19 -8 -31t-19.5 -20t-24.5 -14.5t-25 -13.5q-2 0 -3 0.5
t-2 0.5q-5 -7 -12 -13t-13 -13q11 5 22.5 7.5t22 4.5t20.5 5.5t18 10.5q5 5 10.5 14t10.5 16q5 9 9 17.5t10 16.5q-2 -10 -6.5 -19t-9.5 -17q-4 -8 -9 -16.5t-12 -14.5q-15 -14 -37 -17.5t-45 -11.5q-2 1 -4 0.5t-1 1.5q-6 -4 -11 -8.5t-10 -8.5q21 29 49.5 53.5t52.5 54.5
q10 13 18.5 25.5t12.5 29.5q-22 -26 -50 -49t-63 -39q29 20 54.5 39t47.5 45q19 21 31 40t22 48q3 8 5.5 17t7.5 16q4 5 9 8.5t7 9.5q-2 17 -7.5 35t-16.5 29q-4 3 -10 8t-9 6q-8 2 -18.5 -1t-18.5 -5l-18 -4t-20 -2q14 7 31 9t34 6q-6 3 -14.5 4t-17.5 0.5t-17.5 -2.5
t-13.5 -5q-13 -9 -17.5 -25.5t-13.5 -30.5q-2 5 0.5 10.5t4.5 10.5q-17 -9 -29.5 -24t-23 -33t-21 -37.5t-22.5 -37.5q-17 -26 -36.5 -48t-38.5 -48q-6 -8 -13.5 -16.5t-10.5 -16.5q-4 -11 -2 -20t7 -16q9 -12 24.5 -21.5t31.5 -16.5l34 -14t31 -15q14 -3 26.5 -11t23.5 -15
q8 -5 17.5 -7.5t20.5 -6.5q11 -5 20 -9t19 -6q19 -2 38 -3.5t39 -5.5q2 -2 1 -3t-2 -3q11 -11 24 -18.5t27 -14.5q-13 23 -29 49t-29 55q-5 11 -9.5 23.5t-9.5 24.5l-11 27.5t-10 29.5l-2 4q4 -3 6 -9.5t4 -11.5q19 -45 39.5 -90.5t48.5 -81.5q9 -20 21.5 -34.5t30.5 -25.5
q6 2 12 -3t5 -15l-7 11q-2 -1 -2 -2.5t-3 -0.5q-28 14 -44 37q-17 11 -35 19.5t-32 22.5q-2 1 -1.5 3t-0.5 3q-20 4 -38 5t-35 3q-12 2 -24 7.5t-24 10.5q-6 2 -11.5 4t-11.5 5q-5 2 -9.5 6t-9.5 7q-3 2 -7 3t-7 3q-5 3 -9 6t-12 3q-8 6 -16 8.5t-16 6.5q-23 9 -46.5 19.5
t-40.5 27.5q-7 7 -11 19t1 25q3 9 10 17.5t14 17.5q19 26 39.5 49t37.5 50q6 9 10.5 19t9.5 19q16 27 34.5 54t46.5 42q6 18 18.5 30.5t38.5 11.5q11 15 21.5 30.5t24.5 26.5q2 0 5 0.5t5 -1.5q5 9 13.5 16t14.5 16q4 5 7 11t11 6q-11 -12 -20 -24t-20 -25q20 -1 31.5 -8.5
t22.5 -15.5q20 4 30.5 10.5t17.5 20.5q5 10 4.5 23t7.5 21q-5 2 -6 4t-6 5q-1 4 0 6l2 4q2 2 7 3t7 2q1 4 -2 5.5t-6.5 3t-7 3.5t-4.5 5q5 1 11.5 -2.5t10.5 -6.5q1 2 3 4.5t4 0.5q-1 -3 -2.5 -9t-3.5 -9q-13 2 -12.5 -4.5t9.5 -7.5q15 -1 21 8t15 15q2 10 -2.5 14t-12.5 9
q-11 7 -19 6q0 2 1.5 1.5t-0.5 1.5q-10 2 -18 -0.5t-14 -7.5t-10.5 -11t-8.5 -12l-29 -31q10 18 25 36t33 32q8 -1 16.5 -0.5t12.5 -3.5q7 9 16.5 4.5t17.5 -3.5q5 0 8.5 3t7.5 3q6 0 10.5 -3t9.5 -7t10.5 -6.5t13.5 -1.5q2 -3 3 -6.5t3 -6.5q16 0 32 3t35 2q2 0 4.5 -1
t4.5 -1t4 1.5t4 2.5q6 1 13 -0.5t13 -0.5q13 1 28.5 8t32.5 4q10 -2 20 -9.5t20 -11.5q2 -2 6 -2t6 -1q3 -2 6 -5t6 -5q17 -14 33.5 -32.5t32.5 -33.5q1 -1 1 -6q3 2 6 2h8q4 1 6 2.5t4 0.5q7 -1 16 -9t16 -12l30 -19q8 1 17.5 3t17.5 0q6 -2 10 -9t9 -12q5 -8 10.5 -13
t7.5 -10q29 -14 60.5 -31t55.5 -39q8 -7 16 -15t14 -16q12 -13 15 -35t-8 -42v-1zM480 540q-8 5 -10 13t-1.5 17.5t3 19t5.5 16.5q-8 1 -13.5 -4t-13.5 -8l-15 -2q-6 -2 -10.5 -7t-10.5 -6q4 -7 -1 -14.5t-7 -3.5q-8 -13 -19 -25.5t-20 -26.5q0 -1 -2.5 0t-2.5 -1
q2 -8 6 -15t2 -17q-2 -7 -8.5 -12t-10.5 -11q-7 -12 -11 -27t-11 -32l-14 -25q-4 -8 -10 -14t-7 -11q-2 -6 -1 -10.5t-3 -8.5q7 1 10.5 -5.5t8.5 -7.5q2 -1 4.5 0t5.5 1q5 0 9 -2l8 -4q11 -1 22 2t22 1q2 0 6.5 -3l7.5 -5q5 -3 10 -10t8 -7q2 1 4 4.5t7 5.5q5 1 7.5 -0.5
t7.5 0.5q11 6 21 16t25 12q19 2 37.5 -3t38.5 -6q-8 14 -18 25.5t-18 26.5t-12 32t-6 39q-1 8 -6.5 17.5t-9.5 18.5q-7 14 -11.5 30t-2.5 37zM357 526q2 -2 2 -6t4 -1q3 3 -1 9t-5 8q8 1 9 -5t3 -12q8 13 17 23.5t17 22.5q2 2 5 3t1 6q0 3 -1.5 1.5t-2.5 0.5q2 2 1.5 3
t-0.5 4q-11 15 -27 23.5t-42 8.5q-2 0 -2.5 -1t-2.5 -1q-2 -1 -1 2t-1 1q-9 -4 -14 -11t-11 -15q-5 -6 -10 -11.5t-7 -13.5q27 0 42.5 -11t26.5 -28zM624 660q-32 -8 -50 -25t-28 -45q1 8 4 15.5l5 12.5q-5 -8 -9.5 -18t-2.5 -21q11 20 26.5 37.5t38.5 27.5q-1 -2 -3.5 -2.5
t-0.5 -2.5l6 3t6 0q-18 -7 -33 -19t-21 -28q9 7 18 15.5t18.5 15.5t21.5 12t27 5q-6 -2 -10.5 -4t-9.5 -4q11 5 27.5 7t33.5 2q-36 -5 -58 -18q16 3 35.5 4t36.5 -4q-25 -1 -49.5 -2.5t-43.5 -9.5q11 3 25 5t29 3t28.5 -1t23.5 -7q-15 2 -33 2t-34 -2q19 -1 38 -1.5t31 -8.5
q-4 -1 -9.5 0.5t-3.5 -0.5q7 -2 14 -5.5t12 -5.5q-1 2 -3 2.5t-1 2.5q14 -7 24 -18.5t21 -23.5q0 11 -5 17.5t-9 12.5q-9 18 -17 34.5t-25 25.5q-11 2 -22.5 3t-22.5 4q6 2 14 0.5t14 0.5q-12 6 -26 6.5t-28.5 -2t-27.5 -7.5t-23 -9q10 10 28 16.5t38 8.5q-9 1 -19 1t-14 -3
q-2 -2 -1 -2.5t-1 -2.5zM450 605q5 6 16 5.5t17 4.5q2 0 2.5 -1.5t2.5 -0.5q18 4 26.5 17t22.5 21q-12 -5 -21 0t-17 7q-5 2 -9 1.5t-8 0.5q-5 2 -9.5 5.5t-7.5 7.5q-6 -6 -8 -13.5t-3.5 -16t-4 -16t-8.5 -13.5q-4 -5 -8.5 -7t-8.5 -7q-10 -4 -21 -7q-1 -2 3.5 -4t4.5 -6
q10 8 23 12t25 9q-3 1 -5.5 0t-3.5 1zM521 -104q2 -9 2 -18.5t2 -18.5q2 -8 3.5 -16t1.5 -16q-6 3 -7 12.5t-3 17.5q-2 9 -2.5 18t-2.5 17q-3 14 -8 26.5t-10 25.5q-8 26 -17.5 51.5t-14.5 56.5q-8 43 -13.5 87.5t-5.5 95.5q0 13 -0.5 26t2.5 23q2 -17 1.5 -40.5t0.5 -43.5
q2 -17 5 -33t5 -32q0 -5 -1 -8.5t0 -7.5q0 -15 4 -30.5t7 -29.5q2 -16 5 -30.5t8 -27.5q5 -14 10 -26.5t9 -25.5q2 -8 4 -15t5 -13q2 -7 5 -13t5 -12zM542 722q-2 8 -11.5 13t-17.5 0q7 0 9.5 -4t3 -9.5t1 -11.5t2.5 -9q-2 -2 -2.5 -0.5t-2.5 0.5q-2 -16 -13 -21.5
t-19 -16.5q8 2 15 1.5t14 1.5q5 2 7 5t6 7q7 8 15.5 14.5t6.5 20.5l-6 6t-8 3zM491 690q-2 -2 -7 -8t-13 -7q3 -5 7.5 -6.5t8.5 -3.5q6 5 13.5 11.5t13 14.5t7.5 17.5t-4 20.5q-5 1 -9.5 2.5t-9.5 -0.5q-2 5 -10.5 6t-12.5 -3q5 -4 15.5 -8t12.5 -12q2 -7 -2.5 -14t-9.5 -10
zM583 653q-6 -1 -6.5 3.5t-2.5 6.5q-2 -3 -4 -5.5t-5 -4.5q-5 2 -12 -1.5t-13 -4.5q-1 -5 -5.5 -7.5t-4.5 -6.5q0 3 3 0q-4 -3 -7 -10.5t-4.5 -15.5t0 -15t7.5 -9q-6 19 5 35t24 20q-10 -8 -19.5 -20.5t-4.5 -30.5q2 27 17.5 40t31.5 26zM272 263q7 9 9 19.5t8 21.5
q-2 1 -0.5 5.5t-0.5 6.5q-14 -25 -31.5 -44.5t-37.5 -38.5v-1q14 8 29 13t24 18zM676 531q0 -2 -2 -1.5t-4 0.5q2 -1 3 -2t-2 -1v-2q0 -1 1 -1q-15 -2 -28.5 -12.5t-24.5 -12.5q-13 -2 -13 10q0 2 -1.5 1.5t-1.5 0.5q4 5 10 7.5t12 4.5q9 4 23 8.5t28 -0.5zM570 687
q2 8 -2 16t-7 13q4 -11 -4.5 -21t-13.5 -16q-8 -8 -15 -13.5t-17 -6.5q5 -2 10.5 -4t12.5 0q3 1 9 5t12 9.5t10.5 10.5t4.5 7zM694 288q-15 -9 -29.5 -18.5t-38.5 -9.5q3 -5 5 -9.5t7 -7.5q8 2 14.5 3t14.5 3q5 11 13.5 21t13.5 18zM624 467q-3 9 1.5 15t13 9t18.5 2.5
t17 -4.5q-1 -5 -5.5 -6t-7.5 -5q-11 -1 -18 -6t-19 -5zM568 455q-5 -7 -16 -12.5t-19 1.5q-1 5 0 7.5t1 4.5q7 5 19 7t20 -3q0 -8 1 -19.5t-6 -13.5q1 8 0 14t0 14zM600 698q10 5 22.5 5.5t18.5 8.5q-17 0 -35 -2t-34 -2q0 -5 2 -8t2 -8h10q-2 -3 -4 -7t-2 -6q4 3 5.5 10.5
t9.5 4.5q-6 -4 -9.5 -10.5t-6.5 -12.5q3 4 6.5 8t5.5 11q4 -1 5 2.5t4 5.5zM1142 289q-12 -2 -22.5 -0.5t-19.5 4t-17.5 5.5t-16.5 3q4 8 11.5 4.5t12.5 -5.5q10 -3 22 -5.5t27 -0.5t23 14.5t18 21.5q-1 -5 -5 -11.5t-9.5 -12.5t-11.5 -11t-12 -6zM663 361q-6 -2 -12 -0.5
t-11 0.5q-8 0 -16 -4t-16 -6q-3 -1 -5.5 -0.5t-4.5 -0.5q-5 -2 -8 -7t-9 -5q4 8 11.5 14t20.5 4q3 2 5.5 5.5t5.5 5.5h21t18 -1q4 2 7.5 6t8.5 2q-2 -5 -7 -7t-9 -6zM561 491q0 -6 -4 -8.5t-6 -6.5q-11 0 -21.5 1t-20.5 0q7 9 22 13t30 1zM411 165q-2 16 -2 33t1 33.5
t4.5 31t9.5 24.5h3q-5 -11 -7.5 -25.5t-4 -31t-2 -33.5t-2.5 -32zM769 176q-14 -1 -23.5 -6t-20.5 -8q8 -2 15.5 -4.5t18.5 -0.5q2 6 5 10t5 9zM449 67q-1 3 -2.5 8t3.5 7q6 -14 11.5 -33t7.5 -33q-5 11 -10.5 24t-9.5 27zM578 686q-10 -7 -18 -16.5t-19 -16.5q17 1 24.5 10
t12.5 23zM737 319q2 7 8.5 11t10.5 11q5 11 2.5 24t4.5 23q-2 -11 -0.5 -24t-2.5 -23q-3 -8 -11 -12.5t-12 -9.5zM750 536q3 -5 10 -8.5t12 -4.5q-8 11 -20 19.5t-23 13.5q6 -5 12 -9.5t10 -9.5q-1 0 -1 -1zM706 580q5 -9 18.5 -14.5t18.5 -9.5q0 1 -1 1.5t-1 1.5q3 0 3 1
q-5 4 -10.5 8t-11.5 7q1 -2 -0.5 -2t-2.5 -1q-4 2 -7 5.5t-6 2.5zM598 399q-1 8 8.5 9t14.5 -2q1 -4 -2 -3.5t-6 -0.5q-5 -2 -8 -2t-7 -1zM784 435q-1 -5 -3 -10.5t-6 -9.5t-8.5 -5t-10.5 5q5 1 7 -0.5t7 -1.5q5 5 6 12.5t8 9.5zM481 589q-3 -10 3.5 -17t11.5 -9
q-4 5 -8 11.5t-6 13.5q0 2 0.5 6t-1.5 4q1 2 0.5 4t0.5 4q-2 -2 -2.5 -4.5t1.5 -4.5q-2 -6 -2 -7q2 0 2 -1zM501 599q5 2 7 8t1 11q-2 -2 -5 -3.5t-5 -3.5v-7t2 -5zM768 552q-11 12 -24.5 21.5t-28.5 14.5q14 -8 28 -17.5t25 -18.5zM781 451q-3 1 -6 4t-4.5 6.5t-1.5 6.5
t4 5q-1 -9 4 -11.5t4 -10.5zM523 633q-8 -5 -9 -15.5t-3 -20.5l4 2q-1 11 2.5 19.5t5.5 14.5zM569 398q4 2 0.5 5t-0.5 7q2 -8 9.5 -10.5t11.5 -8.5q-5 -1 -9.5 3t-11.5 4zM607 317q5 5 12.5 8.5t15.5 1.5q-5 -4 -12.5 -5.5t-15.5 -4.5zM602 338q3 4 10.5 6t13.5 1
q-3 -5 -11 -6t-13 -1zM499 592q-5 -1 -4 -4.5t3.5 -7.5t6 -7.5t5.5 -3.5q-5 5 -7 11zM501 593q5 -6 9.5 -14.5t10.5 -10.5q-5 5 -11 14.5t1 14.5q-4 -2 -5.5 -2.5zM737 584q-2 2 -2.5 3.5t-2.5 2.5q-3 0 -7.5 1.5t-9.5 4t-9 4t-6 0.5zM777 446q-5 0 -7.5 4.5t-0.5 8.5
q5 -1 5.5 -5t2.5 -8zM726 634q-5 -2 -9 1.5t-7 5.5q4 2 9 -0.5t7 -6.5zM751 557q5 -5 9.5 -11.5t11.5 -8.5l-11.5 11.5t-9.5 8.5zM492 606q2 1 1 -2.5t1 -0.5v6q-5 0 -5.5 -5.5t-0.5 -10.5q2 0 4 -2q0 3 -2.5 8t2.5 7zM1042 -78q-2 -3 -1.5 -7t2.5 -8q-1 4 0 8.5t-1 6.5z
M722 551q8 -4 14.5 -10.5t13.5 -8.5q-8 5 -14.5 11t-13.5 8zM936 383q-2 0 -5 0.5t-4 -1.5q2 0 3.5 -1.5t3.5 -1.5t2 4zM687 599q2 -2 5.5 -4.5t5.5 0.5zM598 614q2 2 6.5 3.5t6.5 5.5q-2 0 -2 -1q-3 -2 -7 -4t-4 -4zM515 587v5t-2 3q2 -2 -1 -2q0 -5 3 -6zM573 592q6 4 9 7
q-3 -1 -6.5 -3t-2.5 -4zM739 463q1 3 3.5 6t1.5 5q-1 -2 -3.5 -5.5t-1.5 -5.5zM681 550q-2 -2 -3.5 0t-2.5 3q2 2 3 0t3 -3zM489 587q0 -2 1 -4.5t2 -4.5q0 6 -3 9z" />
    <glyph glyph-name="cid757" unicode="&#xe6;" horiz-adv-x="628" 
d="M581 0h-163q-28 0 -54 7.5t-48 24.5q-45 -39 -125 -39q-82 0 -126.5 41.5t-44.5 122.5v72q0 46 12 76.5t34 48.5t52.5 25.5t67.5 7.5h66v32q0 24 -14.5 34.5t-39.5 10.5h-129v111h144q59 0 98 -31q22 19 51 30t67 11q178 0 178 -177v-72q0 -50 -12 -81t-33.5 -47.5
t-51.5 -22t-65 -5.5h-79v-21q1 -18 5.5 -28.5t12.5 -15.5t19 -6t24 -1h154v-108zM366 281h68q32 0 44.5 12.5t12.5 47.5v71q0 38 -16.5 52t-45.5 14q-27 0 -44 -14.5t-19 -49.5v-133zM191 100q23 0 42 9t19 40v134h-65q-29 0 -41.5 -12.5t-12.5 -41.5v-74q0 -31 17.5 -43
t40.5 -12z" />
    </font>
</defs>
</svg>
